SplineFontDB: 3.0
FontName: Sesquialtera
FullName: Sesquialtera
FamilyName: Sesquialtera
Weight: Regular
Copyright: Copyright (c) 2020, Josep Sanz Quintana
Version: 001.000
ItalicAngle: 0
UnderlinePosition: -100
UnderlineWidth: 50
Ascent: 800
Descent: 200
InvalidEm: 0
sfntRevision: 0x00010000
LayerCount: 2
Layer: 0 0 "Back" 1
Layer: 1 0 "Fore" 0
XUID: [1021 9 887325469 1505322]
StyleMap: 0x0000
FSType: 0
OS2Version: 4
OS2_WeightWidthSlopeOnly: 0
OS2_UseTypoMetrics: 1
CreationTime: 1599212655
ModificationTime: 1600679257
PfmFamily: 17
TTFWeight: 400
TTFWidth: 5
LineGap: 90
VLineGap: 0
Panose: 2 0 5 3 0 0 0 0 0 0
OS2TypoAscent: 800
OS2TypoAOffset: 0
OS2TypoDescent: -200
OS2TypoDOffset: 0
OS2TypoLinegap: 90
OS2WinAscent: 1156
OS2WinAOffset: 0
OS2WinDescent: 384
OS2WinDOffset: 0
HheadAscent: 1156
HheadAOffset: 0
HheadDescent: -384
HheadDOffset: 0
OS2SubXSize: 650
OS2SubYSize: 700
OS2SubXOff: 0
OS2SubYOff: 140
OS2SupXSize: 650
OS2SupYSize: 700
OS2SupXOff: 0
OS2SupYOff: 480
OS2StrikeYSize: 49
OS2StrikeYPos: 258
OS2CapHeight: 770
OS2XHeight: 1150
OS2Vendor: 'PfEd'
OS2CodePages: 00000001.00000000
OS2UnicodeRanges: 00000001.00000000.00000000.00000000
Lookup: 4 256 1 "'liga' Standard Ligatures in Latin lookup 0" { "'liga' Standard Ligatures in Latin lookup 0 per glyph data 0"  "'liga' Standard Ligatures in Latin lookup 0 per glyph data 1"  "'liga' Standard Ligatures in Latin lookup 0 per glyph data 2"  "'liga' Standard Ligatures in Latin lookup 0 per glyph data 3"  "'liga' Standard Ligatures in Latin lookup 0 per glyph data 4"  "'liga' Standard Ligatures in Latin lookup 0 per glyph data 5"  } ['liga' ('DFLT' <'dflt' > 'latn' <'dflt' > ) ]

StartChar: .notdef
Encoding: 65536 -1 0
Width: 500
Flags: MW
HStem: 0 50<100 400 100 450> 483 50<100 400 100 100>
VStem: 50 50<50 50 50 483> 400 50<50 483 483 483>
LayerCount: 2
Fore
SplineSet
50 0 m 1
 50 533 l 1
 450 533 l 1
 450 0 l 1
 50 0 l 1
100 50 m 1
 400 50 l 1
 400 483 l 1
 100 483 l 1
 100 50 l 1
EndSplineSet
Validated: 1
EndChar

StartChar: D_D
Encoding: 9 9 1
Width: 817
GlyphClass: 3
Flags: MW
HStem: 315 28 315 37<451 502> 525 28 525 37<261.5 299 261.5 299> 531 42<378 378> 856 37<387 391 391 486> 864 28 1066 37<197 201 201 296> 1074 28
VStem: 109 79<639 648 648 989 989 1024> 299 79<429 438 438 525 525 525 573 779 779 814> 512 98 702 98
LayerCount: 2
Fore
SplineSet
502 315 m 2x4178
 209 315 l 1
 209 344 l 1
 285 346 299 358 299 429 c 2
 299 525 l 1x9078
 19 525 l 1
 19 554 l 1
 95 556 109 568 109 639 c 2
 109 989 l 2
 109 1059 99 1071 34 1074 c 1
 34 1103 l 1x20f8
 297 1103 l 2
 452 1103 572 1010 602 874 c 1
 721 833 799 727 799 594 c 0
 799 430 677 315 502 315 c 2x4178
486 856 m 2x0c78
 391 856 l 2
 383 856 378 851 378 843 c 2
 378 573 l 1
 464 601 512 679 512 803 c 0
 512 821 511 839 509 855 c 1
 501 856 494 856 486 856 c 2x0c78
296 1066 m 2x0578
 201 1066 l 2
 193 1066 188 1061 188 1053 c 2
 188 648 l 2
 188 590 224 562 299 562 c 1
 299 779 l 2
 299 849 289 861 224 864 c 1
 224 893 l 1x1378
 487 893 l 2
 492 893 497 892 502 892 c 1
 477 1003 403 1066 296 1066 c 2x0578
378 531 m 1x4878
 378 438 l 2
 378 380 413 352 489 352 c 0
 625 352 702 435 702 593 c 0
 702 699 668 777 609 819 c 1
 609 804 l 2
 609 661 517 556 378 531 c 1x4878
EndSplineSet
Validated: 1
Ligature2: "'liga' Standard Ligatures in Latin lookup 0 per glyph data 5" D D
EndChar

StartChar: dim5
Encoding: 10 10 2
Width: 338
GlyphClass: 3
Flags: MW
HStem: -350 33<0 27> -88 21G 4 32 153 76 222 20G 282 20G
VStem: 84 35 279 93<-194.5 -117.5 -211.5 -112>
LayerCount: 2
Fore
SplineSet
174 138 m 1xf7
 139 4 l 1
 141 2 l 1
 156 13 188 21 217 21 c 0
 233 21 248 19 263 14 c 1
 374 146 l 1
 374 104 l 1
 290 2 l 1
 340 -26 372 -83 372 -152 c 0
 372 -271 276 -365 152 -365 c 0
 97 -365 52 -347 27 -317 c 1
 0 -350 l 1
 0 -301 l 1
 11 -288 l 1
 8 -280 7 -271 7 -262 c 0
 7 -235 20 -219 43 -219 c 0
 52 -219 59 -221 64 -225 c 1
 237 -18 l 1
 228 -13 216 -11 203 -11 c 0
 162 -11 135 -33 119 -82 c 0
 113 -100 109 -103 101 -103 c 0
 91 -103 84 -97 84 -88 c 0
 84 -86 84 -84 85 -82 c 2
 165 227 l 1xef
 187 218 214 214 253 214 c 0xf7
 299 214 334 219 353 228 c 1
 357 227 l 1xef
 345 170 302 138 240 138 c 2
 174 138 l 1xf7
258 -36 m 1
 80 -252 l 1
 91 -286 95 -332 155 -332 c 0
 233 -332 279 -254 279 -135 c 0
 279 -89 273 -56 258 -36 c 1
EndSplineSet
Validated: 1
Ligature2: "'liga' Standard Ligatures in Latin lookup 0 per glyph data 3" slash five
EndChar

StartChar: dim7
Encoding: 11 11 3
Width: 430
GlyphClass: 3
Flags: MW
HStem: -444 21G 127 74 218 21G 226 20G
VStem: 72 30<258 258>
LayerCount: 2
Fore
SplineSet
206 -57 m 2xd8
 308 139 l 1
 168 139 l 2
 90 139 80 132 59 77 c 2
 48 48 l 1
 19 48 l 1
 72 258 l 1
 102 258 l 1
 100 253 98 242 98 235 c 0
 98 218 109 213 155 213 c 2
 375 213 l 1
 375 198 l 1
 351 145 332 102 316 64 c 1
 431 194 l 1
 431 148 l 1
 275 -32 l 1
 246 -102 223 -163 185 -262 c 0
 151 -351 132 -372 107 -372 c 0
 89 -372 75 -355 75 -341 c 0
 75 -322 78 -306 136 -192 c 1
 -1 -350 l 1
 -1 -296 l 1
 200 -68 l 2
 202 -64 204 -61 206 -57 c 2xd8
EndSplineSet
Validated: 1
Ligature2: "'liga' Standard Ligatures in Latin lookup 0 per glyph data 3" slash seven
EndChar

StartChar: smallsharp
Encoding: 12 12 4
Width: 312
GlyphClass: 2
Flags: MW
HStem: 26 21G 321 20G<272 294>
VStem: 19 96<176 182 439 445> 78 37<24 169 169 169 285 431 431 431 547 692> 198 37<68 213 213 213 329 475 475 475 591 736>
LayerCount: 2
Fore
SplineSet
235 68 m 2xd8
 235 55 228 49 216 49 c 0
 204 49 198 56 198 68 c 2
 198 213 l 1
 115 182 l 1xe8
 115 24 l 2
 115 11 108 5 96 5 c 0
 84 5 78 11 78 24 c 2
 78 169 l 1xd8
 46 157 l 2
 45 156 43 156 39 156 c 0
 34 156 29 158 25 162 c 0
 21 166 19 171 19 176 c 2
 19 236 l 2xe8
 19 246 23 252 32 255 c 2
 78 271 l 1
 78 431 l 1xd8
 46 420 l 2
 45 419 43 419 39 419 c 0
 34 419 29 421 25 425 c 0
 21 429 19 434 19 439 c 2
 19 499 l 2xe8
 19 508 23 514 32 517 c 2
 78 534 l 1
 78 692 l 2
 78 705 84 711 96 711 c 0
 108 711 115 704 115 692 c 2
 115 547 l 1
 198 578 l 1
 198 736 l 2
 198 749 204 755 216 755 c 0
 228 755 235 749 235 736 c 2
 235 591 l 1
 267 603 l 2
 268 604 270 604 274 604 c 0
 279 604 284 602 289 598 c 0
 293 594 295 589 294 584 c 2
 294 524 l 2
 294 515 290 508 281 505 c 2
 235 489 l 1
 235 329 l 1
 267 340 l 2
 268 341 270 341 274 341 c 0
 279 341 284 339 289 335 c 0
 293 331 295 326 294 321 c 2
 294 261 l 2
 294 252 290 246 281 243 c 2
 235 226 l 1
 235 68 l 2xd8
198 475 m 1
 115 445 l 1xe8
 115 285 l 1xd8
 198 315 l 1
 198 475 l 1
EndSplineSet
Validated: 1
EndChar

StartChar: smallflat
Encoding: 13 13 5
Width: 251
GlyphClass: 2
Flags: MW
HStem: -5 21G<41 47> 259 47<111.5 161.5>
VStem: 24 36 162 71<189.5 201>
LayerCount: 2
Fore
SplineSet
65 196 m 2
 65 119 l 2
 65 92 66 70 69 53 c 1
 90 71 106 85 115 94 c 0
 126 105 136 120 146 138 c 0
 156 156 162 174 162 192 c 0
 162 210 158 226 150 239 c 0
 142 252 132 259 119 259 c 0
 104 259 91 253 80 241 c 0
 70 228 65 213 65 196 c 2
24 17 m 2
 19 614 l 1
 28 619 29 620 38 620 c 2
 38 620 51 620 60 615 c 1
 60 265 l 1
 87 288 114 306 149 306 c 0
 174 306 200 303 217 282 c 0
 234 261 233 225 233 198 c 0
 233 181 229 163 217 144 c 0
 206 127 195 113 184 103 c 0
 177 98 166 85 139 65 c 0
 131 59 122 53 111 45 c 0
 100 37 94 32 91 30 c 0
 86 27 82 22 76 16 c 0
 69 10 65 5 60 0 c 0
 55 -4 50 -5 44 -5 c 0
 38 -5 36 -5 31 -1 c 0
 26 3 24 9 24 17 c 2
EndSplineSet
Validated: 33
EndChar

StartChar: smallnatural
Encoding: 14 14 6
Width: 220
GlyphClass: 2
Flags: MW
HStem: 19 21G 475 97<66 67>
VStem: 19 48 27 39 154 48 155 40
LayerCount: 2
Fore
SplineSet
19 755 m 1xe0
 28 760 37 762 45 762 c 0
 53 762 61 760 70 755 c 1
 67 572 l 1
 173 592 l 1
 177 592 l 2
 189 592 195 586 195 575 c 2xe4
 202 5 l 1
 193 0 184 -2 176 -2 c 0
 168 -2 160 0 151 5 c 1
 154 188 l 1
 48 168 l 1
 45 168 l 2
 33 168 27 174 27 185 c 2xd8
 19 755 l 1xe0
155 285 m 1
 158 492 l 1
 66 475 l 1xd4
 63 268 l 1
 155 285 l 1
EndSplineSet
Validated: 1
EndChar

StartChar: hyphensharp
Encoding: 15 15 7
Width: 978
GlyphClass: 3
Flags: MW
HStem: -414 21G -119 20G<591 613> 418 83
VStem: 338 96<-264 -258 -1 5> 397 37<-416 -271 -271 -271 -155 -9 -9 -9 107 252> 517 37<-372 -227 -227 -227 -111 35 35 35 151 296>
LayerCount: 2
Fore
SplineSet
554 -372 m 2xcc
 554 -385 547 -391 535 -391 c 0
 523 -391 517 -384 517 -372 c 2
 517 -227 l 1
 434 -258 l 1xd4
 434 -416 l 2
 434 -429 427 -435 415 -435 c 0
 403 -435 397 -429 397 -416 c 2
 397 -271 l 1xcc
 365 -283 l 2
 364 -284 362 -284 358 -284 c 0
 353 -284 348 -282 344 -278 c 0
 340 -274 338 -269 338 -264 c 2
 338 -204 l 2xd4
 338 -194 342 -188 351 -185 c 2
 397 -169 l 1
 397 -9 l 1xcc
 365 -20 l 2
 364 -21 362 -21 358 -21 c 0
 353 -21 348 -19 344 -15 c 0
 340 -11 338 -6 338 -1 c 2
 338 59 l 2xd4
 338 68 342 74 351 77 c 2
 397 94 l 1
 397 252 l 2
 397 265 403 271 415 271 c 0
 427 271 434 264 434 252 c 2
 434 107 l 1
 517 138 l 1
 517 296 l 2
 517 309 523 315 535 315 c 0
 547 315 554 309 554 296 c 2
 554 151 l 1
 586 163 l 2
 587 164 589 164 593 164 c 0
 598 164 603 162 608 158 c 0
 612 154 614 149 613 144 c 2
 613 84 l 2
 613 75 609 68 600 65 c 2
 554 49 l 1
 554 -111 l 1
 586 -100 l 2
 587 -99 589 -99 593 -99 c 0
 598 -99 603 -101 608 -105 c 0
 612 -109 614 -114 613 -119 c 2
 613 -179 l 2
 613 -188 609 -194 600 -197 c 2
 554 -214 l 1
 554 -372 l 2xcc
517 35 m 1
 434 5 l 1xd4
 434 -155 l 1xcc
 517 -125 l 1
 517 35 l 1
979 434 m 1x20
 0 434 l 1
 0 501 l 1
 979 501 l 1
 979 434 l 1x20
EndSplineSet
Validated: 1
Ligature2: "'liga' Standard Ligatures in Latin lookup 0 per glyph data 1" endash numbersign
Ligature2: "'liga' Standard Ligatures in Latin lookup 0 per glyph data 1" hyphen numbersign
EndChar

StartChar: hyphenflat
Encoding: 16 16 8
Width: 978
GlyphClass: 3
Flags: MW
HStem: -353 21G<389.482 399> -89 47<483.5 485.361> 418 83
VStem: 376 36 514 71<-158.5 -140.686>
LayerCount: 2
Fore
SplineSet
471 -89 m 0
 438.767578125 -89 417 -119.044921875 417 -152 c 2
 417 -229 l 2
 417 -256 418 -278 421 -295 c 1
 461.140625 -260.59375 474.337890625 -253.591796875 498 -211 c 0
 508 -193 514 -174 514 -156 c 0
 514 -125.372070312 499.72265625 -89 471 -89 c 0
396 -353 m 0
 382.963867188 -353 376 -344.438476562 376 -331 c 2
 371 266 l 1
 380 271 382 272 391 272 c 2
 391 272 403 272 412 267 c 1
 412 -83 l 1
 439 -60 466 -42 501 -42 c 0
 526 -42 552 -45 569 -66 c 0
 586 -87 585 -123 585 -150 c 0
 585 -167 581 -185 569 -204 c 0
 558 -221 547 -235 536 -245 c 0
 529 -250 518 -263 491 -283 c 0
 481.169921875 -290.372070312 452.45703125 -311.6953125 443 -318 c 0
 433.685546875 -323.588867188 419.606445312 -340.393554688 412 -348 c 0
 407 -352 402 -353 396 -353 c 0
979 434 m 1
 0 434 l 1
 0 501 l 1
 979 501 l 1
 979 434 l 1
EndSplineSet
Validated: 524321
Ligature2: "'liga' Standard Ligatures in Latin lookup 0 per glyph data 1" endash f
Ligature2: "'liga' Standard Ligatures in Latin lookup 0 per glyph data 1" hyphen f
EndChar

StartChar: hyphennatural
Encoding: 17 17 9
Width: 978
GlyphClass: 3
Flags: MW
HStem: -418 21G 38 97<425 426> 418 83
VStem: 378 48 386 39 513 48 514 40
LayerCount: 2
Fore
SplineSet
378 318 m 1xd0
 387 323 396 325 404 325 c 0
 412 325 420 323 429 318 c 1
 426 135 l 1
 532 155 l 1
 536 155 l 2
 548 155 554 149 554 138 c 2xd2
 561 -432 l 1
 552 -437 543 -439 535 -439 c 0
 527 -439 519 -437 510 -432 c 1
 513 -249 l 1
 407 -269 l 1
 404 -269 l 2
 392 -269 386 -263 386 -252 c 2xcc
 378 318 l 1xd0
514 -152 m 1
 517 55 l 1
 425 38 l 1xca
 422 -169 l 1
 514 -152 l 1
979 434 m 1x20
 0 434 l 1
 0 501 l 1
 979 501 l 1
 979 434 l 1x20
EndSplineSet
Validated: 1
Ligature2: "'liga' Standard Ligatures in Latin lookup 0 per glyph data 1" endash n
Ligature2: "'liga' Standard Ligatures in Latin lookup 0 per glyph data 1" hyphen n
EndChar

StartChar: hyphenflatthree
Encoding: 18 18 10
Width: 978
GlyphClass: 3
Flags: MW
HStem: -365 21G<161 167> -350 35<586 649 586 673.5> -155 33<498.5 581> -101 47<231.5 281.5> -52 25<625 644.5 618 655.5> 57 28<513 588> 210 32<593 649> 418 83
VStem: 144 36 282 71<-170.5 -159> 437 79<-254.5 -207.5 -254.5 -191> 459 75<125 163 125 168> 708 90<75 140.5> 721 95
LayerCount: 2
Fore
SplineSet
185 -164 m 2x90c0
 185 -241 l 2
 185 -268 186 -290 189 -307 c 1
 210 -289 226 -275 235 -266 c 0
 246 -255 256 -240 266 -222 c 0
 276 -204 282 -186 282 -168 c 0
 282 -150 278 -134 270 -121 c 0
 262 -108 252 -101 239 -101 c 0
 224 -101 211 -107 200 -119 c 0
 190 -132 185 -147 185 -164 c 2x90c0
144 -343 m 2
 139 254 l 1
 148 259 149 260 158 260 c 2
 158 260 171 260 180 255 c 1
 180 -95 l 1
 207 -72 234 -54 269 -54 c 0
 294 -54 320 -57 337 -78 c 0
 354 -99 353 -135 353 -162 c 0
 353 -179 349 -197 337 -216 c 0
 326 -233 315 -247 304 -257 c 0
 297 -262 286 -275 259 -295 c 0
 251 -301 242 -307 231 -315 c 0
 220 -323 214 -328 211 -330 c 0
 206 -333 202 -338 196 -344 c 0
 189 -350 185 -355 180 -360 c 0
 175 -364 170 -365 164 -365 c 0
 158 -365 156 -365 151 -361 c 0
 146 -357 144 -351 144 -343 c 2
721 -182 m 0x6e24
 721 -100 686 -52 625 -52 c 1
 610 -60 589 -65 574 -65 c 0
 554 -65 540 -55 540 -40 c 0
 540 -26 553 -19 573 -19 c 0
 586 -19 603 -22 618 -27 c 1
 671 -27 708 26 708 105 c 0
 708 176 679 210 619 210 c 0
 567 210 534 184 534 142 c 0
 534 108 556 85 588 85 c 1
 583 69 561 57 535 57 c 0
 491 57 459 91 459 136 c 0
 459 200 523 242 619 242 c 0
 727 242 798 189 798 109 c 0x6e18
 798 41 747 -14 685 -30 c 1
 685 -35 l 1
 760 -54 815 -112 815 -188 c 0
 815 -281 731 -350 616 -350 c 0
 512 -350 437 -294 437 -218 c 0
 437 -164 474 -122 523 -122 c 0
 551 -122 576 -136 581 -155 c 1
 543 -155 516 -186 516 -229 c 0
 516 -280 557 -315 615 -315 c 0
 683 -315 721 -267 721 -182 c 0x6e24
979 434 m 1x01
 0 434 l 1
 0 501 l 1
 979 501 l 1
 979 434 l 1x01
EndSplineSet
Validated: 33
Ligature2: "'liga' Standard Ligatures in Latin lookup 0 per glyph data 1" endash f three
Ligature2: "'liga' Standard Ligatures in Latin lookup 0 per glyph data 1" hyphen f three
EndChar

StartChar: hyphenflatsix
Encoding: 19 19 11
Width: 978
GlyphClass: 3
Flags: MW
HStem: -365 21G<171 177> -350 34<603 671.5 603 689> -101 47<241.5 291.5> 2 37 208 34<620.5 693> 418 83
VStem: 154 36 292 71<-170.5 -159> 439 94<-166.5 -131 -131 -94 -192.5 1> 739 94<-204 -102>
LayerCount: 2
Fore
SplineSet
195 -164 m 2xa3
 195 -241 l 2
 195 -268 196 -290 199 -307 c 1
 220 -289 236 -275 245 -266 c 0
 256 -255 266 -240 276 -222 c 0
 286 -204 292 -186 292 -168 c 0
 292 -150 288 -134 280 -121 c 0
 272 -108 262 -101 249 -101 c 0
 234 -101 221 -107 210 -119 c 0
 200 -132 195 -147 195 -164 c 2xa3
154 -343 m 2
 149 254 l 1
 158 259 159 260 168 260 c 2
 168 260 181 260 190 255 c 1
 190 -95 l 1
 217 -72 244 -54 279 -54 c 0
 304 -54 330 -57 347 -78 c 0
 364 -99 363 -135 363 -162 c 0
 363 -179 359 -197 347 -216 c 0
 336 -233 325 -247 314 -257 c 0
 307 -262 296 -275 269 -295 c 0
 261 -301 252 -307 241 -315 c 0
 230 -323 224 -328 221 -330 c 0
 216 -333 212 -338 206 -344 c 0
 199 -350 195 -355 190 -360 c 0
 185 -364 180 -365 174 -365 c 0
 168 -365 166 -365 161 -361 c 0
 156 -357 154 -351 154 -343 c 2
833 -148 m 0x58c0
 833 -260 744 -350 634 -350 c 0
 519 -350 439 -243 439 -90 c 0
 439 92 546 242 677 242 c 0
 749 242 806 209 806 166 c 0
 806 142 791 127 766 127 c 0
 708 127 731 208 655 208 c 0
 586 208 534 107 534 -28 c 1
 536 -29 l 1
 568 17 605 38 655 38 c 0
 756 38 833 -42 833 -148 c 0x58c0
533 -94 m 1
 533 -131 l 2
 533 -254 569 -316 637 -316 c 0
 706 -316 739 -264 739 -152 c 0
 739 -52 707 2 645 2 c 0
 599 2 566 -27 533 -94 c 1
979 434 m 1x04
 0 434 l 1
 0 501 l 1
 979 501 l 1
 979 434 l 1x04
EndSplineSet
Validated: 33
Ligature2: "'liga' Standard Ligatures in Latin lookup 0 per glyph data 1" endash f six
Ligature2: "'liga' Standard Ligatures in Latin lookup 0 per glyph data 1" hyphen f six
EndChar

StartChar: hyphenflatseven
Encoding: 20 20 12
Width: 978
GlyphClass: 3
Flags: MW
HStem: -380 21G<211 217> -116 47<281.5 331.5> 127 74<588 601 601 741> 226 20G<505 535 535 535> 418 83
VStem: 194 36 332 71<-185.5 -174> 505 30<246 246>
LayerCount: 2
Fore
SplineSet
235 -179 m 2
 235 -256 l 2
 235 -283 236 -305 239 -322 c 1
 260 -304 276 -290 285 -281 c 0
 296 -270 306 -256 316 -238 c 0
 326 -220 332 -201 332 -183 c 0
 332 -165 328 -149 320 -136 c 0
 312 -123 302 -116 289 -116 c 0
 274 -116 261 -122 250 -134 c 0
 240 -147 235 -162 235 -179 c 2
194 -358 m 2
 189 239 l 1
 198 244 199 245 208 245 c 2
 208 245 221 245 230 240 c 1
 230 -110 l 1
 257 -87 284 -69 319 -69 c 0
 344 -69 370 -72 387 -93 c 0
 404 -114 403 -150 403 -177 c 0
 403 -194 399 -212 387 -231 c 0
 376 -248 365 -262 354 -272 c 0
 347 -277 336 -290 309 -310 c 0
 301 -316 292 -323 281 -331 c 0
 270 -339 264 -343 261 -345 c 0
 256 -348 252 -353 246 -359 c 0
 239 -365 235 -370 230 -375 c 0
 225 -379 220 -380 214 -380 c 0
 208 -380 206 -380 201 -376 c 0
 196 -372 194 -366 194 -358 c 2
639 -69 m 2
 741 127 l 1
 601 127 l 2
 523 127 513 120 492 65 c 2
 481 36 l 1
 452 36 l 1
 505 246 l 1
 535 246 l 1
 533 241 532 230 532 223 c 0
 532 206 542 201 588 201 c 2
 808 201 l 1
 808 186 l 1
 708 -38 688 -90 618 -275 c 0
 584 -364 565 -384 540 -384 c 0
 522 -384 508 -367 508 -353 c 0
 508 -328 515 -307 639 -69 c 2
979 434 m 1
 0 434 l 1
 0 501 l 1
 979 501 l 1
 979 434 l 1
EndSplineSet
Validated: 33
Ligature2: "'liga' Standard Ligatures in Latin lookup 0 per glyph data 1" endash f seven
Ligature2: "'liga' Standard Ligatures in Latin lookup 0 per glyph data 1" hyphen f seven
EndChar

StartChar: hyphenflatnine
Encoding: 21 21 13
Width: 978
GlyphClass: 3
Flags: MW
HStem: -365 21G<161 167> -350 34<569 641.5 569 650.5> -146 37<586 632> -101 47<231.5 281.5> 208 34<590.5 659> 418 83
VStem: 144 36 282 71<-170.5 -159> 429 94<-6 97> 729 94<-14 22 22 58.5 -109 83.5>
LayerCount: 2
Fore
SplineSet
185 -164 m 2x93
 185 -241 l 2
 185 -268 186 -290 189 -307 c 1
 210 -289 226 -275 235 -266 c 0
 246 -255 256 -240 266 -222 c 0
 276 -204 282 -186 282 -168 c 0
 282 -150 278 -134 270 -121 c 0
 262 -108 252 -101 239 -101 c 0
 224 -101 211 -107 200 -119 c 0
 190 -132 185 -147 185 -164 c 2x93
144 -343 m 2
 139 254 l 1
 148 259 149 260 158 260 c 2
 158 260 171 260 180 255 c 1
 180 -95 l 1
 207 -72 234 -54 269 -54 c 0
 294 -54 320 -57 337 -78 c 0
 354 -99 353 -135 353 -162 c 0
 353 -179 349 -197 337 -216 c 0
 326 -233 315 -247 304 -257 c 0
 297 -262 286 -275 259 -295 c 0
 251 -301 242 -307 231 -315 c 0
 220 -323 214 -328 211 -330 c 0
 206 -333 202 -338 196 -344 c 0
 189 -350 185 -355 180 -360 c 0
 175 -364 170 -365 164 -365 c 0
 158 -365 156 -365 151 -361 c 0
 146 -357 144 -351 144 -343 c 2
429 41 m 0x68c0
 429 153 518 242 628 242 c 0
 743 242 823 135 823 -18 c 0
 823 -200 716 -350 585 -350 c 0
 513 -350 455 -317 455 -274 c 0
 455 -250 471 -235 496 -235 c 0
 554 -235 531 -316 607 -316 c 0
 676 -316 728 -215 728 -80 c 1
 725 -79 l 1
 693 -125 657 -146 607 -146 c 0
 506 -146 429 -65 429 41 c 0x68c0
729 -14 m 1
 729 22 l 2
 729 145 693 208 625 208 c 0
 556 208 523 156 523 44 c 0
 523 -56 555 -109 617 -109 c 0
 663 -109 696 -81 729 -14 c 1
979 434 m 1x04
 0 434 l 1
 0 501 l 1
 979 501 l 1
 979 434 l 1x04
EndSplineSet
Validated: 33
Ligature2: "'liga' Standard Ligatures in Latin lookup 0 per glyph data 1" endash f nine
Ligature2: "'liga' Standard Ligatures in Latin lookup 0 per glyph data 1" hyphen f nine
EndChar

StartChar: hyphennaturalsix
Encoding: 22 22 14
Width: 978
GlyphClass: 3
Flags: MW
HStem: -411 21G -350 34<592 660.5 592 678> 2 37 45 97<216 217> 208 34<609.5 682> 418 83
VStem: 169 48 177 39 304 48 305 40 428 94<-166.5 -131 -131 -94 -192.5 1> 728 94<-204 -102>
LayerCount: 2
Fore
SplineSet
822 -148 m 0x6830
 822 -260 733 -350 623 -350 c 0
 508 -350 428 -243 428 -90 c 0
 428 92 535 242 666 242 c 0
 738 242 795 209 795 166 c 0
 795 142 780 127 755 127 c 0
 697 127 720 208 644 208 c 0
 575 208 523 107 523 -28 c 1
 525 -29 l 1
 557 17 594 38 644 38 c 0
 745 38 822 -42 822 -148 c 0x6830
522 -94 m 1
 522 -131 l 2
 522 -254 558 -316 626 -316 c 0
 695 -316 728 -264 728 -152 c 0
 728 -52 696 2 634 2 c 0
 588 2 555 -27 522 -94 c 1
169 325 m 1x92
 178 330 187 332 195 332 c 0
 203 332 211 330 220 325 c 1
 217 142 l 1
 323 162 l 1
 327 162 l 2
 339 162 345 156 345 145 c 2x9240
 352 -425 l 1
 343 -430 334 -432 326 -432 c 0
 318 -432 310 -430 301 -425 c 1
 304 -242 l 1
 198 -262 l 1
 195 -262 l 2
 183 -262 177 -256 177 -245 c 2x9180
 169 325 l 1x92
305 -145 m 1
 308 62 l 1
 216 45 l 1x9140
 213 -162 l 1
 305 -145 l 1
979 434 m 1x04
 0 434 l 1
 0 501 l 1
 979 501 l 1
 979 434 l 1x04
EndSplineSet
Validated: 1
Ligature2: "'liga' Standard Ligatures in Latin lookup 0 per glyph data 1" endash n six
Ligature2: "'liga' Standard Ligatures in Latin lookup 0 per glyph data 1" hyphen n six
EndChar

StartChar: hyhpennaturalsixtwo
Encoding: 23 23 15
Width: 978
GlyphClass: 3
Flags: MW
HStem: -1023 74 -706 40<504.5 591> -473 35<580.5 641> -411 21G -350 34<582 650.5 582 668> 2 37 45 97<206 207> 208 34<599.5 672> 418 83
VStem: 159 48 167 39 294 48 295 40 418 94<-166.5 -131 -131 -94 -192.5 1> 436 73 712 90<-651.5 -560.5> 718 94<-204 -102> 778 28<-864 -864>
LayerCount: 2
Fore
SplineSet
538 -946 m 1xe003
 538 -950 l 1
 688 -950 l 2
 736 -950 757 -935 778 -864 c 1
 806 -864 l 1xe00240
 778 -1023 l 1
 429 -1023 l 1
 429 -999 l 1
 658 -795 712 -704 712 -599 c 0
 712 -522 672 -473 610 -473 c 0
 551 -473 508 -516 508 -578 c 0
 508 -632 541 -666 591 -666 c 1
 586 -690 563 -706 532 -706 c 0
 477 -706 436 -659 436 -594 c 0
 436 -505 516 -438 622 -438 c 0
 728 -438 802 -505 802 -600 c 0
 802 -724 683 -838 538 -946 c 1xe003
812 -148 m 0x0d0480
 812 -260 723 -350 613 -350 c 0
 498 -350 418 -243 418 -90 c 0
 418 92 525 242 656 242 c 0
 728 242 785 209 785 166 c 0
 785 142 770 127 745 127 c 0
 687 127 710 208 634 208 c 0
 565 208 513 107 513 -28 c 1
 515 -29 l 1
 547 17 584 38 634 38 c 0
 735 38 812 -42 812 -148 c 0x0d0480
512 -94 m 1
 512 -131 l 2
 512 -254 548 -316 616 -316 c 0
 685 -316 718 -264 718 -152 c 0
 718 -52 686 2 624 2 c 0
 578 2 545 -27 512 -94 c 1
159 325 m 1x1240
 168 330 177 332 185 332 c 0
 193 332 201 330 210 325 c 1
 207 142 l 1
 313 162 l 1
 317 162 l 2
 329 162 335 156 335 145 c 2x1248
 342 -425 l 1
 333 -430 324 -432 316 -432 c 0
 308 -432 300 -430 291 -425 c 1
 294 -242 l 1
 188 -262 l 1
 185 -262 l 2
 173 -262 167 -256 167 -245 c 2x1230
 159 325 l 1x1240
295 -145 m 1
 298 62 l 1
 206 45 l 1x1228
 203 -162 l 1
 295 -145 l 1
979 434 m 1x0080
 0 434 l 1
 0 501 l 1
 979 501 l 1
 979 434 l 1x0080
EndSplineSet
Validated: 1
Ligature2: "'liga' Standard Ligatures in Latin lookup 0 per glyph data 1" endash n six two
Ligature2: "'liga' Standard Ligatures in Latin lookup 0 per glyph data 1" hyphen n six two
EndChar

StartChar: VII
Encoding: 24 24 16
Width: 1545
GlyphClass: 3
Flags: MW
HStem: 0 38<857 1181 857 857> 731 39<19 345 308 345> 732 38<581 610.5>
VStem: 967 105<182 189 189 581> 1313 105<182 189 189 581>
LayerCount: 2
Fore
SplineSet
1418 581 m 2xa8
 1418 189 l 2
 1418 57 1433 41 1527 38 c 1
 1527 0 l 1
 1203 0 l 1
 1203 38 l 1
 1297 41 1313 58 1313 182 c 2
 1313 588 l 2
 1313 701 1299 728 1213 732 c 1
 1213 770 l 1
 1517 770 l 1
 1517 732 l 1
 1431 729 1418 702 1418 581 c 2xa8
1072 581 m 2xb0
 1072 189 l 2
 1072 57 1087 41 1181 38 c 1
 1181 0 l 1
 857 0 l 1
 857 38 l 1
 951 41 967 58 967 182 c 2
 967 588 l 2
 967 701 953 728 867 732 c 1
 867 770 l 1
 1171 770 l 1
 1171 732 l 1
 1085 729 1072 702 1072 581 c 2xb0
278 603 m 2x40
 456 153 l 1
 632 587 l 2
 652 636 659 661 659 683 c 0
 659 719 640 732 581 732 c 1
 581 770 l 1
 824 770 l 1
 824 732 l 1
 763 725 738 707 715 651 c 2
 444 -10 l 1
 409 -10 l 1
 151 613 l 2
 117 694 89 727 19 731 c 1
 19 770 l 1
 345 770 l 1
 345 731 l 1
 271 731 254 717 254 689 c 0
 254 670 260 649 278 603 c 2x40
EndSplineSet
Validated: 1
Ligature2: "'liga' Standard Ligatures in Latin lookup 0 per glyph data 0" V I I
EndChar

StartChar: numbersign
Encoding: 35 35 18
Width: 398
GlyphClass: 2
Flags: MW
HStem: -27 21G 335 20G<322.5 328>
VStem: 19 115<157 164 473 480> 90 44<-25 149 149 149 288 463 463 463 602 776> 234 44<28 202 202 202 341 516 516 516 655 829>
LayerCount: 2
Fore
SplineSet
278 28 m 2xd8
 278 13 271 5 256 5 c 0
 241 5 234 14 234 28 c 2
 234 202 l 1
 134 164 l 1xe8
 134 -25 l 2
 134 -40 127 -48 112 -48 c 0
 97 -48 90 -40 90 -25 c 2
 90 149 l 1xd8
 51 134 l 2
 50 133 48 133 43 133 c 0
 37 133 31 135 26 140 c 0
 21 145 19 151 19 157 c 2
 19 229 l 2xe8
 19 241 25 249 35 252 c 2
 90 271 l 1
 90 463 l 1xd8
 51 450 l 2
 50 449 48 449 43 449 c 0
 37 449 31 451 26 456 c 0
 21 461 19 467 19 473 c 2
 19 545 l 2xe8
 19 556 25 563 35 566 c 2
 90 587 l 1
 90 776 l 2
 90 791 97 799 112 799 c 0
 127 799 134 790 134 776 c 2
 134 602 l 1
 234 640 l 1
 234 829 l 2
 234 844 241 852 256 852 c 0
 271 852 278 844 278 829 c 2
 278 655 l 1
 316 670 l 2
 317 671 320 671 325 671 c 0
 331 671 337 669 343 664 c 0
 348 659 350 653 349 647 c 2
 349 575 l 2
 349 564 344 556 334 552 c 2
 278 533 l 1
 278 341 l 1
 316 354 l 2
 317 355 320 355 325 355 c 0
 331 355 337 353 343 348 c 0
 348 343 350 337 349 331 c 2
 349 259 l 2
 349 249 344 242 334 238 c 2
 278 217 l 1
 278 28 l 2xd8
234 516 m 1
 134 480 l 1xe8
 134 288 l 1xd8
 234 324 l 1
 234 516 l 1
EndSplineSet
Validated: 1
EndChar

StartChar: plus
Encoding: 43 43 19
Width: 505
GlyphClass: 2
Flags: MW
HStem: -268 21G<172 212 172 172> -111 38<16 172 16 172 212 368> 64 20G<172 212 212 212>
VStem: 172 39
LayerCount: 2
Fore
SplineSet
212 -268 m 1
 172 -268 l 1
 172 -111 l 1
 16 -111 l 1
 16 -73 l 1
 172 -73 l 1
 172 84 l 1
 212 84 l 1
 212 -73 l 1
 368 -73 l 1
 368 -111 l 1
 212 -111 l 1
 212 -268 l 1
EndSplineSet
Validated: 1
EndChar

StartChar: hyphen
Encoding: 45 45 20
Width: 978
GlyphClass: 2
Flags: MW
HStem: 418 83
LayerCount: 2
Fore
SplineSet
979 434 m 1
 0 434 l 1
 0 501 l 1
 979 501 l 1
 979 434 l 1
EndSplineSet
Validated: 1
EndChar

StartChar: slash
Encoding: 47 47 21
Width: 398
GlyphClass: 2
Flags: MW
HStem: -372 21G 302 20G
LayerCount: 2
Fore
SplineSet
410 218 m 1
 -49 -288 l 1
 -49 -233 l 1
 410 265 l 1
 410 218 l 1
EndSplineSet
Validated: 1
EndChar

StartChar: two
Encoding: 50 50 22
Width: 430
GlyphClass: 2
Flags: MW
HStem: -350 74 -33 40<94.5 181> 200 35<170.5 231>
VStem: 26 73 302 90<21.5 112.5> 368 28<-191 -191>
LayerCount: 2
Fore
SplineSet
128 -273 m 1xf8
 128 -277 l 1
 278 -277 l 2
 326 -277 347 -262 368 -191 c 1
 396 -191 l 1xf4
 368 -350 l 1
 19 -350 l 1
 19 -326 l 1
 248 -122 302 -31 302 74 c 0
 302 151 262 200 200 200 c 0
 141 200 98 157 98 95 c 0
 98 41 131 7 181 7 c 1
 176 -17 153 -33 122 -33 c 0
 67 -33 26 14 26 79 c 0
 26 168 106 235 212 235 c 0
 318 235 392 168 392 73 c 0
 392 -51 273 -165 128 -273 c 1xf8
EndSplineSet
Validated: 1
EndChar

StartChar: three
Encoding: 51 51 23
Width: 430
GlyphClass: 2
Flags: MW
HStem: -350 35<168 231 168 255.5> -155 33<80.5 163> -52 25<206 227.5 201 236.5> 57 28<95 170> 210 32<175 231>
VStem: 19 79<-254.5 -207.5 -254.5 -191> 41 75<125 163 125 168> 290 90<75 140.5> 302 95<-224.5 -150 -234.5 -141>
LayerCount: 2
Fore
SplineSet
302 -182 m 0xfc80
 302 -100 267 -52 206 -52 c 1
 191 -60 171 -65 156 -65 c 0
 136 -65 122 -55 122 -40 c 0
 122 -26 135 -19 155 -19 c 0
 168 -19 186 -22 201 -27 c 1
 254 -27 290 26 290 105 c 0
 290 176 261 210 201 210 c 0
 149 210 116 184 116 142 c 0
 116 108 138 85 170 85 c 1
 165 69 143 57 117 57 c 0
 73 57 41 91 41 136 c 0
 41 200 105 242 201 242 c 0
 309 242 380 189 380 109 c 0xfb
 380 41 329 -14 267 -30 c 1
 267 -35 l 1
 342 -54 397 -112 397 -188 c 0
 397 -281 313 -350 198 -350 c 0
 94 -350 19 -294 19 -218 c 0
 19 -164 56 -122 105 -122 c 0
 133 -122 158 -136 163 -155 c 1
 125 -155 98 -186 98 -229 c 0
 98 -280 139 -315 197 -315 c 0
 265 -315 302 -267 302 -182 c 0xfc80
EndSplineSet
Validated: 1
EndChar

StartChar: four
Encoding: 52 52 24
Width: 430
GlyphClass: 2
Flags: MW
HStem: -351 28 -216 38
VStem: 233 74 376 26<-279 -251.5 -141 -112>
LayerCount: 2
Fore
SplineSet
19 -216 m 1
 19 -179 l 1
 283 235 l 1
 306 235 l 1
 306 -180 l 1
 368 -178 376 -170 376 -112 c 1
 402 -112 l 1
 402 -279 l 1
 376 -279 l 1
 376 -224 368 -215 306 -213 c 1
 306 -229 l 2
 306 -306 316 -322 365 -322 c 1
 365 -351 l 1
 155 -351 l 1
 155 -322 l 1
 221 -322 233 -305 233 -234 c 2
 233 -216 l 1
 19 -216 l 1
233 -179 m 1
 233 88 l 1
 229 88 l 1
 56 -179 l 1
 233 -179 l 1
EndSplineSet
Validated: 1
EndChar

StartChar: five
Encoding: 53 53 25
Width: 430
GlyphClass: 2
Flags: MW
HStem: -350 33<122.5 206 120 227> 4 32<214.5 242.5> 153 76<186 288 245.5 252>
VStem: 96 35 291 93<-179.5 -88 -196.5 -77.5>
LayerCount: 2
Fore
SplineSet
186 153 m 1
 151 19 l 1
 152 17 l 1
 167 28 200 36 229 36 c 0
 317 36 384 -39 384 -137 c 0
 384 -256 289 -350 165 -350 c 0
 80 -350 19 -307 19 -247 c 0
 19 -220 32 -204 55 -204 c 0
 117 -204 73 -317 167 -317 c 0
 245 -317 291 -239 291 -120 c 0
 291 -35 270 4 215 4 c 0
 174 4 147 -18 131 -67 c 0
 125 -85 121 -88 113 -88 c 0
 103 -88 96 -82 96 -73 c 0
 96 -71 96 -69 97 -67 c 2
 177 242 l 1
 199 233 226 229 265 229 c 0
 311 229 346 234 365 243 c 1
 369 242 l 1
 357 185 314 153 252 153 c 2
 186 153 l 1
EndSplineSet
Validated: 1
EndChar

StartChar: six
Encoding: 54 54 26
Width: 430
GlyphClass: 2
Flags: MW
HStem: -350 34<183 251.5 183 269> 2 37 208 34<200.5 273>
VStem: 19 94<-166.5 -131 -131 -94 -192.5 1> 319 94<-204 -102>
LayerCount: 2
Fore
SplineSet
413 -148 m 0
 413 -260 324 -350 214 -350 c 0
 99 -350 19 -243 19 -90 c 0
 19 92 126 242 257 242 c 0
 329 242 386 209 386 166 c 0
 386 142 371 127 346 127 c 0
 288 127 311 208 235 208 c 0
 166 208 114 107 114 -28 c 1
 116 -29 l 1
 148 17 185 38 235 38 c 0
 336 38 413 -42 413 -148 c 0
113 -94 m 1
 113 -131 l 2
 113 -254 149 -316 217 -316 c 0
 286 -316 319 -264 319 -152 c 0
 319 -52 287 2 225 2 c 0
 179 2 146 -27 113 -94 c 1
EndSplineSet
Validated: 1
EndChar

StartChar: seven
Encoding: 55 55 27
Width: 430
GlyphClass: 2
Flags: MW
HStem: 127 74<155 168 168 308> 226 20G<72 102 102 102>
VStem: 72 30<246 246>
LayerCount: 2
Fore
SplineSet
206 -69 m 2
 308 127 l 1
 168 127 l 2
 90 127 80 120 59 65 c 2
 48 36 l 1
 19 36 l 1
 72 246 l 1
 102 246 l 1
 100 241 98 230 98 223 c 0
 98 206 109 201 155 201 c 2
 375 201 l 1
 375 186 l 1
 275 -38 255 -90 185 -275 c 0
 151 -364 132 -384 107 -384 c 0
 89 -384 75 -367 75 -353 c 0
 75 -328 82 -307 206 -69 c 2
EndSplineSet
Validated: 1
EndChar

StartChar: eight
Encoding: 56 56 28
Width: 430
GlyphClass: 2
Flags: MW
HStem: -350 35 208 34<177.5 219 177.5 225.5>
VStem: 19 71<-239 -177> 39 65<102 112.5> 299 62 315 68
LayerCount: 2
Fore
SplineSet
222 -95 m 2xe4
 176 -69 l 1
 120 -101 90 -148 90 -205 c 0
 90 -273 134 -316 203 -316 c 0
 271 -316 315 -273 315 -208 c 0
 315 -163 292 -136 222 -95 c 2xe4
264 -18 m 1
 343 -60 384 -116 384 -184 c 0
 384 -279 304 -350 200 -350 c 0
 98 -350 19 -288 19 -208 c 0xe4
 19 -146 61 -94 145 -53 c 1
 74 -15 39 32 39 92 c 0
 39 133 56 171 87 200 c 0
 117 228 155 242 200 242 c 0
 238 242 275 231 305 211 c 0
 342 186 362 149 362 109 c 0xd8
 362 59 332 15 264 -18 c 1
197 16 m 2
 232 -2 l 1
 275 26 299 65 299 106 c 0
 299 164 255 208 196 208 c 0
 141 208 104 174 104 122 c 0xd8
 104 82 131 51 197 16 c 2
EndSplineSet
Validated: 1
EndChar

StartChar: nine
Encoding: 57 57 29
Width: 430
GlyphClass: 2
Flags: MW
HStem: -350 34<159 231.5 159 240.5> -146 37<176 222> 208 34<180.5 249>
VStem: 19 94<-6 97> 319 94<-14 22 22 58.5 -109 83.5>
LayerCount: 2
Fore
SplineSet
19 41 m 0
 19 153 108 242 218 242 c 0
 333 242 413 135 413 -18 c 0
 413 -200 306 -350 175 -350 c 0
 103 -350 45 -317 45 -274 c 0
 45 -250 61 -235 86 -235 c 0
 144 -235 121 -316 197 -316 c 0
 266 -316 318 -215 318 -80 c 1
 315 -79 l 1
 283 -125 247 -146 197 -146 c 0
 96 -146 19 -65 19 41 c 0
319 -14 m 1
 319 22 l 2
 319 145 283 208 215 208 c 0
 146 208 113 156 113 44 c 0
 113 -56 145 -109 207 -109 c 0
 253 -109 286 -81 319 -14 c 1
EndSplineSet
Validated: 1
EndChar

StartChar: A
Encoding: 65 65 30
Width: 1852
GlyphClass: 2
Flags: MW
HStem: -606 45<590.5 621> -603 98 -598 45 -596 26<927 1126 927 927> -300 21G<63 84.5> -246 26<925 948> -233 41<1184 1217.5 1464.5 1497.5> -227 26<402 538> -215 28<154.5 198.5> -10 45<234.5 326 234.5 349.5> 315 28 315 37<1081 1132> 459 49<270.5 331> 525 28 525 37<891.5 929 891.5 929> 531 42<1008 1008> 735 45<258 355> 856 37<1017 1021 1021 1116> 864 28 1066 37<827 831 831 926> 1074 28
VStem: 16 125<235 283 283 332 201 458.5> 20 76<-513.5 -486> 38 76 249 74<-429 -370 -370 -370 -338 -307 -307 -304> 416 125<184 321.5> 465 74 734 74 739 79<639 648 648 989 989 1024> 929 79<429 438 438 525 525 525 573 779 779 814> 991 74<-482 -476 -476 -386 -386 -381> 1142 98 1272 74 1332 98 1553 74 1727 98
LayerCount: 2
Fore
SplineSet
1065 -381 m 2x1a488083b0
 1065 -476 l 2
 1065 -559 1069 -566 1126 -570 c 1
 1126 -596 l 1
 927 -596 l 1
 927 -570 l 1
 985 -566 991 -558 991 -482 c 2
 991 -386 l 2
 991 -329 990 -290 986 -276 c 0
 981 -251 971 -246 925 -246 c 1
 925 -220 l 1x1c488083b0
 1048 -192 l 1
 1057 -266 l 1
 1061 -266 l 1
 1106 -215 1154 -192 1214 -192 c 0
 1277 -192 1322 -219 1338 -266 c 1
 1342 -266 l 1
 1379 -220 1435 -192 1494 -192 c 0
 1540 -192 1582 -208 1602 -235 c 0
 1620 -258 1626 -292 1626 -357 c 2
 1626 -476 l 2
 1626 -558 1632 -566 1689 -570 c 1
 1689 -596 l 1
 1489 -596 l 1
 1489 -570 l 1
 1546 -567 1553 -557 1553 -482 c 2
 1553 -388 l 2
 1553 -273 1530 -233 1465 -233 c 0
 1421 -233 1380 -259 1358 -300 c 0
 1347 -320 1345 -334 1345 -381 c 2
 1345 -476 l 2
 1345 -558 1350 -566 1408 -570 c 1
 1408 -596 l 1
 1209 -596 l 1
 1209 -570 l 1
 1266 -566 1272 -558 1272 -482 c 2
 1272 -388 l 2
 1272 -272 1250 -233 1185 -233 c 0
 1141 -233 1098 -259 1078 -300 c 0
 1067 -320 1065 -334 1065 -381 c 2x1a488083b0
734 -394 m 2x894880b130
 734 -321 l 2
 734 -239 730 -233 672 -227 c 1
 672 -201 l 1
 807 -201 l 1
 807 -431 l 2
 807 -488 809 -523 812 -541 c 0
 817 -566 827 -571 873 -571 c 1
 873 -597 l 1
 749 -606 l 1
 741 -516 l 1
 738 -516 l 1
 700 -578 648 -606 594 -606 c 0
 552 -606 509 -588 489 -561 c 0
 473 -539 465 -502 465 -440 c 2
 465 -321 l 2
 465 -239 460 -232 402 -227 c 1
 402 -201 l 1
 538 -201 l 1
 538 -405 l 2
 538 -513 563 -561 618 -561 c 0
 661 -561 696 -532 721 -474 c 0
 731 -451 734 -437 734 -394 c 2x894880b130
1727 -554 m 0
 1727 -526 1749 -504 1776 -504 c 0
 1804 -504 1826 -526 1826 -554 c 0
 1826 -581 1804 -603 1776 -603 c 0x4848808130
 1749 -603 1727 -581 1727 -554 c 0
249 -429 m 2
 249 -370 l 1
 134 -414 96 -453 96 -497 c 0
 96 -530 120 -554 156 -554 c 0x2848828130
 208 -554 249 -497 249 -429 c 2
142 -385 m 2
 249 -338 l 1
 249 -307 l 2
 249 -245 225 -215 172 -215 c 0
 137 -215 128 -225 115 -264 c 0
 104 -292 94 -300 75 -300 c 0
 51 -300 38 -286 38 -262 c 0
 38 -214 91 -187 185 -187 c 0x28c8818130
 286 -187 323 -219 323 -304 c 2
 323 -472 l 2
 323 -530 335 -557 357 -557 c 0
 371 -557 385 -556 394 -541 c 1
 404 -559 l 1
 392 -582 356 -599 321 -599 c 0
 277 -599 255 -570 255 -519 c 1
 252 -519 l 1
 226 -568 176 -598 121 -598 c 0
 59 -598 20 -563 20 -510 c 0
 20 -462 51 -424 142 -385 c 2
541 259 m 0x084884c130
 541 109 423 -10 276 -10 c 0
 123 -10 16 133 16 337 c 0
 16 580 159 780 333 780 c 0
 429 780 506 735 506 678 c 0
 506 646 485 626 452 626 c 0
 374 626 406 735 304 735 c 0
 212 735 143 600 143 420 c 1
 146 418 l 1
 189 480 237 508 304 508 c 0
 439 508 541 401 541 259 c 0x084884c130
141 332 m 1
 141 283 l 2
 141 119 189 35 280 35 c 0
 372 35 416 105 416 255 c 0
 416 388 372 459 290 459 c 0
 229 459 185 421 141 332 c 1
1132 315 m 2
 839 315 l 1
 839 344 l 1
 915 346 929 358 929 429 c 2
 929 525 l 1x0022000d40
 649 525 l 1
 649 554 l 1
 725 556 739 568 739 639 c 2
 739 989 l 2
 739 1059 729 1071 664 1074 c 1
 664 1103 l 1x0004080d40
 927 1103 l 2
 1082 1103 1202 1010 1232 874 c 1
 1351 833 1429 727 1429 594 c 0
 1429 430 1307 315 1132 315 c 2
1116 856 m 2x0001400d40
 1021 856 l 2
 1013 856 1008 851 1008 843 c 2
 1008 573 l 1
 1094 601 1142 679 1142 803 c 0
 1142 821 1141 839 1139 855 c 1
 1131 856 1124 856 1116 856 c 2x0001400d40
926 1066 m 2x0000500d40
 831 1066 l 2
 823 1066 818 1061 818 1053 c 2
 818 648 l 2
 818 590 854 562 929 562 c 1
 929 779 l 2
 929 849 919 861 854 864 c 1
 854 893 l 1x0002300d40
 1117 893 l 2
 1122 893 1127 892 1132 892 c 1
 1107 1003 1033 1066 926 1066 c 2x0000500d40
1008 531 m 1x0011000d40
 1008 438 l 2
 1008 380 1043 352 1119 352 c 0
 1255 352 1332 435 1332 593 c 0
 1332 699 1298 777 1239 819 c 1
 1239 804 l 2
 1239 661 1147 556 1008 531 c 1x0011000d40
EndSplineSet
Validated: 1
EndChar

StartChar: D
Encoding: 68 68 31
Width: 627
GlyphClass: 2
Flags: MW
HStem: 525 28 525 37<261 312> 1066 37<197 201 201 296> 1074 28
VStem: 109 79<639 648 648 989 989 1024> 512 98
LayerCount: 2
Fore
SplineSet
312 525 m 2x6c
 19 525 l 1
 19 554 l 1
 95 556 109 568 109 639 c 2
 109 989 l 2
 109 1059 99 1071 34 1074 c 1
 34 1103 l 1x9c
 297 1103 l 2
 478 1103 609 976 609 804 c 0
 609 640 487 525 312 525 c 2x6c
296 1066 m 2x6c
 201 1066 l 2
 193 1066 188 1061 188 1053 c 2
 188 648 l 2
 188 590 223 562 299 562 c 0
 435 562 512 645 512 803 c 0
 512 969 430 1066 296 1066 c 2x6c
EndSplineSet
Validated: 1
EndChar

StartChar: E
Encoding: 69 69 32
Width: 2211
GlyphClass: 2
Flags: MW
HStem: 0 38<19 343 19 19> 518 38<1386.5 1454 1372 1475.5> 525 28 525 37<1844 1895> 731 39<29 364 653 690> 732 38<29 333 29 333 926 955.5> 1066 37<1779 1783 1783 1878> 1072 38<1382.5 1433 1362 1445> 1074 28
VStem: 129 105<182 189 189 581> 1219 28<702 702> 1243 71 1537 82<637.5 679.5> 1548 28 1692 79 2094 98<724 886>
LayerCount: 2
Fore
SplineSet
1895 525 m 2x1203
 1602 525 l 1
 1602 554 l 1
 1678 556 1692 568 1692 639 c 2
 1692 989 l 2
 1692 1059 1681 1071 1616 1074 c 1
 1616 1103 l 1x2083
 1880 1103 l 2
 2061 1103 2192 976 2192 804 c 0
 2192 640 2070 525 1895 525 c 2x1203
1878 1066 m 2x1203
 1783 1066 l 2
 1775 1066 1770 1061 1770 1053 c 2
 1770 648 l 2
 1770 590 1806 562 1882 562 c 0
 2018 562 2094 645 2094 803 c 0
 2094 969 2012 1066 1878 1066 c 2x1203
1230 534 m 1
 1219 702 l 1
 1247 702 l 1x412b
 1261 611 1327 556 1417 556 c 0
 1491 556 1537 595 1537 654 c 0
 1537 705 1507 734 1406 778 c 0
 1281 833 1243 874 1243 951 c 0
 1243 1044 1313 1110 1411 1110 c 0x411b
 1455 1110 1491 1097 1530 1066 c 1
 1550 1100 l 1
 1567 1100 l 1
 1575 951 l 1
 1548 951 l 1x0217
 1524 1033 1477 1072 1413 1072 c 0
 1352 1072 1313 1039 1313 989 c 0
 1313 942 1343 913 1428 875 c 0
 1576 808 1619 767 1619 688 c 0
 1619 587 1536 518 1415 518 c 0x411b
 1358 518 1315 532 1269 570 c 1
 1248 534 l 1
 1230 534 l 1
623 603 m 2x08
 801 153 l 1
 977 587 l 2
 997 636 1004 661 1004 683 c 0
 1004 719 985 732 926 732 c 1
 926 770 l 1
 1169 770 l 1
 1169 732 l 1
 1108 725 1083 707 1060 651 c 2
 789 -10 l 1
 754 -10 l 1
 496 613 l 2
 462 694 434 727 364 731 c 1
 364 770 l 1
 690 770 l 1
 690 731 l 1
 616 731 599 717 599 689 c 0
 599 670 605 649 623 603 c 2x08
234 581 m 2x8440
 234 189 l 2
 234 57 249 41 343 38 c 1
 343 0 l 1
 19 0 l 1
 19 38 l 1
 113 41 129 58 129 182 c 2
 129 588 l 2
 129 701 115 728 29 732 c 1
 29 770 l 1
 333 770 l 1
 333 732 l 1
 247 729 234 702 234 581 c 2x8440
EndSplineSet
Validated: 1
EndChar

StartChar: G
Encoding: 71 71 33
Width: 2040
GlyphClass: 2
Flags: MW
HStem: -350 33<1569 1596> -88 21G 0 38<857 1181 857 857> 4 32 153 76 222 20G 282 20G 526 36<1728 1781.5 1728 1791.5> 534 25 731 39<19 345 308 345> 732 38<581 610.5> 902 36<1728.5 1781.5> 1105 22
VStem: 967 105<182 189 189 581> 1313 105<182 189 189 581> 1569 85<684 787.5> 1653 35 1848 93<-194.5 -117.5 -211.5 -112> 1882 72
LayerCount: 2
Fore
SplineSet
1743 138 m 1xda00c0
 1708 4 l 1
 1710 2 l 1
 1725 13 1757 21 1786 21 c 0
 1802 21 1817 19 1832 14 c 1
 1943 146 l 1
 1943 104 l 1
 1859 2 l 1
 1909 -26 1941 -83 1941 -152 c 0
 1941 -271 1845 -365 1721 -365 c 0
 1666 -365 1621 -347 1596 -317 c 1
 1569 -350 l 1
 1569 -301 l 1
 1580 -288 l 1
 1577 -280 1576 -271 1576 -262 c 0
 1576 -235 1589 -219 1612 -219 c 0
 1621 -219 1628 -221 1633 -225 c 1
 1806 -18 l 1
 1797 -13 1785 -11 1772 -11 c 0
 1731 -11 1704 -33 1688 -82 c 0
 1682 -100 1678 -103 1670 -103 c 0
 1660 -103 1653 -97 1653 -88 c 0
 1653 -86 1653 -84 1654 -82 c 2
 1734 227 l 1xd600c0
 1756 218 1783 214 1822 214 c 0xda00c0
 1868 214 1903 219 1922 228 c 1
 1926 227 l 1xd600c0
 1914 170 1871 138 1809 138 c 2
 1743 138 l 1xda00c0
1827 -36 m 1
 1649 -252 l 1
 1660 -286 1664 -332 1724 -332 c 0
 1802 -332 1848 -254 1848 -135 c 0
 1848 -89 1842 -56 1827 -36 c 1
1896 526 m 1x011920
 1896 596 l 1
 1893 596 l 1
 1857 546 1819 526 1764 526 c 0x011920
 1651 526 1569 612 1569 733 c 0
 1569 851 1652 938 1764 938 c 0
 1811 938 1847 923 1882 888 c 1
 1882 965 l 2
 1882 1021 1881 1061 1878 1075 c 0
 1873 1097 1853 1105 1801 1105 c 1
 1801 1128 l 1
 1955 1156 l 1
 1955 723 l 2
 1955 654 1955 610 1960 591 c 0
 1966 567 1975 560 2021 560 c 1
 2021 534 l 1x009920
 1896 526 l 1x011920
1881 713 m 2
 1881 762 l 2
 1881 814 1877 837 1861 857 c 0
 1839 887 1799 902 1764 902 c 0
 1693 902 1654 838 1654 737 c 0
 1654 631 1692 562 1764 562 c 0
 1799 562 1843 579 1862 609 c 0
 1876 631 1881 659 1881 713 c 2
1418 581 m 2x2022
 1418 189 l 2
 1418 57 1433 41 1527 38 c 1
 1527 0 l 1
 1203 0 l 1
 1203 38 l 1
 1297 41 1313 58 1313 182 c 2
 1313 588 l 2
 1313 701 1299 728 1213 732 c 1
 1213 770 l 1
 1517 770 l 1
 1517 732 l 1
 1431 729 1418 702 1418 581 c 2x2022
1072 581 m 2x2024
 1072 189 l 2
 1072 57 1087 41 1181 38 c 1
 1181 0 l 1
 857 0 l 1
 857 38 l 1
 951 41 967 58 967 182 c 2
 967 588 l 2
 967 701 953 728 867 732 c 1
 867 770 l 1
 1171 770 l 1
 1171 732 l 1
 1085 729 1072 702 1072 581 c 2x2024
278 603 m 2x0040
 456 153 l 1
 632 587 l 2
 652 636 659 661 659 683 c 0
 659 719 640 732 581 732 c 1
 581 770 l 1
 824 770 l 1
 824 732 l 1
 763 725 738 707 715 651 c 2
 444 -10 l 1
 409 -10 l 1
 151 613 l 2
 117 694 89 727 19 731 c 1
 19 770 l 1
 345 770 l 1
 345 731 l 1
 271 731 254 717 254 689 c 0
 254 670 260 649 278 603 c 2x0040
EndSplineSet
Validated: 1
EndChar

StartChar: I
Encoding: 73 73 34
Width: 414
GlyphClass: 2
Flags: MW
HStem: 0 38<45 369 45 45> 732 38<55 359 55 359>
VStem: 155 105<182 189 189 581>
LayerCount: 2
Fore
SplineSet
260 581 m 2
 260 189 l 2
 260 57 275 41 369 38 c 1
 369 0 l 1
 45 0 l 1
 45 38 l 1
 139 41 155 58 155 182 c 2
 155 588 l 2
 155 701 141 728 55 732 c 1
 55 770 l 1
 359 770 l 1
 359 732 l 1
 273 729 260 702 260 581 c 2
EndSplineSet
Validated: 1
EndChar

StartChar: N
Encoding: 78 78 35
Width: 1504
GlyphClass: 2
Flags: MW
HStem: -780 26<926 1157 926 926> -603 98 -599 42<810 875> -589 25<17 214 17 17> -300 21G<574 595.5> -245 25 -237 24<16 38> -224 36<1163.5 1215> -215 28<664.5 708.5> -10 45<234.5 326 234.5 349.5> 459 49<270.5 331> 520 31<741.5 774 728 798> 528 25 735 45<258 355> 902 31 1099 22
VStem: 16 125<235 283 283 332 201 458.5> 80 71 356 71 416 125<184 321.5> 531 76<-513.5 -486> 549 76 629 19<528 656 656 656> 631 62<834.5 851> 761 74 819 67<598.5 624.5> 833 19<817 925> 909 85<678 781.5 678 786> 998 74<-665 -660 -660 -551 -446 -419 -419 -385 -385 -360> 1222 74 1299 85<-450 -346> 1389 98
LayerCount: 2
Fore
SplineSet
1389 -554 m 0xc867001f
 1389 -526 1411 -504 1438 -504 c 0
 1466 -504 1488 -526 1488 -554 c 0
 1488 -581 1466 -603 1438 -603 c 0
 1411 -603 1389 -581 1389 -554 c 0xc867001f
1068 -191 m 1
 1068 -249 l 1
 1072 -249 l 1
 1104 -211 1139 -188 1188 -188 c 0x8967001f
 1301 -188 1384 -275 1384 -395 c 0
 1384 -517 1299 -600 1187 -600 c 0
 1141 -600 1105 -586 1072 -551 c 1
 1072 -660 l 2
 1072 -739 1083 -752 1157 -754 c 1
 1157 -780 l 1
 926 -780 l 1
 926 -754 l 1
 986 -752 998 -737 998 -665 c 2
 998 -385 l 2
 998 -327 997 -289 993 -275 c 0
 988 -251 974 -245 925 -245 c 1
 925 -219 l 1x8c67001f
 1068 -191 l 1
1091 -271 m 0
 1078 -291 1072 -316 1072 -360 c 2
 1072 -419 l 2
 1072 -473 1076 -493 1092 -513 c 0
 1115 -545 1148 -564 1183 -564 c 0
 1251 -564 1299 -502 1299 -398 c 0
 1299 -294 1251 -224 1179 -224 c 0
 1143 -224 1110 -241 1091 -271 c 0
761 -429 m 2x8867089f
 761 -370 l 1
 646 -414 607 -453 607 -497 c 0
 607 -530 631 -554 667 -554 c 0
 719 -554 761 -497 761 -429 c 2x8867089f
652 -385 m 2
 761 -338 l 1
 761 -307 l 2
 761 -245 735 -215 682 -215 c 0
 647 -215 638 -225 625 -264 c 0
 614 -292 605 -300 586 -300 c 0
 562 -300 549 -286 549 -262 c 0
 549 -214 602 -187 696 -187 c 0
 797 -187 834 -219 834 -304 c 2
 834 -472 l 2
 834 -530 846 -557 868 -557 c 0
 882 -557 896 -556 905 -541 c 1
 915 -559 l 1
 903 -582 867 -599 832 -599 c 0xa8e7049f
 788 -599 766 -570 766 -519 c 1
 763 -519 l 1
 737 -568 687 -598 632 -598 c 0
 570 -598 531 -563 531 -510 c 0
 531 -462 561 -424 652 -385 c 2
541 259 m 0x8867901f
 541 109 423 -10 276 -10 c 0
 123 -10 16 133 16 337 c 0
 16 580 159 780 333 780 c 0
 429 780 506 735 506 678 c 0
 506 646 485 626 452 626 c 0
 374 626 406 735 304 735 c 0
 212 735 143 600 143 420 c 1
 146 418 l 1
 189 480 237 508 304 508 c 0
 439 508 541 401 541 259 c 0x8867901f
141 332 m 1
 141 283 l 2
 141 119 189 35 280 35 c 0
 372 35 416 105 416 255 c 0
 416 388 372 459 290 459 c 0
 229 459 185 421 141 332 c 1
152 -371 m 2
 152 -472 l 2
 152 -553 156 -560 214 -564 c 1
 214 -589 l 1
 17 -589 l 1
 17 -564 l 1
 72 -560 80 -552 80 -477 c 2
 80 -377 l 2
 80 -319 79 -281 76 -268 c 0
 70 -241 60 -237 16 -237 c 1
 16 -213 l 1
 136 -185 l 1
 145 -259 l 1
 148 -259 l 1
 186 -213 239 -185 298 -185 c 0
 344 -185 384 -201 404 -226 c 0
 421 -249 428 -282 428 -346 c 2
 428 -472 l 2
 428 -553 433 -560 488 -564 c 1
 488 -589 l 1
 294 -589 l 1
 294 -564 l 1
 350 -561 356 -551 356 -477 c 2
 356 -378 l 2
 356 -265 333 -225 271 -225 c 0
 227 -225 186 -250 165 -291 c 0
 154 -311 152 -324 152 -371 c 2
1236 520 m 1x00130014
 1236 591 l 1
 1234 591 l 1
 1198 541 1160 520 1105 520 c 0x00130014
 992 520 909 606 909 727 c 0
 909 845 993 932 1105 932 c 0
 1152 932 1188 917 1223 882 c 1
 1223 959 l 2
 1223 1015 1221 1055 1218 1069 c 0
 1213 1091 1193 1099 1141 1099 c 1
 1141 1122 l 1
 1295 1150 l 1
 1295 717 l 2
 1295 648 1295 604 1300 585 c 0
 1306 561 1315 554 1361 554 c 1
 1361 528 l 1x000b0014
 1236 520 l 1x00130014
1222 707 m 2
 1222 756 l 2
 1222 808 1217 831 1201 851 c 0
 1179 881 1140 896 1105 896 c 0
 1034 896 994 832 994 731 c 0
 994 625 1033 556 1105 556 c 0
 1140 556 1183 573 1202 603 c 0
 1216 625 1222 653 1222 707 c 2
661 554 m 1x000b0154
 645 528 l 1
 629 528 l 1
 629 656 l 1
 648 656 l 1
 667 585 702 551 754 551 c 0
 794 551 819 570 819 610 c 0x00130254
 819 639 806 648 732 694 c 0
 664 737 631 761 631 817 c 0
 631 885 680 932 743 932 c 0
 770 932 801 923 823 909 c 1
 838 925 l 1
 852 925 l 1
 852 817 l 1
 833 817 l 1x00130134
 811 878 787 902 749 902 c 0
 715 902 693 883 693 851 c 0
 693 818 715 803 766 771 c 0
 852 717 886 691 886 634 c 0
 886 563 835 520 761 520 c 0x00130154
 722 520 688 532 661 554 c 1x000b0154
EndSplineSet
Validated: 1
EndChar

StartChar: Q
Encoding: 81 81 36
Width: 1562
GlyphClass: 2
Flags: MW
HStem: 0 38<19 343 19 19> 520 31<923.5 956 910 980> 528 25 732 38<29 333 29 333> 902 31 1099 22
VStem: 129 105<182 189 189 581> 499 105<182 189 189 581> 811 19<528 656 656 656> 813 62<834.5 851> 1001 67<598.5 624.5> 1015 19<817 925> 1091 85<678 781.5 678 786> 1404 74
LayerCount: 2
Fore
SplineSet
1418 520 m 1x4c0c
 1418 591 l 1
 1415 591 l 1
 1379 541 1342 520 1287 520 c 0x4c0c
 1174 520 1091 606 1091 727 c 0
 1091 845 1175 932 1287 932 c 0
 1334 932 1370 917 1405 882 c 1
 1405 959 l 2
 1405 1015 1404 1055 1401 1069 c 0
 1396 1091 1375 1099 1323 1099 c 1
 1323 1122 l 1
 1477 1150 l 1
 1477 717 l 2
 1477 648 1477 604 1482 585 c 0
 1488 561 1497 554 1543 554 c 1
 1543 528 l 1x2c0c
 1418 520 l 1x4c0c
1404 707 m 2
 1404 756 l 2
 1404 808 1399 831 1383 851 c 0
 1361 881 1322 896 1287 896 c 0
 1216 896 1176 832 1176 731 c 0
 1176 625 1215 556 1287 556 c 0
 1322 556 1365 573 1384 603 c 0
 1398 625 1404 653 1404 707 c 2
842 554 m 1x2c6c
 828 528 l 1
 811 528 l 1
 811 656 l 1
 830 656 l 1
 849 585 884 551 936 551 c 0
 976 551 1001 570 1001 610 c 0x4cac
 1001 639 988 648 914 694 c 0
 846 737 813 761 813 817 c 0
 813 885 862 932 925 932 c 0
 952 932 983 923 1005 909 c 1
 1020 925 l 1
 1034 925 l 1
 1034 817 l 1
 1015 817 l 1x4c5c
 993 878 969 902 931 902 c 0
 897 902 875 883 875 851 c 0
 875 818 897 803 948 771 c 0
 1034 717 1068 691 1068 634 c 0
 1068 563 1017 520 943 520 c 0x4c6c
 904 520 869 532 842 554 c 1x2c6c
604 581 m 2x91
 604 189 l 2
 604 57 619 41 713 38 c 1
 713 0 l 1
 389 0 l 1
 389 38 l 1
 483 41 499 58 499 182 c 2
 499 588 l 2
 499 701 485 728 399 732 c 1
 399 770 l 1
 703 770 l 1
 703 732 l 1
 617 729 604 702 604 581 c 2x91
234 581 m 2x92
 234 189 l 2
 234 57 249 41 343 38 c 1
 343 0 l 1
 19 0 l 1
 19 38 l 1
 113 41 129 58 129 182 c 2
 129 588 l 2
 129 701 115 728 29 732 c 1
 29 770 l 1
 333 770 l 1
 333 732 l 1
 247 729 234 702 234 581 c 2x92
EndSplineSet
Validated: 1
EndChar

StartChar: R
Encoding: 82 82 37
Width: 1467
GlyphClass: 2
Flags: MW
HStem: 525 28 525 37<1100 1151> 731 39<19 345 308 345> 1066 37<1036 1040 1040 1135> 1074 28
VStem: 948 79<639 648 648 989 989 1024> 1351 98
LayerCount: 2
Fore
SplineSet
1151 525 m 2x56
 858 525 l 1
 858 554 l 1
 934 556 948 568 948 639 c 2
 948 989 l 2
 948 1059 938 1071 873 1074 c 1
 873 1103 l 1x8e
 1136 1103 l 2
 1317 1103 1448 976 1448 804 c 0
 1448 640 1326 525 1151 525 c 2x56
1135 1066 m 2x56
 1040 1066 l 2
 1032 1066 1027 1061 1027 1053 c 2
 1027 648 l 2
 1027 590 1062 562 1138 562 c 0
 1274 562 1351 645 1351 803 c 0
 1351 969 1269 1066 1135 1066 c 2x56
278 603 m 2x20
 456 153 l 1
 632 587 l 2
 652 636 659 661 659 683 c 0
 659 719 640 732 581 732 c 1
 581 770 l 1
 824 770 l 1
 824 732 l 1
 763 725 738 707 715 651 c 2
 444 -10 l 1
 409 -10 l 1
 151 613 l 2
 117 694 89 727 19 731 c 1
 19 770 l 1
 345 770 l 1
 345 731 l 1
 271 731 254 717 254 689 c 0
 254 670 260 649 278 603 c 2x20
EndSplineSet
Validated: 1
EndChar

StartChar: S
Encoding: 83 83 38
Width: 1010
GlyphClass: 2
Flags: MW
HStem: 518 38<192.5 260 178 281.5> 525 28 525 37<650 701> 1066 37<585 589 589 684> 1072 38<188.5 239 168 251> 1074 28
VStem: 25 28<702 702> 49 71 343 82<637.5 679.5> 354 28 498 79 900 98<724 886>
LayerCount: 2
Fore
SplineSet
701 525 m 2x3030
 408 525 l 1
 408 554 l 1
 484 556 498 568 498 639 c 2
 498 989 l 2
 498 1059 487 1071 422 1074 c 1
 422 1103 l 1x4430
 686 1103 l 2
 867 1103 998 976 998 804 c 0
 998 640 876 525 701 525 c 2x3030
684 1066 m 2x3030
 589 1066 l 2
 581 1066 576 1061 576 1053 c 2
 576 648 l 2
 576 590 612 562 688 562 c 0
 824 562 900 645 900 803 c 0
 900 969 818 1066 684 1066 c 2x3030
36 534 m 1
 25 702 l 1
 53 702 l 1x8ab0
 67 611 133 556 223 556 c 0
 297 556 343 595 343 654 c 0
 343 705 313 734 212 778 c 0
 87 833 49 874 49 951 c 0
 49 1044 119 1110 217 1110 c 0x89b0
 261 1110 297 1097 336 1066 c 1
 356 1100 l 1
 373 1100 l 1
 381 951 l 1
 354 951 l 1x1170
 330 1033 283 1072 219 1072 c 0
 158 1072 119 1039 119 989 c 0
 119 942 149 913 234 875 c 0
 382 808 425 767 425 688 c 0
 425 587 342 518 221 518 c 0x89b0
 164 518 121 532 75 570 c 1
 54 534 l 1
 36 534 l 1
EndSplineSet
Validated: 1
EndChar

StartChar: T
Encoding: 84 84 39
Width: 802
GlyphClass: 2
Flags: MW
HStem: 0 38<212 590 212 212> 727 43<192 286.5 524.5 632>
VStem: 21 37<579 770> 342 119<161 696> 745 41<579 579>
LayerCount: 2
Fore
SplineSet
776 770 m 1
 786 579 l 1
 745 579 l 1
 736 695 690 727 574 727 c 0
 475 727 461 719 461 696 c 2
 461 161 l 2
 461 75 477 42 590 38 c 1
 590 0 l 1
 212 0 l 1
 212 38 l 1
 325 42 342 75 342 161 c 2
 342 696 l 2
 342 719 329 727 244 727 c 0
 140 727 62 721 58 579 c 1
 21 579 l 1
 21 770 l 1
 776 770 l 1
EndSplineSet
Validated: 1
EndChar

StartChar: V
Encoding: 86 86 40
Width: 964
GlyphClass: 2
Flags: MW
HStem: 731 39<90 416 379 416>
LayerCount: 2
Fore
SplineSet
349 603 m 2
 527 153 l 1
 703 587 l 2
 723 636 730 661 730 683 c 0
 730 719 711 732 652 732 c 1
 652 770 l 1
 895 770 l 1
 895 732 l 1
 834 725 809 707 786 651 c 2
 515 -10 l 1
 480 -10 l 1
 222 613 l 2
 188 694 160 727 90 731 c 1
 90 770 l 1
 416 770 l 1
 416 731 l 1
 342 731 325 717 325 689 c 0
 325 670 331 649 349 603 c 2
EndSplineSet
Validated: 1
EndChar

StartChar: W
Encoding: 87 87 41
Width: 1654
GlyphClass: 2
Flags: MW
HStem: 0 38<19 343 19 19> 526 36<1342 1395.5 1342 1405.5> 534 25 732 38<29 333 29 333> 902 36<1342.5 1395.5> 1105 22
VStem: 129 105<182 189 189 581> 488 105<182 189 189 581> 847 105<182 189 189 581> 1183 85<684 787.5 684 792> 1496 72
LayerCount: 2
Fore
SplineSet
1510 526 m 1x4c60
 1510 596 l 1
 1507 596 l 1
 1471 546 1433 526 1378 526 c 0x4c60
 1265 526 1183 612 1183 733 c 0
 1183 851 1266 938 1378 938 c 0
 1425 938 1461 923 1496 888 c 1
 1496 965 l 2
 1496 1021 1495 1061 1492 1075 c 0
 1487 1097 1467 1105 1415 1105 c 1
 1415 1128 l 1
 1569 1156 l 1
 1569 723 l 2
 1569 654 1569 610 1574 591 c 0
 1580 567 1589 560 1635 560 c 1
 1635 534 l 1x2c60
 1510 526 l 1x4c60
1495 713 m 2
 1495 762 l 2
 1495 814 1491 837 1475 857 c 0
 1453 887 1413 902 1378 902 c 0
 1307 902 1268 838 1268 737 c 0
 1268 631 1306 562 1378 562 c 0
 1413 562 1457 579 1476 609 c 0
 1490 631 1495 659 1495 713 c 2
593 581 m 2x91
 593 189 l 2
 593 57 608 41 702 38 c 1
 702 0 l 1
 378 0 l 1
 378 38 l 1
 472 41 488 58 488 182 c 2
 488 588 l 2
 488 701 474 728 388 732 c 1
 388 770 l 1
 692 770 l 1
 692 732 l 1
 606 729 593 702 593 581 c 2x91
952 581 m 2x9080
 952 189 l 2
 952 57 967 41 1061 38 c 1
 1061 0 l 1
 737 0 l 1
 737 38 l 1
 831 41 847 58 847 182 c 2
 847 588 l 2
 847 701 833 728 747 732 c 1
 747 770 l 1
 1051 770 l 1
 1051 732 l 1
 965 729 952 702 952 581 c 2x9080
234 581 m 2x92
 234 189 l 2
 234 57 249 41 343 38 c 1
 343 0 l 1
 19 0 l 1
 19 38 l 1
 113 41 129 58 129 182 c 2
 129 588 l 2
 129 701 115 728 29 732 c 1
 29 770 l 1
 333 770 l 1
 333 732 l 1
 247 729 234 702 234 581 c 2x92
EndSplineSet
Validated: 1
EndChar

StartChar: Y
Encoding: 89 89 42
Width: 1985
GlyphClass: 2
Flags: MW
HStem: 0 38<847 1171 847 847> 520 31<1346.5 1379 1333 1403> 528 25 731 39<19 345 308 345> 732 38<581 610.5> 902 31 1099 22
VStem: 957 105<182 189 189 581> 1234 19<528 656 656 656> 1236 62<834.5 851> 1424 67<598.5 624.5> 1438 19<817 925> 1514 85<678 781.5 678 786> 1827 74
LayerCount: 2
Fore
SplineSet
1841 520 m 1x460c
 1841 591 l 1
 1838 591 l 1
 1802 541 1765 520 1710 520 c 0x460c
 1597 520 1514 606 1514 727 c 0
 1514 845 1598 932 1710 932 c 0
 1757 932 1793 917 1828 882 c 1
 1828 959 l 2
 1828 1015 1827 1055 1824 1069 c 0
 1819 1091 1798 1099 1746 1099 c 1
 1746 1122 l 1
 1900 1150 l 1
 1900 717 l 2
 1900 648 1900 604 1905 585 c 0
 1911 561 1920 554 1966 554 c 1
 1966 528 l 1x260c
 1841 520 l 1x460c
1827 707 m 2
 1827 756 l 2
 1827 808 1822 831 1806 851 c 0
 1784 881 1745 896 1710 896 c 0
 1639 896 1599 832 1599 731 c 0
 1599 625 1638 556 1710 556 c 0
 1745 556 1788 573 1807 603 c 0
 1821 625 1827 653 1827 707 c 2
1265 554 m 1x266c
 1251 528 l 1
 1234 528 l 1
 1234 656 l 1
 1253 656 l 1
 1272 585 1307 551 1359 551 c 0
 1399 551 1424 570 1424 610 c 0x46ac
 1424 639 1411 648 1337 694 c 0
 1269 737 1236 761 1236 817 c 0
 1236 885 1285 932 1348 932 c 0
 1375 932 1406 923 1428 909 c 1
 1443 925 l 1
 1457 925 l 1
 1457 817 l 1
 1438 817 l 1x465c
 1416 878 1392 902 1354 902 c 0
 1320 902 1298 883 1298 851 c 0
 1298 818 1320 803 1371 771 c 0
 1457 717 1491 691 1491 634 c 0
 1491 563 1440 520 1366 520 c 0x466c
 1327 520 1292 532 1265 554 c 1x266c
1062 581 m 2x89
 1062 189 l 2
 1062 57 1077 41 1171 38 c 1
 1171 0 l 1
 847 0 l 1
 847 38 l 1
 941 41 957 58 957 182 c 2
 957 588 l 2
 957 701 943 728 857 732 c 1
 857 770 l 1
 1161 770 l 1
 1161 732 l 1
 1075 729 1062 702 1062 581 c 2x89
278 603 m 2x10
 456 153 l 1
 632 587 l 2
 652 636 659 661 659 683 c 0
 659 719 640 732 581 732 c 1
 581 770 l 1
 824 770 l 1
 824 732 l 1
 763 725 738 707 715 651 c 2
 444 -10 l 1
 409 -10 l 1
 151 613 l 2
 117 694 89 727 19 731 c 1
 19 770 l 1
 345 770 l 1
 345 731 l 1
 271 731 254 717 254 689 c 0
 254 670 260 649 278 603 c 2x10
EndSplineSet
Validated: 1
EndChar

StartChar: d
Encoding: 100 100 43
Width: 488
GlyphClass: 2
Flags: MW
HStem: 526 36<178 231.5 178 241.5> 534 25 902 36<178.5 231.5> 1105 22
VStem: 19 85<684 787.5 684 792> 332 72
LayerCount: 2
Fore
SplineSet
346 526 m 1xbc
 346 596 l 1
 343 596 l 1
 307 546 269 526 214 526 c 0xbc
 101 526 19 612 19 733 c 0
 19 851 102 938 214 938 c 0
 261 938 297 923 332 888 c 1
 332 965 l 2
 332 1021 331 1061 328 1075 c 0
 323 1097 303 1105 251 1105 c 1
 251 1128 l 1
 405 1156 l 1
 405 723 l 2
 405 654 405 610 410 591 c 0
 416 567 425 560 471 560 c 1
 471 534 l 1x7c
 346 526 l 1xbc
331 713 m 2
 331 762 l 2
 331 814 327 837 311 857 c 0
 289 887 249 902 214 902 c 0
 143 902 104 838 104 737 c 0
 104 631 142 562 214 562 c 0
 249 562 293 579 312 609 c 0
 326 631 331 659 331 713 c 2
EndSplineSet
Validated: 1
EndChar

StartChar: e
Encoding: 101 101 44
Width: 1966
GlyphClass: 2
Flags: MW
HStem: -10 21G<754 789 754 754> 0 38<19 343 19 19> 520 31<1327.5 1360 1314 1384> 528 25 732 38<29 333 29 333 926 955.5> 902 31 1099 22
VStem: 129 105<182 189 189 581> 1215 19<528 656 656 656> 1217 62<834.5 851> 1405 67<598.5 624.5> 1419 19<817 925> 1495 85<678 781.5 678 786> 1808 74
LayerCount: 2
Fore
SplineSet
623 603 m 2x8f0c
 801 153 l 1
 977 587 l 2
 997 636 1004 661 1004 683 c 0
 1004 719 985 732 926 732 c 1
 926 770 l 1
 1169 770 l 1
 1169 732 l 1
 1108 725 1083 707 1060 651 c 2
 789 -10 l 1
 754 -10 l 1
 496 613 l 2
 462 694 434 727 364 731 c 1
 364 770 l 1
 690 770 l 1
 690 731 l 1
 616 731 599 717 599 689 c 0
 599 670 605 649 623 603 c 2x8f0c
234 581 m 2
 234 189 l 2
 234 57 249 41 343 38 c 1
 343 0 l 1
 19 0 l 1
 19 38 l 1x4f0c
 113 41 129 58 129 182 c 2
 129 588 l 2
 129 701 115 728 29 732 c 1
 29 770 l 1
 333 770 l 1
 333 732 l 1
 247 729 234 702 234 581 c 2
1822 520 m 1x260c
 1822 591 l 1
 1819 591 l 1
 1783 541 1746 520 1691 520 c 0x260c
 1578 520 1495 606 1495 727 c 0
 1495 845 1579 932 1691 932 c 0
 1738 932 1774 917 1809 882 c 1
 1809 959 l 2
 1809 1015 1808 1055 1805 1069 c 0
 1800 1091 1779 1099 1727 1099 c 1
 1727 1122 l 1
 1881 1150 l 1
 1881 717 l 2
 1881 648 1881 604 1886 585 c 0
 1892 561 1901 554 1947 554 c 1
 1947 528 l 1x160c
 1822 520 l 1x260c
1808 707 m 2
 1808 756 l 2
 1808 808 1803 831 1787 851 c 0
 1765 881 1726 896 1691 896 c 0
 1620 896 1580 832 1580 731 c 0
 1580 625 1619 556 1691 556 c 0
 1726 556 1769 573 1788 603 c 0
 1802 625 1808 653 1808 707 c 2
1246 554 m 1x166c
 1232 528 l 1
 1215 528 l 1
 1215 656 l 1
 1234 656 l 1
 1253 585 1288 551 1340 551 c 0
 1380 551 1405 570 1405 610 c 0x26ac
 1405 639 1392 648 1318 694 c 0
 1250 737 1217 761 1217 817 c 0
 1217 885 1266 932 1329 932 c 0
 1356 932 1387 923 1409 909 c 1
 1424 925 l 1
 1438 925 l 1
 1438 817 l 1
 1419 817 l 1x265c
 1397 878 1373 902 1335 902 c 0
 1301 902 1279 883 1279 851 c 0
 1279 818 1301 803 1352 771 c 0
 1438 717 1472 691 1472 634 c 0
 1472 563 1421 520 1347 520 c 0x266c
 1308 520 1273 532 1246 554 c 1x166c
EndSplineSet
Validated: 1
EndChar

StartChar: f
Encoding: 102 102 45
Width: 324
GlyphClass: 2
Flags: MW
HStem: 2 21G<45 53> 319 56
VStem: 25 43 191 85<236 250>
LayerCount: 2
Fore
SplineSet
74 244 m 2
 74 151 l 2
 74 118 76 92 79 72 c 1
 105 94 123 110 134 121 c 0
 147 134 160 152 172 174 c 0
 184 196 191 217 191 239 c 0
 191 261 186 279 176 295 c 0
 166 311 154 319 139 319 c 0
 121 319 105 312 92 298 c 0
 80 282 74 264 74 244 c 2
25 29 m 2
 19 745 l 1
 30 751 31 752 42 752 c 2
 42 752 57 752 68 746 c 1
 68 326 l 1
 100 353 133 376 175 376 c 0
 205 376 236 372 256 347 c 0
 276 322 276 278 276 246 c 0
 276 226 270 204 256 181 c 0
 243 160 231 144 217 132 c 0
 209 126 195 110 163 86 c 0
 153 79 142 71 129 62 c 0
 116 53 109 47 105 45 c 0
 99 42 95 35 87 28 c 0
 79 21 74 14 68 8 c 0
 62 3 57 2 49 2 c 0
 41 2 40 2 34 7 c 0
 28 12 25 19 25 29 c 2
EndSplineSet
Validated: 1
EndChar

StartChar: g
Encoding: 103 103 46
Width: 2547
GlyphClass: 2
Flags: MW
HStem: 0 38<857 1181 857 857> 518 38<1722.5 1790 1708 1811.5> 525 28 525 37<2180 2231> 731 39<19 345 308 345> 732 38<581 610.5> 1066 37<2115 2119 2119 2214> 1072 38<1718.5 1769 1698 1781> 1074 28
VStem: 967 105<182 189 189 581> 1313 105<182 189 189 581> 1555 28<702 702> 1579 71 1873 82<637.5 679.5> 1884 28 2028 79 2430 98<724 886>
LayerCount: 2
Fore
SplineSet
2231 525 m 2x120180
 1938 525 l 1
 1938 554 l 1
 2014 556 2028 568 2028 639 c 2
 2028 989 l 2
 2028 1059 2017 1071 1952 1074 c 1
 1952 1103 l 1x208180
 2216 1103 l 2
 2397 1103 2528 976 2528 804 c 0
 2528 640 2406 525 2231 525 c 2x120180
2214 1066 m 2x120180
 2119 1066 l 2
 2111 1066 2106 1061 2106 1053 c 2
 2106 648 l 2
 2106 590 2142 562 2218 562 c 0
 2354 562 2430 645 2430 803 c 0
 2430 969 2348 1066 2214 1066 c 2x120180
1566 534 m 1
 1555 702 l 1
 1583 702 l 1x411580
 1597 611 1663 556 1753 556 c 0
 1827 556 1873 595 1873 654 c 0
 1873 705 1843 734 1742 778 c 0
 1617 833 1579 874 1579 951 c 0
 1579 1044 1649 1110 1747 1110 c 0x410d80
 1791 1110 1827 1097 1866 1066 c 1
 1886 1100 l 1
 1903 1100 l 1
 1911 951 l 1
 1884 951 l 1x020b80
 1860 1033 1813 1072 1749 1072 c 0
 1688 1072 1649 1039 1649 989 c 0
 1649 942 1679 913 1764 875 c 0
 1912 808 1955 767 1955 688 c 0
 1955 587 1872 518 1751 518 c 0x410d80
 1694 518 1651 532 1605 570 c 1
 1584 534 l 1
 1566 534 l 1
1418 581 m 2x8420
 1418 189 l 2
 1418 57 1433 41 1527 38 c 1
 1527 0 l 1
 1203 0 l 1
 1203 38 l 1
 1297 41 1313 58 1313 182 c 2
 1313 588 l 2
 1313 701 1299 728 1213 732 c 1
 1213 770 l 1
 1517 770 l 1
 1517 732 l 1
 1431 729 1418 702 1418 581 c 2x8420
1072 581 m 2x8440
 1072 189 l 2
 1072 57 1087 41 1181 38 c 1
 1181 0 l 1
 857 0 l 1
 857 38 l 1
 951 41 967 58 967 182 c 2
 967 588 l 2
 967 701 953 728 867 732 c 1
 867 770 l 1
 1171 770 l 1
 1171 732 l 1
 1085 729 1072 702 1072 581 c 2x8440
278 603 m 2x08
 456 153 l 1
 632 587 l 2
 652 636 659 661 659 683 c 0
 659 719 640 732 581 732 c 1
 581 770 l 1
 824 770 l 1
 824 732 l 1
 763 725 738 707 715 651 c 2
 444 -10 l 1
 409 -10 l 1
 151 613 l 2
 117 694 89 727 19 731 c 1
 19 770 l 1
 345 770 l 1
 345 731 l 1
 271 731 254 717 254 689 c 0
 254 670 260 649 278 603 c 2x08
EndSplineSet
Validated: 1
EndChar

StartChar: n
Encoding: 110 110 47
Width: 287
GlyphClass: 2
Flags: MW
HStem: -34 21G
VStem: 19 58 29 43 177 61 182 48
LayerCount: 2
Fore
SplineSet
19 854 m 1xc0
 29 860 40 862 50 862 c 0
 60 862 70 860 80 854 c 1
 76 634 l 1
 204 658 l 1
 209 658 l 2
 223 658 230 652 230 638 c 2xc8
 239 -46 l 1
 229 -52 218 -54 208 -54 c 0
 198 -54 187 -52 177 -46 c 1
 181 174 l 1
 54 150 l 1
 50 150 l 2
 36 150 29 156 29 170 c 2xb0
 19 854 l 1xc0
182 290 m 1
 186 538 l 1
 75 518 l 1
 72 270 l 1xa8
 182 290 l 1
EndSplineSet
Validated: 1
EndChar

StartChar: q
Encoding: 113 113 48
Width: 1562
GlyphClass: 2
Flags: MW
HStem: -350 33<750 777> -88 21G 0 38<19 343 19 19> 4 32 153 76 222 20G 282 20G 520 31<923.5 956 910 980> 528 25 732 38<29 333 29 333> 902 31 1099 22
VStem: 129 105<182 189 189 581> 499 105<182 189 189 581> 811 19<656 656> 813 62<834.5 851> 834 35 1001 67<598.5 624.5> 1015 19<817 925> 1029 93<-194.5 -117.5 -211.5 -112> 1091 85<678 781.5 678 786> 1404 74
LayerCount: 2
Fore
SplineSet
924 138 m 1xda0090
 889 4 l 1
 891 2 l 1
 906 13 938 21 967 21 c 0
 983 21 998 19 1013 14 c 1
 1124 146 l 1
 1124 104 l 1
 1040 2 l 1
 1090 -26 1122 -83 1122 -152 c 0
 1122 -271 1026 -365 902 -365 c 0
 847 -365 802 -347 777 -317 c 1
 750 -350 l 1
 750 -301 l 1
 761 -288 l 1
 758 -280 757 -271 757 -262 c 0
 757 -235 770 -219 793 -219 c 0
 802 -219 809 -221 814 -225 c 1
 987 -18 l 1
 978 -13 966 -11 953 -11 c 0
 912 -11 885 -33 869 -82 c 0
 863 -100 859 -103 851 -103 c 0
 841 -103 834 -97 834 -88 c 0
 834 -86 834 -84 835 -82 c 2
 915 227 l 1xd60090
 937 218 964 214 1003 214 c 0xda0090
 1049 214 1084 219 1103 228 c 1
 1107 227 l 1xd60090
 1095 170 1052 138 990 138 c 2
 924 138 l 1xda0090
1008 -36 m 1
 830 -252 l 1
 841 -286 845 -332 905 -332 c 0
 983 -332 1029 -254 1029 -135 c 0
 1029 -89 1023 -56 1008 -36 c 1
1418 520 m 1x01300c
 1418 591 l 1
 1415 591 l 1
 1379 541 1342 520 1287 520 c 0x01300c
 1174 520 1091 606 1091 727 c 0
 1091 845 1175 932 1287 932 c 0
 1334 932 1370 917 1405 882 c 1
 1405 959 l 2
 1405 1015 1404 1055 1401 1069 c 0
 1396 1091 1375 1099 1323 1099 c 1
 1323 1122 l 1
 1477 1150 l 1
 1477 717 l 2
 1477 648 1477 604 1482 585 c 0
 1488 561 1497 554 1543 554 c 1
 1543 528 l 1x00b00c
 1418 520 l 1x01300c
1404 707 m 2
 1404 756 l 2
 1404 808 1399 831 1383 851 c 0
 1361 881 1322 896 1287 896 c 0
 1216 896 1176 832 1176 731 c 0
 1176 625 1215 556 1287 556 c 0
 1322 556 1365 573 1384 603 c 0
 1398 625 1404 653 1404 707 c 2
842 554 m 1x00b14c
 828 528 l 1
 811 528 l 1
 811 656 l 1
 830 656 l 1
 849 585 884 551 936 551 c 0
 976 551 1001 570 1001 610 c 0x01324c
 1001 639 988 648 914 694 c 0
 846 737 813 761 813 817 c 0
 813 885 862 932 925 932 c 0
 952 932 983 923 1005 909 c 1
 1020 925 l 1
 1034 925 l 1
 1034 817 l 1
 1015 817 l 1x01312c
 993 878 969 902 931 902 c 0
 897 902 875 883 875 851 c 0
 875 818 897 803 948 771 c 0
 1034 717 1068 691 1068 634 c 0
 1068 563 1017 520 943 520 c 0x01314c
 904 520 869 532 842 554 c 1x00b14c
604 581 m 2x2044
 604 189 l 2
 604 57 619 41 713 38 c 1
 713 0 l 1
 389 0 l 1
 389 38 l 1
 483 41 499 58 499 182 c 2
 499 588 l 2
 499 701 485 728 399 732 c 1
 399 770 l 1
 703 770 l 1
 703 732 l 1
 617 729 604 702 604 581 c 2x2044
234 581 m 2x2048
 234 189 l 2
 234 57 249 41 343 38 c 1
 343 0 l 1
 19 0 l 1
 19 38 l 1
 113 41 129 58 129 182 c 2
 129 588 l 2
 129 701 115 728 29 732 c 1
 29 770 l 1
 333 770 l 1
 333 732 l 1
 247 729 234 702 234 581 c 2x2048
EndSplineSet
Validated: 1
EndChar

StartChar: r
Encoding: 114 114 49
Width: 1625
GlyphClass: 2
Flags: MW
HStem: 520 31<986.5 1019 973 1043> 528 25 731 39<19 345 308 345> 902 31 1099 22
VStem: 874 19<528 656 656 656> 876 62<834.5 851> 1064 67<598.5 624.5> 1078 19<817 925> 1154 85<678 781.5 678 786> 1467 74
LayerCount: 2
Fore
SplineSet
1481 520 m 1x9860
 1481 591 l 1
 1478 591 l 1
 1442 541 1405 520 1350 520 c 0x9860
 1237 520 1154 606 1154 727 c 0
 1154 845 1238 932 1350 932 c 0
 1397 932 1433 917 1468 882 c 1
 1468 959 l 2
 1468 1015 1467 1055 1464 1069 c 0
 1459 1091 1438 1099 1386 1099 c 1
 1386 1122 l 1
 1540 1150 l 1
 1540 717 l 2
 1540 648 1540 604 1545 585 c 0
 1551 561 1560 554 1606 554 c 1
 1606 528 l 1x5860
 1481 520 l 1x9860
1467 707 m 2
 1467 756 l 2
 1467 808 1462 831 1446 851 c 0
 1424 881 1385 896 1350 896 c 0
 1279 896 1239 832 1239 731 c 0
 1239 625 1278 556 1350 556 c 0
 1385 556 1428 573 1447 603 c 0
 1461 625 1467 653 1467 707 c 2
905 554 m 1x5b60
 891 528 l 1
 874 528 l 1
 874 656 l 1
 893 656 l 1
 912 585 947 551 999 551 c 0
 1039 551 1064 570 1064 610 c 0x9d60
 1064 639 1051 648 977 694 c 0
 909 737 876 761 876 817 c 0
 876 885 925 932 988 932 c 0
 1015 932 1046 923 1068 909 c 1
 1083 925 l 1
 1097 925 l 1
 1097 817 l 1
 1078 817 l 1x9ae0
 1056 878 1032 902 994 902 c 0
 960 902 938 883 938 851 c 0
 938 818 960 803 1011 771 c 0
 1097 717 1131 691 1131 634 c 0
 1131 563 1080 520 1006 520 c 0x9b60
 967 520 932 532 905 554 c 1x5b60
278 603 m 2x20
 456 153 l 1
 632 587 l 2
 652 636 659 661 659 683 c 0
 659 719 640 732 581 732 c 1
 581 770 l 1
 824 770 l 1
 824 732 l 1
 763 725 738 707 715 651 c 2
 444 -10 l 1
 409 -10 l 1
 151 613 l 2
 117 694 89 727 19 731 c 1
 19 770 l 1
 345 770 l 1
 345 731 l 1
 271 731 254 717 254 689 c 0
 254 670 260 649 278 603 c 2x20
EndSplineSet
Validated: 1
EndChar

StartChar: s
Encoding: 115 115 50
Width: 770
GlyphClass: 2
Flags: MW
HStem: 520 31<137.5 170 124 194> 528 25 902 31 1099 22
VStem: 25 19<528 656 656 656> 27 62<834.5 851> 215 67<598.5 624.5> 229 19<817 925> 305 85<678 781.5 678 786> 618 74
LayerCount: 2
Fore
SplineSet
632 520 m 1xb0c0
 632 591 l 1
 629 591 l 1
 593 541 556 520 501 520 c 0xb0c0
 388 520 305 606 305 727 c 0
 305 845 389 932 501 932 c 0
 548 932 584 917 619 882 c 1
 619 959 l 2
 619 1015 618 1055 615 1069 c 0
 610 1091 589 1099 537 1099 c 1
 537 1122 l 1
 691 1150 l 1
 691 717 l 2
 691 648 691 604 696 585 c 0
 702 561 711 554 757 554 c 1
 757 528 l 1x70c0
 632 520 l 1xb0c0
618 707 m 2
 618 756 l 2
 618 808 613 831 597 851 c 0
 575 881 536 896 501 896 c 0
 430 896 390 832 390 731 c 0
 390 625 429 556 501 556 c 0
 536 556 579 573 598 603 c 0
 612 625 618 653 618 707 c 2
56 554 m 1x76c0
 42 528 l 1
 25 528 l 1
 25 656 l 1
 44 656 l 1
 63 585 98 551 150 551 c 0
 190 551 215 570 215 610 c 0xbac0
 215 639 202 648 128 694 c 0
 60 737 27 761 27 817 c 0
 27 885 76 932 139 932 c 0
 166 932 197 923 219 909 c 1
 234 925 l 1
 248 925 l 1
 248 817 l 1
 229 817 l 1xb5c0
 207 878 183 902 145 902 c 0
 111 902 89 883 89 851 c 0
 89 818 111 803 162 771 c 0
 248 717 282 691 282 634 c 0
 282 563 231 520 157 520 c 0xb6c0
 118 520 83 532 56 554 c 1x76c0
EndSplineSet
Validated: 1
EndChar

StartChar: t
Encoding: 116 116 51
Width: 376
GlyphClass: 2
Flags: MW
HStem: -10 49<224.5 253> 467 47<182 316 182 316>
VStem: 84 98<116 163 163 467> 153 29<640 640>
LayerCount: 2
Fore
SplineSet
84 467 m 1xe0
 24 467 l 1
 24 504 l 1
 95 546 132 583 153 640 c 1
 182 640 l 1
 182 514 l 1xd0
 316 514 l 1
 316 467 l 1
 182 467 l 1
 182 163 l 2
 182 69 198 39 251 39 c 0
 284 39 306 52 328 85 c 1
 353 66 l 1
 334 17 287 -10 219 -10 c 0
 131 -10 84 34 84 112 c 2
 84 467 l 1xe0
EndSplineSet
Validated: 1
EndChar

StartChar: w
Encoding: 119 119 52
Width: 2087
GlyphClass: 2
Flags: MW
HStem: 0 38<19 343 19 19> 518 38<1262.5 1330 1248 1351.5> 525 28 525 37<1720 1771> 732 38<29 333 29 333> 1066 37<1655 1659 1659 1754> 1072 38<1258.5 1309 1238 1321> 1074 28
VStem: 129 105<182 189 189 581> 488 105<182 189 189 581> 847 105<182 189 189 581> 1095 28<702 702> 1119 71 1413 82<637.5 679.5> 1424 28 1568 79 1970 98<724 886>
LayerCount: 2
Fore
SplineSet
593 581 m 2x88e180
 593 189 l 2
 593 57 608 41 702 38 c 1
 702 0 l 1
 378 0 l 1
 378 38 l 1
 472 41 488 58 488 182 c 2
 488 588 l 2
 488 701 474 728 388 732 c 1
 388 770 l 1
 692 770 l 1
 692 732 l 1
 606 729 593 702 593 581 c 2x88e180
952 581 m 2
 952 189 l 2
 952 57 967 41 1061 38 c 1
 1061 0 l 1
 737 0 l 1
 737 38 l 1
 831 41 847 58 847 182 c 2
 847 588 l 2
 847 701 833 728 747 732 c 1
 747 770 l 1
 1051 770 l 1
 1051 732 l 1
 965 729 952 702 952 581 c 2
234 581 m 2
 234 189 l 2
 234 57 249 41 343 38 c 1
 343 0 l 1
 19 0 l 1
 19 38 l 1
 113 41 129 58 129 182 c 2
 129 588 l 2
 129 701 115 728 29 732 c 1
 29 770 l 1
 333 770 l 1
 333 732 l 1
 247 729 234 702 234 581 c 2
1771 525 m 2x140180
 1478 525 l 1
 1478 554 l 1
 1554 556 1568 568 1568 639 c 2
 1568 989 l 2
 1568 1059 1557 1071 1492 1074 c 1
 1492 1103 l 1x210180
 1756 1103 l 2
 1937 1103 2068 976 2068 804 c 0
 2068 640 1946 525 1771 525 c 2x140180
1754 1066 m 2x140180
 1659 1066 l 2
 1651 1066 1646 1061 1646 1053 c 2
 1646 648 l 2
 1646 590 1682 562 1758 562 c 0
 1894 562 1970 645 1970 803 c 0
 1970 969 1888 1066 1754 1066 c 2x140180
1106 534 m 1
 1095 702 l 1
 1123 702 l 1x421580
 1137 611 1203 556 1293 556 c 0
 1367 556 1413 595 1413 654 c 0
 1413 705 1383 734 1282 778 c 0
 1157 833 1119 874 1119 951 c 0
 1119 1044 1189 1110 1287 1110 c 0x420d80
 1331 1110 1367 1097 1406 1066 c 1
 1426 1100 l 1
 1443 1100 l 1
 1451 951 l 1
 1424 951 l 1x040b80
 1400 1033 1353 1072 1289 1072 c 0
 1228 1072 1189 1039 1189 989 c 0
 1189 942 1219 913 1304 875 c 0
 1452 808 1495 767 1495 688 c 0
 1495 587 1412 518 1291 518 c 0x420d80
 1234 518 1191 532 1145 570 c 1
 1124 534 l 1
 1106 534 l 1
EndSplineSet
Validated: 1
EndChar

StartChar: y
Encoding: 121 121 53
Width: 2217
GlyphClass: 2
Flags: MW
HStem: 0 38<847 1171 847 847> 518 38<1392.5 1460 1378 1481.5> 525 28 525 37<1850 1901> 731 39<19 345 308 345> 732 38<581 610.5> 1066 37<1785 1789 1789 1884> 1072 38<1388.5 1439 1368 1451> 1074 28
VStem: 957 105<182 189 189 581> 1225 28<702 702> 1249 71 1543 82<637.5 679.5> 1554 28 1698 79 2100 98<724 886>
LayerCount: 2
Fore
SplineSet
1901 525 m 2x1203
 1608 525 l 1
 1608 554 l 1
 1684 556 1698 568 1698 639 c 2
 1698 989 l 2
 1698 1059 1687 1071 1622 1074 c 1
 1622 1103 l 1x2083
 1886 1103 l 2
 2067 1103 2198 976 2198 804 c 0
 2198 640 2076 525 1901 525 c 2x1203
1884 1066 m 2x1203
 1789 1066 l 2
 1781 1066 1776 1061 1776 1053 c 2
 1776 648 l 2
 1776 590 1812 562 1888 562 c 0
 2024 562 2100 645 2100 803 c 0
 2100 969 2018 1066 1884 1066 c 2x1203
1236 534 m 1
 1225 702 l 1
 1253 702 l 1x412b
 1267 611 1333 556 1423 556 c 0
 1497 556 1543 595 1543 654 c 0
 1543 705 1513 734 1412 778 c 0
 1287 833 1249 874 1249 951 c 0
 1249 1044 1319 1110 1417 1110 c 0x411b
 1461 1110 1497 1097 1536 1066 c 1
 1556 1100 l 1
 1573 1100 l 1
 1581 951 l 1
 1554 951 l 1x0217
 1530 1033 1483 1072 1419 1072 c 0
 1358 1072 1319 1039 1319 989 c 0
 1319 942 1349 913 1434 875 c 0
 1582 808 1625 767 1625 688 c 0
 1625 587 1542 518 1421 518 c 0x411b
 1364 518 1321 532 1275 570 c 1
 1254 534 l 1
 1236 534 l 1
1062 581 m 2x8440
 1062 189 l 2
 1062 57 1077 41 1171 38 c 1
 1171 0 l 1
 847 0 l 1
 847 38 l 1
 941 41 957 58 957 182 c 2
 957 588 l 2
 957 701 943 728 857 732 c 1
 857 770 l 1
 1161 770 l 1
 1161 732 l 1
 1075 729 1062 702 1062 581 c 2x8440
278 603 m 2x08
 456 153 l 1
 632 587 l 2
 652 636 659 661 659 683 c 0
 659 719 640 732 581 732 c 1
 581 770 l 1
 824 770 l 1
 824 732 l 1
 763 725 738 707 715 651 c 2
 444 -10 l 1
 409 -10 l 1
 151 613 l 2
 117 694 89 727 19 731 c 1
 19 770 l 1
 345 770 l 1
 345 731 l 1
 271 731 254 717 254 689 c 0
 254 670 260 649 278 603 c 2x08
EndSplineSet
Validated: 1
EndChar

StartChar: sevendimfive
Encoding: 127 127 54
Width: 430
GlyphClass: 3
Flags: MW
HStem: -1007 33<0 27> -745 21G -653 32 -504 76 -435 20G -375 20G 127 74<155 168 168 308> 226 20G<72 102 102 102>
VStem: 72 30<246 246> 84 35 279 93<-851.5 -774.5 -868.5 -769>
LayerCount: 2
Fore
SplineSet
174 -519 m 1xf460
 139 -653 l 1
 141 -655 l 1
 156 -644 188 -636 217 -636 c 0
 233 -636 248 -638 263 -643 c 1
 374 -511 l 1
 374 -553 l 1
 290 -655 l 1
 340 -683 372 -740 372 -809 c 0
 372 -928 276 -1022 152 -1022 c 0
 97 -1022 52 -1004 27 -974 c 1
 0 -1007 l 1
 0 -958 l 1
 11 -945 l 1
 8 -937 7 -928 7 -919 c 0
 7 -892 20 -876 43 -876 c 0
 52 -876 59 -878 64 -882 c 1
 237 -675 l 1
 228 -670 216 -668 203 -668 c 0
 162 -668 135 -690 119 -739 c 0
 113 -757 109 -760 101 -760 c 0
 91 -760 84 -754 84 -745 c 0
 84 -743 84 -741 85 -739 c 2
 165 -430 l 1xec60
 187 -439 214 -443 253 -443 c 0xf460
 299 -443 334 -438 353 -429 c 1
 357 -430 l 1xec60
 345 -487 302 -519 240 -519 c 2
 174 -519 l 1xf460
258 -694 m 1
 80 -909 l 1
 91 -943 95 -989 155 -989 c 0
 233 -989 279 -911 279 -792 c 0
 279 -746 273 -714 258 -694 c 1
206 -69 m 2x0380
 308 127 l 1
 168 127 l 2
 90 127 80 120 59 65 c 2
 48 36 l 1
 19 36 l 1
 72 246 l 1
 102 246 l 1
 100 241 98 230 98 223 c 0
 98 206 109 201 155 201 c 2
 375 201 l 1
 375 186 l 1
 275 -38 255 -90 185 -275 c 0
 151 -364 132 -384 107 -384 c 0
 89 -384 75 -367 75 -353 c 0
 75 -328 82 -307 206 -69 c 2x0380
EndSplineSet
Validated: 1
Ligature2: "'liga' Standard Ligatures in Latin lookup 0 per glyph data 4" seven dim5
EndChar

StartChar: sixfour
Encoding: 128 128 55
Width: 430
GlyphClass: 2
Flags: MW
HStem: -1011 28 -876 38 -350 34<183 251.5 183 269> 2 37 127 21G<317 358.5> 208 34<200.5 273>
VStem: 19 94<-166.5 -131 -131 -94 -192.5 1> 233 74 319 94<-204 -102> 376 26<-939 -911.5 -801 -772>
LayerCount: 2
Fore
SplineSet
19 -876 m 1xff40
 19 -839 l 1
 283 -425 l 1
 306 -426 l 1
 306 -840 l 1
 368 -838 376 -830 376 -772 c 1
 402 -772 l 1
 402 -939 l 1
 376 -939 l 1
 376 -884 368 -875 306 -873 c 1
 306 -889 l 2
 306 -966 316 -982 365 -982 c 1
 365 -1011 l 1
 155 -1011 l 1
 155 -982 l 1
 221 -982 233 -965 233 -894 c 2
 233 -876 l 1
 19 -876 l 1xff40
233 -839 m 1
 233 -572 l 1
 229 -572 l 1
 56 -839 l 1
 233 -839 l 1
413 -148 m 0xff80
 413 -260 324 -350 214 -350 c 0
 99 -350 19 -243 19 -90 c 0
 19 92 126 242 257 242 c 0
 329 242 386 209 386 166 c 0
 386 142 371 127 346 127 c 0
 288 127 311 208 235 208 c 0
 166 208 114 107 114 -28 c 1
 116 -29 l 1
 148 17 185 38 235 38 c 0
 336 38 413 -42 413 -148 c 0xff80
113 -94 m 1
 113 -131 l 2
 113 -254 149 -316 217 -316 c 0
 286 -316 319 -264 319 -152 c 0
 319 -52 287 2 225 2 c 0
 179 2 146 -27 113 -94 c 1
EndSplineSet
Validated: 1
Ligature2: "'liga' Standard Ligatures in Latin lookup 0 per glyph data 4" six four
EndChar

StartChar: sixdimfive
Encoding: 129 129 56
Width: 430
GlyphClass: 3
Flags: MW
HStem: -1020 33<139 208 139 228> -666 32<216.5 223.5> -517 76<188 290 247.5 254> -350 34<183 251.5 183 269> 2 37 127 21G<317 358.5> 208 34<200.5 273>
VStem: 19 94<-166.5 -131 -131 -94 -192.5 1> 98 35 293 93<-849.5 -772.5 -866.5 -767> 319 94<-204 -102>
LayerCount: 2
Fore
SplineSet
113 -94 m 1xff20
 113 -131 l 2
 113 -254 149 -316 217 -316 c 0
 286 -316 319 -264 319 -152 c 0
 319 -52 287 2 225 2 c 0
 179 2 146 -27 113 -94 c 1xff20
413 -148 m 0
 413 -260 324 -350 214 -350 c 0
 99 -350 19 -243 19 -90 c 0
 19 92 126 242 257 242 c 0
 329 242 386 209 386 166 c 0
 386 142 371 127 346 127 c 0
 288 127 311 208 235 208 c 0
 166 208 114 107 114 -28 c 1
 116 -29 l 1
 148 17 185 38 235 38 c 0
 336 38 413 -42 413 -148 c 0
188 -517 m 1
 153 -651 l 1
 155 -653 l 1
 170 -642 202 -634 231 -634 c 0
 247 -634 262 -636 277 -641 c 1
 388 -509 l 1
 388 -551 l 1
 304 -653 l 1
 354 -681 386 -738 386 -807 c 0
 386 -926 290 -1020 166 -1020 c 0
 111 -1020 66 -1002 41 -972 c 1
 14 -1005 l 1
 14 -956 l 1
 25 -942 l 1
 22 -934 21 -926 21 -917 c 0
 21 -890 34 -874 57 -874 c 0
 66 -874 73 -876 78 -880 c 1
 251 -673 l 1
 242 -668 230 -666 217 -666 c 0
 176 -666 149 -688 133 -737 c 0
 127 -755 123 -758 115 -758 c 0
 105 -758 98 -752 98 -743 c 0xfec0
 98 -741 98 -739 99 -737 c 2
 179 -428 l 1
 201 -437 228 -441 267 -441 c 0
 313 -441 348 -436 367 -427 c 1
 371 -428 l 1
 359 -485 316 -517 254 -517 c 2
 188 -517 l 1
272 -691 m 1
 94 -908 l 1
 105 -942 109 -987 169 -987 c 0
 247 -987 293 -909 293 -790 c 0
 293 -744 287 -711 272 -691 c 1
EndSplineSet
Validated: 1
Ligature2: "'liga' Standard Ligatures in Latin lookup 0 per glyph data 4" six dim5
EndChar

StartChar: sixfive
Encoding: 130 130 57
Width: 430
GlyphClass: 3
Flags: MW
HStem: -1022 33<122.5 207 121 227> -668 32<215.5 243.5> -519 76<187 289 246.5 253> -350 34<183 251.5 183 269> 2 37 127 21G<317 358.5> 208 34<200.5 273>
VStem: 19 94<-166.5 -131 -131 -94 -192.5 1> 97 35 292 93<-851.5 -760 -868.5 -749.5> 319 94<-204 -102>
LayerCount: 2
Fore
SplineSet
187 -519 m 1xfec0
 152 -653 l 1
 154 -655 l 1
 169 -644 201 -636 230 -636 c 0
 318 -636 385 -711 385 -809 c 0
 385 -928 289 -1022 165 -1022 c 0
 80 -1022 20 -979 20 -919 c 0
 20 -892 33 -876 56 -876 c 0
 118 -876 74 -989 168 -989 c 0
 246 -989 292 -911 292 -792 c 0
 292 -707 271 -668 216 -668 c 0
 175 -668 148 -690 132 -739 c 0
 126 -757 122 -760 114 -760 c 0
 104 -760 97 -754 97 -745 c 0
 97 -743 97 -741 98 -739 c 2
 178 -430 l 1
 200 -439 227 -443 266 -443 c 0
 312 -443 347 -438 366 -429 c 1
 370 -430 l 1
 358 -487 315 -519 253 -519 c 2
 187 -519 l 1xfec0
413 -148 m 0xff20
 413 -260 324 -350 214 -350 c 0
 99 -350 19 -243 19 -90 c 0
 19 92 126 242 257 242 c 0
 329 242 386 209 386 166 c 0
 386 142 371 127 346 127 c 0
 288 127 311 208 235 208 c 0
 166 208 114 107 114 -28 c 1
 116 -29 l 1
 148 17 185 38 235 38 c 0
 336 38 413 -42 413 -148 c 0xff20
113 -94 m 1
 113 -131 l 2
 113 -254 149 -316 217 -316 c 0
 286 -316 319 -264 319 -152 c 0
 319 -52 287 2 225 2 c 0
 179 2 146 -27 113 -94 c 1
EndSplineSet
Validated: 1
Ligature2: "'liga' Standard Ligatures in Latin lookup 0 per glyph data 4" six five
EndChar

StartChar: sixplusfour
Encoding: 131 131 58
Width: 858
GlyphClass: 3
LigCaretCntFixed: 1
Flags: MW
HStem: -1009 28<151 184 337.5 362 151 184> -939 21G<-256 -217 -256 -256> -875 38 -783 38<-412 -256 -412 -256 -217 -61> -608 20G<-256 -217 -217 -217> -350 34<180 248.5 180 266> 2 37 127 21G<313 354.5> 208 34<197.5 270>
VStem: -256 39<-939 -783 -745 -588> 15 94<-166.5 -131 -131 -94 -192.5 1> 229 74<-893 -888 -888 -875 -875 -875 -838 -571 -571 -571> 315 94<-204 -102> 372 26
LayerCount: 2
Fore
SplineSet
15 -875 m 1xfff4
 15 -838 l 1
 279 -425 l 1
 303 -425 l 1
 303 -839 l 1
 365 -837 372 -829 372 -771 c 1
 399 -771 l 1
 399 -938 l 1
 372 -938 l 1
 372 -883 365 -874 303 -872 c 1
 303 -888 l 2
 303 -965 313 -981 362 -981 c 1
 362 -1009 l 1
 151 -1009 l 1
 151 -981 l 1
 217 -981 229 -964 229 -893 c 2
 229 -875 l 1
 15 -875 l 1xfff4
229 -838 m 1
 229 -571 l 1
 225 -571 l 1
 53 -838 l 1
 229 -838 l 1
409 -148 m 0xfff8
 409 -260 321 -350 211 -350 c 0
 96 -350 15 -243 15 -90 c 0
 15 92 122 242 253 242 c 0
 325 242 383 209 383 166 c 0
 383 142 367 127 342 127 c 0
 284 127 308 208 232 208 c 0
 163 208 111 107 111 -28 c 1
 113 -29 l 1
 145 17 182 38 232 38 c 0
 333 38 409 -42 409 -148 c 0xfff8
109 -94 m 1
 109 -131 l 2
 109 -254 146 -316 214 -316 c 0
 283 -316 315 -264 315 -152 c 0
 315 -52 283 2 221 2 c 0
 175 2 142 -27 109 -94 c 1
-217 -939 m 1x5840
 -256 -939 l 1
 -256 -783 l 1
 -412 -783 l 1
 -412 -745 l 1
 -256 -745 l 1
 -256 -588 l 1
 -217 -588 l 1
 -217 -745 l 1
 -61 -745 l 1
 -61 -783 l 1
 -217 -783 l 1
 -217 -939 l 1x5840
EndSplineSet
Validated: 1
Ligature2: "'liga' Standard Ligatures in Latin lookup 0 per glyph data 4" six plus four
LCarets2: 2 1 423
EndChar

StartChar: sixnatural
Encoding: 132 132 59
Width: 430
GlyphClass: 3
Flags: MW
HStem: -1151 21G -695 97<175 176> -350 34<183 251.5 183 269> 2 37 208 34<200.5 273>
VStem: 19 94<-166.5 -131 -131 -94 -192.5 1> 128 48 136 39 263 48 264 40 319 94<-204 -102>
LayerCount: 2
Fore
SplineSet
128 -415 m 1xc2
 137 -410 146 -408 154 -408 c 0
 162 -408 170 -410 179 -415 c 1
 176 -598 l 1
 282 -578 l 1
 286 -578 l 2
 298 -578 304 -584 304 -595 c 2xc240
 311 -1165 l 1
 302 -1170 293 -1172 285 -1172 c 0
 277 -1172 269 -1170 260 -1165 c 1
 263 -982 l 1
 157 -1002 l 1
 154 -1002 l 2
 142 -1002 136 -996 136 -985 c 2xc180
 128 -415 l 1xc2
264 -885 m 1
 267 -678 l 1
 175 -695 l 1xc140
 172 -902 l 1
 264 -885 l 1
413 -148 m 0x3c20
 413 -260 324 -350 214 -350 c 0
 99 -350 19 -243 19 -90 c 0
 19 92 126 242 257 242 c 0
 329 242 386 209 386 166 c 0
 386 142 371 127 346 127 c 0
 288 127 311 208 235 208 c 0
 166 208 114 107 114 -28 c 1
 116 -29 l 1
 148 17 185 38 235 38 c 0
 336 38 413 -42 413 -148 c 0x3c20
113 -94 m 1
 113 -131 l 2
 113 -254 149 -316 217 -316 c 0
 286 -316 319 -264 319 -152 c 0
 319 -52 287 2 225 2 c 0
 179 2 146 -27 113 -94 c 1
EndSplineSet
Validated: 1
Ligature2: "'liga' Standard Ligatures in Latin lookup 0 per glyph data 4" six n
EndChar

StartChar: naturalsix
Encoding: 133 133 60
Width: 690
GlyphClass: 3
Flags: MW
HStem: -411 21G -350 34<442 510.5 442 528> 2 37 45 97<66 67> 208 34<459.5 532>
VStem: 19 48 27 39 154 48 155 40 278 94<-166.5 -131 -131 -94 -192.5 1> 578 94<-204 -102>
LayerCount: 2
Fore
SplineSet
672 -148 m 0x6860
 672 -260 583 -350 473 -350 c 0
 358 -350 278 -243 278 -90 c 0
 278 92 385 242 516 242 c 0
 588 242 645 209 645 166 c 0
 645 142 630 127 605 127 c 0
 547 127 570 208 494 208 c 0
 425 208 373 107 373 -28 c 1
 375 -29 l 1
 407 17 444 38 494 38 c 0
 595 38 672 -42 672 -148 c 0x6860
372 -94 m 1
 372 -131 l 2
 372 -254 408 -316 476 -316 c 0
 545 -316 578 -264 578 -152 c 0
 578 -52 546 2 484 2 c 0
 438 2 405 -27 372 -94 c 1
19 325 m 1x94
 28 330 37 332 45 332 c 0
 53 332 61 330 70 325 c 1
 67 142 l 1
 173 162 l 1
 177 162 l 2
 189 162 195 156 195 145 c 2x9480
 202 -425 l 1
 193 -430 184 -432 176 -432 c 0
 168 -432 160 -430 151 -425 c 1
 154 -242 l 1
 48 -262 l 1
 45 -262 l 2
 33 -262 27 -256 27 -245 c 2x93
 19 325 l 1x94
155 -145 m 1
 158 62 l 1
 66 45 l 1x9280
 63 -162 l 1
 155 -145 l 1
EndSplineSet
Validated: 1
Ligature2: "'liga' Standard Ligatures in Latin lookup 0 per glyph data 4" n six
EndChar

StartChar: flat7
Encoding: 134 134 61
Width: 656
GlyphClass: 3
Flags: MW
HStem: -380 21G<41 47> -116 47<111.5 161.5> 127 74<418 431 431 571> 226 20G<335 365 365 365>
VStem: 24 36 162 71<-185.5 -174> 335 30<246 246>
LayerCount: 2
Fore
SplineSet
65 -179 m 2
 65 -256 l 2
 65 -283 66 -305 69 -322 c 1
 90 -304 106 -290 115 -281 c 0
 126 -270 136 -256 146 -238 c 0
 156 -220 162 -201 162 -183 c 0
 162 -165 158 -149 150 -136 c 0
 142 -123 132 -116 119 -116 c 0
 104 -116 91 -122 80 -134 c 0
 70 -147 65 -162 65 -179 c 2
24 -358 m 2
 19 239 l 1
 28 244 29 245 38 245 c 2
 38 245 51 245 60 240 c 1
 60 -110 l 1
 87 -87 114 -69 149 -69 c 0
 174 -69 200 -72 217 -93 c 0
 234 -114 233 -150 233 -177 c 0
 233 -194 229 -212 217 -231 c 0
 206 -248 195 -262 184 -272 c 0
 177 -277 166 -290 139 -310 c 0
 131 -316 122 -323 111 -331 c 0
 100 -339 94 -343 91 -345 c 0
 86 -348 82 -353 76 -359 c 0
 69 -365 65 -370 60 -375 c 0
 55 -379 50 -380 44 -380 c 0
 38 -380 36 -380 31 -376 c 0
 26 -372 24 -366 24 -358 c 2
469 -69 m 2
 571 127 l 1
 431 127 l 2
 353 127 343 120 322 65 c 2
 311 36 l 1
 282 36 l 1
 335 246 l 1
 365 246 l 1
 363 241 362 230 362 223 c 0
 362 206 372 201 418 201 c 2
 638 201 l 1
 638 186 l 1
 538 -38 518 -90 448 -275 c 0
 414 -364 395 -384 370 -384 c 0
 352 -384 338 -367 338 -353 c 0
 338 -328 345 -307 469 -69 c 2
EndSplineSet
Validated: 33
Ligature2: "'liga' Standard Ligatures in Latin lookup 0 per glyph data 4" f seven
EndChar

StartChar: flat9
Encoding: 135 135 62
Width: 720
GlyphClass: 3
Flags: MW
HStem: -365 21G<41 47> -350 34<449 521.5 449 530.5> -146 37<466 512> -101 47<111.5 161.5> 208 34<470.5 539>
VStem: 24 36 162 71<-170.5 -159> 309 94<-6 97> 609 94<-14 22 22 58.5 -109 83.5>
LayerCount: 2
Fore
SplineSet
65 -164 m 2x96
 65 -241 l 2
 65 -268 66 -290 69 -307 c 1
 90 -289 106 -275 115 -266 c 0
 126 -255 136 -240 146 -222 c 0
 156 -204 162 -186 162 -168 c 0
 162 -150 158 -134 150 -121 c 0
 142 -108 132 -101 119 -101 c 0
 104 -101 91 -107 80 -119 c 0
 70 -132 65 -147 65 -164 c 2x96
24 -343 m 2
 19 254 l 1
 28 259 29 260 38 260 c 2
 38 260 51 260 60 255 c 1
 60 -95 l 1
 87 -72 114 -54 149 -54 c 0
 174 -54 200 -57 217 -78 c 0
 234 -99 233 -135 233 -162 c 0
 233 -179 229 -197 217 -216 c 0
 206 -233 195 -247 184 -257 c 0
 177 -262 166 -275 139 -295 c 0
 131 -301 122 -307 111 -315 c 0
 100 -323 94 -328 91 -330 c 0
 86 -333 82 -338 76 -344 c 0
 69 -350 65 -355 60 -360 c 0
 55 -364 50 -365 44 -365 c 0
 38 -365 36 -365 31 -361 c 0
 26 -357 24 -351 24 -343 c 2
309 41 m 0x6980
 309 153 398 242 508 242 c 0
 623 242 703 135 703 -18 c 0
 703 -200 596 -350 465 -350 c 0
 393 -350 335 -317 335 -274 c 0
 335 -250 351 -235 376 -235 c 0
 434 -235 411 -316 487 -316 c 0
 556 -316 608 -215 608 -80 c 1
 605 -79 l 1
 573 -125 537 -146 487 -146 c 0
 386 -146 309 -65 309 41 c 0x6980
609 -14 m 1
 609 22 l 2
 609 145 573 208 505 208 c 0
 436 208 403 156 403 44 c 0
 403 -56 435 -109 497 -109 c 0
 543 -109 576 -81 609 -14 c 1
EndSplineSet
Validated: 33
Ligature2: "'liga' Standard Ligatures in Latin lookup 0 per glyph data 4" f nine
EndChar

StartChar: fourthree
Encoding: 136 136 63
Width: 430
GlyphClass: 3
Flags: MW
HStem: -1011 35<171 234 171 258.5> -816 33<83.5 166> -713 25<209 230.5 204 239.5> -604 28 -451 32<178 234> -351 28 -216 38
VStem: 22 79 44 75<-535 -497 -535 -493> 233 74 293 90<-586 -520.5> 305 95<-885.5 -810 -894.5 -802> 376 26<-279 -251.5 -141 -112>
LayerCount: 2
Fore
SplineSet
305 -843 m 0xf910
 305 -761 270 -713 209 -713 c 1
 194 -721 174 -726 159 -726 c 0
 139 -726 125 -716 125 -701 c 0
 125 -687 138 -680 158 -680 c 0
 171 -680 189 -683 204 -688 c 1
 257 -688 293 -635 293 -556 c 0
 293 -485 264 -451 204 -451 c 0
 152 -451 119 -476 119 -518 c 0
 119 -552 141 -575 173 -575 c 1
 168 -591 146 -604 120 -604 c 0
 76 -604 44 -570 44 -525 c 0
 44 -461 108 -419 204 -419 c 0
 312 -419 383 -472 383 -552 c 0xf8a0
 383 -620 332 -675 270 -691 c 1
 270 -695 l 1
 345 -714 400 -772 400 -848 c 0
 400 -941 316 -1011 201 -1011 c 0
 97 -1011 22 -954 22 -878 c 0
 22 -824 59 -783 108 -783 c 0
 136 -783 161 -797 166 -816 c 1
 128 -816 102 -847 102 -890 c 0
 102 -941 142 -976 200 -976 c 0
 268 -976 305 -928 305 -843 c 0xf910
19 -216 m 1x0648
 19 -179 l 1
 283 235 l 1
 306 235 l 1
 306 -180 l 1
 368 -178 376 -170 376 -112 c 1
 402 -112 l 1
 402 -279 l 1
 376 -279 l 1
 376 -224 368 -215 306 -213 c 1
 306 -229 l 2
 306 -306 316 -322 365 -322 c 1
 365 -351 l 1
 155 -351 l 1
 155 -322 l 1
 221 -322 233 -305 233 -234 c 2
 233 -216 l 1
 19 -216 l 1x0648
233 -179 m 1
 233 88 l 1
 229 88 l 1
 56 -179 l 1
 233 -179 l 1
EndSplineSet
Validated: 1
Ligature2: "'liga' Standard Ligatures in Latin lookup 0 per glyph data 4" four three
EndChar

StartChar: plusfourflat
Encoding: 137 137 64
Width: 822
GlyphClass: 3
Flags: MW
HStem: -1026 21G<553 559> -762 47<624.5 674.5> -351 28 -268 21G<175 214 175 175> -216 38 -111 38<19 175 19 175 214 370> 64 20G<175 214 214 214>
VStem: 175 39<-268 -111 -73 84> 536 36 635 74<-234 -229 -229 -216 -216 -216 -179 88 88 88> 675 71 778 26
LayerCount: 2
Fore
SplineSet
578 -825 m 2xc0a0
 578 -902 l 2
 578 -929 579 -951 582 -968 c 1
 603 -950 619 -936 628 -927 c 0
 639 -916 649 -902 659 -884 c 0
 669 -866 675 -847 675 -829 c 0
 675 -811 670 -795 662 -782 c 0
 654 -769 645 -762 632 -762 c 0
 617 -762 603 -768 592 -780 c 0
 582 -793 578 -808 578 -825 c 2xc0a0
536 -1004 m 2
 532 -407 l 1
 541 -402 542 -401 551 -401 c 2
 551 -401 563 -401 572 -406 c 1
 572 -756 l 1
 599 -733 627 -715 662 -715 c 0
 687 -715 712 -718 729 -739 c 0
 746 -760 745 -796 745 -823 c 0
 745 -840 741 -858 729 -877 c 0
 718 -894 707 -908 696 -918 c 0
 689 -923 679 -936 652 -956 c 0
 644 -962 635 -968 624 -976 c 0
 613 -984 607 -989 604 -991 c 0
 599 -994 594 -999 588 -1005 c 0
 581 -1011 577 -1016 572 -1021 c 0
 567 -1025 562 -1026 556 -1026 c 0
 550 -1026 549 -1026 544 -1022 c 0
 539 -1018 536 -1012 536 -1004 c 2
214 -268 m 1x17
 175 -268 l 1
 175 -111 l 1
 19 -111 l 1
 19 -73 l 1
 175 -73 l 1
 175 84 l 1
 214 84 l 1
 214 -73 l 1
 370 -73 l 1
 370 -111 l 1
 214 -111 l 1
 214 -268 l 1x17
422 -216 m 1x2850
 422 -179 l 1
 685 235 l 1
 709 235 l 1
 709 -180 l 1
 771 -178 778 -170 778 -112 c 1
 805 -112 l 1
 805 -279 l 1
 778 -279 l 1
 778 -224 771 -215 709 -213 c 1
 709 -229 l 2
 709 -306 719 -322 768 -322 c 1
 768 -351 l 1
 557 -351 l 1
 557 -322 l 1
 623 -322 635 -305 635 -234 c 2
 635 -216 l 1
 422 -216 l 1x2850
635 -179 m 1
 635 88 l 1
 632 88 l 1
 459 -179 l 1
 635 -179 l 1
EndSplineSet
Validated: 33
Ligature2: "'liga' Standard Ligatures in Latin lookup 0 per glyph data 4" plus four f
EndChar

StartChar: plusfourthree
Encoding: 138 138 65
Width: 822
GlyphClass: 3
Flags: MW
HStem: -1010 35<574 637 574 661.5> -815 33<486.5 569> -712 25<612 632.5 606 642.5> -603 28<501 576> -450 32<581 637> -351 28 -268 21G<175 214 175 175> -216 38 -111 38<19 175 19 175 214 370> 64 20G<175 214 214 214>
VStem: 175 39<-268 -111 -73 84> 425 79 447 75<-535 -497 -535 -492> 635 74<-234 -229 -229 -216 -216 -216 -179 88 88 88> 696 90<-585 -519.5> 708 95<-884.5 -810 -894.5 -801> 778 26
LayerCount: 2
Fore
SplineSet
708 -842 m 0xf811
 708 -760 673 -712 612 -712 c 1
 597 -720 577 -725 562 -725 c 0
 542 -725 528 -715 528 -700 c 0
 528 -686 541 -679 561 -679 c 0
 574 -679 591 -682 606 -687 c 1
 659 -687 696 -634 696 -555 c 0
 696 -484 667 -450 607 -450 c 0
 555 -450 522 -476 522 -518 c 0
 522 -552 544 -575 576 -575 c 1
 571 -591 549 -603 523 -603 c 0
 479 -603 447 -569 447 -524 c 0
 447 -460 511 -418 607 -418 c 0
 715 -418 786 -471 786 -551 c 0xf80a
 786 -619 735 -674 673 -690 c 1
 673 -695 l 1
 748 -714 803 -772 803 -848 c 0
 803 -941 719 -1010 604 -1010 c 0
 500 -1010 425 -954 425 -878 c 0
 425 -824 462 -782 511 -782 c 0
 539 -782 564 -796 569 -815 c 1
 531 -815 505 -846 505 -889 c 0
 505 -940 545 -975 603 -975 c 0
 671 -975 708 -927 708 -842 c 0xf811
422 -216 m 1x050480
 422 -179 l 1
 685 235 l 1
 709 235 l 1
 709 -180 l 1
 771 -178 778 -170 778 -112 c 1
 805 -112 l 1
 805 -279 l 1
 778 -279 l 1
 778 -224 771 -215 709 -213 c 1
 709 -229 l 2
 709 -306 719 -322 768 -322 c 1
 768 -351 l 1
 557 -351 l 1
 557 -322 l 1
 623 -322 635 -305 635 -234 c 2
 635 -216 l 1
 422 -216 l 1x050480
635 -179 m 1
 635 88 l 1
 632 88 l 1
 459 -179 l 1
 635 -179 l 1
214 -268 m 1x02e0
 175 -268 l 1
 175 -111 l 1
 19 -111 l 1
 19 -73 l 1
 175 -73 l 1
 175 84 l 1
 214 84 l 1
 214 -73 l 1
 370 -73 l 1
 370 -111 l 1
 214 -111 l 1
 214 -268 l 1x02e0
EndSplineSet
Validated: 1
Ligature2: "'liga' Standard Ligatures in Latin lookup 0 per glyph data 4" plus four three
EndChar

StartChar: sevenplusfive
Encoding: 139 139 66
Width: 804
GlyphClass: 3
Flags: MW
HStem: -1017 33<524.5 608 522 629> -908 21G<175 214 175 175> -751 38<19 175 19 175 214 370> -663 32<617.5 644.5> -576 20G<175 214 214 214> -514 76<589 691 648.5 655> 127 74<558 571 571 710> 226 20G<474 504 504 504>
VStem: 175 39<-908 -751 -713 -556> 474 30<246 246> 499 35 694 93<-846.5 -755 -863.5 -744.5>
LayerCount: 2
Fore
SplineSet
214 -908 m 1x6880
 175 -908 l 1
 175 -751 l 1
 19 -751 l 1
 19 -713 l 1
 175 -713 l 1
 175 -556 l 1
 214 -556 l 1
 214 -713 l 1
 370 -713 l 1
 370 -751 l 1
 214 -751 l 1
 214 -908 l 1x6880
589 -514 m 1x9430
 554 -648 l 1
 555 -650 l 1
 570 -639 603 -631 632 -631 c 0
 720 -631 787 -706 787 -804 c 0
 787 -923 691 -1017 567 -1017 c 0
 482 -1017 422 -974 422 -914 c 0
 422 -887 435 -871 458 -871 c 0
 520 -871 475 -984 569 -984 c 0
 647 -984 694 -906 694 -787 c 0
 694 -702 672 -663 617 -663 c 0
 576 -663 549 -685 533 -734 c 0
 527 -752 523 -755 515 -755 c 0
 505 -755 499 -749 499 -740 c 0
 499 -738 498 -736 499 -734 c 2
 580 -425 l 1
 602 -434 629 -438 668 -438 c 0
 714 -438 748 -433 767 -424 c 1
 772 -425 l 1
 760 -482 717 -514 655 -514 c 2
 589 -514 l 1x9430
608 -69 m 2x0340
 710 127 l 1
 571 127 l 2
 493 127 482 120 461 65 c 2
 450 36 l 1
 422 36 l 1
 474 246 l 1
 504 246 l 1
 502 241 501 230 501 223 c 0
 501 206 512 201 558 201 c 2
 778 201 l 1
 778 186 l 1
 678 -38 657 -90 587 -275 c 0
 553 -364 534 -384 509 -384 c 0
 491 -384 477 -367 477 -353 c 0
 477 -328 484 -307 608 -69 c 2x0340
EndSplineSet
Validated: 1
Ligature2: "'liga' Standard Ligatures in Latin lookup 0 per glyph data 4" seven plus five
EndChar

StartChar: naturalsixtwo
Encoding: 140 140 67
Width: 690
GlyphClass: 3
Flags: MW
HStem: -1023 74 -706 40<364.5 451> -473 35<440.5 501> -411 21G -350 34<442 510.5 442 528> 2 37 45 97<66 67> 208 34<459.5 532>
VStem: 19 48 27 39 154 48 155 40 278 94<-166.5 -131 -131 -94 -192.5 1> 296 73 572 90<-651.5 -560.5> 578 94<-204 -102> 638 28<-864 -864>
LayerCount: 2
Fore
SplineSet
398 -946 m 1xe006
 398 -950 l 1
 548 -950 l 2
 596 -950 617 -935 638 -864 c 1
 666 -864 l 1xe00480
 638 -1023 l 1
 289 -1023 l 1
 289 -999 l 1
 518 -795 572 -704 572 -599 c 0
 572 -522 532 -473 470 -473 c 0
 411 -473 368 -516 368 -578 c 0
 368 -632 401 -666 451 -666 c 1
 446 -690 423 -706 392 -706 c 0
 337 -706 296 -659 296 -594 c 0
 296 -505 376 -438 482 -438 c 0
 588 -438 662 -505 662 -600 c 0
 662 -724 543 -838 398 -946 c 1xe006
672 -148 m 0x0d09
 672 -260 583 -350 473 -350 c 0
 358 -350 278 -243 278 -90 c 0
 278 92 385 242 516 242 c 0
 588 242 645 209 645 166 c 0
 645 142 630 127 605 127 c 0
 547 127 570 208 494 208 c 0
 425 208 373 107 373 -28 c 1
 375 -29 l 1
 407 17 444 38 494 38 c 0
 595 38 672 -42 672 -148 c 0x0d09
372 -94 m 1
 372 -131 l 2
 372 -254 408 -316 476 -316 c 0
 545 -316 578 -264 578 -152 c 0
 578 -52 546 2 484 2 c 0
 438 2 405 -27 372 -94 c 1
19 325 m 1x1280
 28 330 37 332 45 332 c 0
 53 332 61 330 70 325 c 1
 67 142 l 1
 173 162 l 1
 177 162 l 2
 189 162 195 156 195 145 c 2x1290
 202 -425 l 1
 193 -430 184 -432 176 -432 c 0
 168 -432 160 -430 151 -425 c 1
 154 -242 l 1
 48 -262 l 1
 45 -262 l 2
 33 -262 27 -256 27 -245 c 2x1260
 19 325 l 1x1280
155 -145 m 1
 158 62 l 1
 66 45 l 1x1250
 63 -162 l 1
 155 -145 l 1
EndSplineSet
Validated: 1
Ligature2: "'liga' Standard Ligatures in Latin lookup 0 per glyph data 4" n six two
EndChar

StartChar: fivethree
Encoding: 141 141 68
Width: 430
GlyphClass: 3
Flags: MW
HStem: -1014 35<168 231 168 255.5> -819 33<80.5 163> -716 25<206 227.5 201 236.5> -607 28 -454 32<175 231> -350 33<122.5 206 120 227> 4 32<214.5 242.5> 153 76<186 288 245.5 252>
VStem: 19 79<-918.5 -871.5 -918.5 -855> 41 75<-539 -501 -539 -496> 96 35 290 90<-589 -523.5> 291 93<-179.5 -88 -196.5 -77.5> 302 95<-888.5 -814 -898.5 -805>
LayerCount: 2
Fore
SplineSet
302 -846 m 0xf884
 302 -764 267 -716 206 -716 c 1
 191 -724 171 -729 156 -729 c 0
 136 -729 122 -719 122 -704 c 0
 122 -690 135 -683 155 -683 c 0
 168 -683 186 -686 201 -691 c 1
 254 -691 290 -638 290 -559 c 0
 290 -488 261 -454 201 -454 c 0
 149 -454 116 -480 116 -522 c 0
 116 -556 138 -578 170 -578 c 1
 165 -594 143 -607 117 -607 c 0
 73 -607 41 -573 41 -528 c 0
 41 -464 105 -422 201 -422 c 0
 309 -422 380 -475 380 -555 c 0xf850
 380 -623 329 -678 267 -694 c 1
 267 -698 l 1
 342 -717 397 -776 397 -852 c 0
 397 -945 313 -1014 198 -1014 c 0
 94 -1014 19 -958 19 -882 c 0
 19 -828 56 -786 105 -786 c 0
 133 -786 158 -800 163 -819 c 1
 125 -819 98 -850 98 -893 c 0
 98 -944 139 -979 197 -979 c 0
 265 -979 302 -931 302 -846 c 0xf884
186 153 m 1x0728
 151 19 l 1
 152 17 l 1
 167 28 200 36 229 36 c 0
 317 36 384 -39 384 -137 c 0
 384 -256 289 -350 165 -350 c 0
 80 -350 19 -307 19 -247 c 0
 19 -220 32 -204 55 -204 c 0
 117 -204 73 -317 167 -317 c 0
 245 -317 291 -239 291 -120 c 0
 291 -35 270 4 215 4 c 0
 174 4 147 -18 131 -67 c 0
 125 -85 121 -88 113 -88 c 0
 103 -88 96 -82 96 -73 c 0
 96 -71 96 -69 97 -67 c 2
 177 242 l 1
 199 233 226 229 265 229 c 0
 311 229 346 234 365 243 c 1
 369 242 l 1
 357 185 314 153 252 153 c 2
 186 153 l 1x0728
EndSplineSet
Validated: 1
Ligature2: "'liga' Standard Ligatures in Latin lookup 0 per glyph data 4" five three
EndChar

StartChar: flat6
Encoding: 142 142 69
Width: 720
GlyphClass: 3
Flags: MW
HStem: -365 21G<41 47> -350 34<473 541.5 473 559> -101 47<111.5 161.5> 2 37 208 34<490.5 563>
VStem: 24 36 162 71<-170.5 -159> 309 94<-166.5 -131 -131 -94 -192.5 1> 609 94<-204 -102>
LayerCount: 2
Fore
SplineSet
65 -164 m 2xa6
 65 -241 l 2
 65 -268 66 -290 69 -307 c 1
 90 -289 106 -275 115 -266 c 0
 126 -255 136 -240 146 -222 c 0
 156 -204 162 -186 162 -168 c 0
 162 -150 158 -134 150 -121 c 0
 142 -108 132 -101 119 -101 c 0
 104 -101 91 -107 80 -119 c 0
 70 -132 65 -147 65 -164 c 2xa6
24 -343 m 2
 19 254 l 1
 28 259 29 260 38 260 c 2
 38 260 51 260 60 255 c 1
 60 -95 l 1
 87 -72 114 -54 149 -54 c 0
 174 -54 200 -57 217 -78 c 0
 234 -99 233 -135 233 -162 c 0
 233 -179 229 -197 217 -216 c 0
 206 -233 195 -247 184 -257 c 0
 177 -262 166 -275 139 -295 c 0
 131 -301 122 -307 111 -315 c 0
 100 -323 94 -328 91 -330 c 0
 86 -333 82 -338 76 -344 c 0
 69 -350 65 -355 60 -360 c 0
 55 -364 50 -365 44 -365 c 0
 38 -365 36 -365 31 -361 c 0
 26 -357 24 -351 24 -343 c 2
703 -148 m 0x5980
 703 -260 614 -350 504 -350 c 0
 389 -350 309 -243 309 -90 c 0
 309 92 416 242 547 242 c 0
 619 242 676 209 676 166 c 0
 676 142 661 127 636 127 c 0
 578 127 601 208 525 208 c 0
 456 208 404 107 404 -28 c 1
 406 -29 l 1
 438 17 475 38 525 38 c 0
 626 38 703 -42 703 -148 c 0x5980
403 -94 m 1
 403 -131 l 2
 403 -254 439 -316 507 -316 c 0
 576 -316 609 -264 609 -152 c 0
 609 -52 577 2 515 2 c 0
 469 2 436 -27 403 -94 c 1
EndSplineSet
Validated: 33
Ligature2: "'liga' Standard Ligatures in Latin lookup 0 per glyph data 4" f six
EndChar

StartChar: flat3
Encoding: 143 143 70
Width: 713
GlyphClass: 3
Flags: MW
HStem: -365 21G<41 47> -350 35<466 529 466 553.5> -155 33<378.5 461> -101 47<111.5 161.5> -52 25<505 524.5 498 535.5> 57 28<393 468> 210 32<473 529>
VStem: 24 36 162 71<-170.5 -159> 317 79<-254.5 -207.5 -254.5 -191> 339 75<125 163 125 168> 588 90<75 140.5> 601 95
LayerCount: 2
Fore
SplineSet
65 -164 m 2x9180
 65 -241 l 2
 65 -268 66 -290 69 -307 c 1
 90 -289 106 -275 115 -266 c 0
 126 -255 136 -240 146 -222 c 0
 156 -204 162 -186 162 -168 c 0
 162 -150 158 -134 150 -121 c 0
 142 -108 132 -101 119 -101 c 0
 104 -101 91 -107 80 -119 c 0
 70 -132 65 -147 65 -164 c 2x9180
24 -343 m 2
 19 254 l 1
 28 259 29 260 38 260 c 2
 38 260 51 260 60 255 c 1
 60 -95 l 1
 87 -72 114 -54 149 -54 c 0
 174 -54 200 -57 217 -78 c 0
 234 -99 233 -135 233 -162 c 0
 233 -179 229 -197 217 -216 c 0
 206 -233 195 -247 184 -257 c 0
 177 -262 166 -275 139 -295 c 0
 131 -301 122 -307 111 -315 c 0
 100 -323 94 -328 91 -330 c 0
 86 -333 82 -338 76 -344 c 0
 69 -350 65 -355 60 -360 c 0
 55 -364 50 -365 44 -365 c 0
 38 -365 36 -365 31 -361 c 0
 26 -357 24 -351 24 -343 c 2
601 -182 m 0x6e48
 601 -100 566 -52 505 -52 c 1
 490 -60 469 -65 454 -65 c 0
 434 -65 420 -55 420 -40 c 0
 420 -26 433 -19 453 -19 c 0
 466 -19 483 -22 498 -27 c 1
 551 -27 588 26 588 105 c 0
 588 176 559 210 499 210 c 0
 447 210 414 184 414 142 c 0
 414 108 436 85 468 85 c 1
 463 69 441 57 415 57 c 0
 371 57 339 91 339 136 c 0
 339 200 403 242 499 242 c 0
 607 242 678 189 678 109 c 0x6e30
 678 41 627 -14 565 -30 c 1
 565 -35 l 1
 640 -54 695 -112 695 -188 c 0
 695 -281 611 -350 496 -350 c 0
 392 -350 317 -294 317 -218 c 0
 317 -164 354 -122 403 -122 c 0
 431 -122 456 -136 461 -155 c 1
 423 -155 396 -186 396 -229 c 0
 396 -280 437 -315 495 -315 c 0
 563 -315 601 -267 601 -182 c 0x6e48
EndSplineSet
Validated: 33
Ligature2: "'liga' Standard Ligatures in Latin lookup 0 per glyph data 4" f three
EndChar

StartChar: plustwo
Encoding: 144 144 71
Width: 816
GlyphClass: 3
Flags: MW
HStem: -350 74 -268 21G<175 214 175 175> -111 38<19 175 19 175 214 370> -33 40<497.5 584> 64 20G<175 214 214 214> 200 35<572.5 633>
VStem: 175 39<-268 -111 -73 84> 428 73<68 123.5> 704 90<21.5 112.5> 771 28<-191 -191>
LayerCount: 2
Fore
SplineSet
214 -268 m 1x6a
 175 -268 l 1
 175 -111 l 1
 19 -111 l 1
 19 -73 l 1
 175 -73 l 1
 175 84 l 1
 214 84 l 1
 214 -73 l 1
 370 -73 l 1
 370 -111 l 1
 214 -111 l 1
 214 -268 l 1x6a
530 -273 m 1x9580
 531 -277 l 1
 680 -277 l 2
 728 -277 750 -262 771 -191 c 1
 799 -191 l 1x9540
 770 -350 l 1
 422 -350 l 1
 422 -326 l 1
 651 -122 704 -31 704 74 c 0
 704 151 664 200 602 200 c 0
 543 200 501 157 501 95 c 0
 501 41 534 7 584 7 c 1
 579 -17 556 -33 525 -33 c 0
 470 -33 428 14 428 79 c 0
 428 168 508 235 614 235 c 0
 720 235 794 168 794 73 c 0
 794 -51 675 -165 530 -273 c 1x9580
EndSplineSet
Validated: 1
Ligature2: "'liga' Standard Ligatures in Latin lookup 0 per glyph data 4" plus two
EndChar

StartChar: plusfourtwo
Encoding: 146 146 72
Width: 822
GlyphClass: 3
Flags: MW
HStem: -1012 74 -695 40<500.5 587> -462 35<576.5 637> -351 28 -268 21G<175 214 175 175> -216 38 -111 38<19 175 19 175 214 370> 84 21G<175 214 214 214>
VStem: 175 39<-268 -111 -73 84> 432 73<-594 -538.5> 635 74<-234 -229 -229 -216 -216 -216 -179 88 88 88> 708 90<-640.5 -549.5> 775 28 778 26
LayerCount: 2
Fore
SplineSet
422 -216 m 1xffe4
 422 -179 l 1
 685 235 l 1
 709 235 l 1
 709 -180 l 1
 771 -178 778 -170 778 -112 c 1
 805 -112 l 1
 805 -279 l 1
 778 -279 l 1
 778 -224 771 -215 709 -213 c 1
 709 -229 l 2
 709 -306 719 -322 768 -322 c 1
 768 -351 l 1
 557 -351 l 1
 557 -322 l 1
 623 -322 635 -305 635 -234 c 2
 635 -216 l 1
 422 -216 l 1xffe4
635 -179 m 1
 635 88 l 1
 632 88 l 1
 459 -179 l 1
 635 -179 l 1
214 -268 m 1
 175 -268 l 1
 175 -111 l 1
 19 -111 l 1
 19 -73 l 1
 175 -73 l 1
 175 84 l 1
 214 84 l 1
 214 -73 l 1
 370 -73 l 1
 370 -111 l 1
 214 -111 l 1
 214 -268 l 1
534 -935 m 1xe050
 535 -939 l 1
 684 -939 l 2
 732 -939 754 -924 775 -853 c 1
 802 -853 l 1xe048
 774 -1012 l 1
 425 -1012 l 1
 425 -988 l 1
 654 -784 708 -693 708 -588 c 0
 708 -511 668 -462 606 -462 c 0
 547 -462 505 -505 505 -567 c 0
 505 -621 537 -655 587 -655 c 1
 582 -679 559 -695 528 -695 c 0
 473 -695 432 -648 432 -583 c 0
 432 -494 512 -427 618 -427 c 0
 724 -427 798 -494 798 -589 c 0
 798 -713 679 -827 534 -935 c 1xe050
EndSplineSet
Validated: 1
Ligature2: "'liga' Standard Ligatures in Latin lookup 0 per glyph data 4" plus four two
EndChar

StartChar: sevensix
Encoding: 147 147 73
Width: 430
GlyphClass: 3
Flags: MW
HStem: -1024 34 -672 37 -465 34 127 74<155 168 168 308> 226 20G<72 102 102 102>
VStem: 19 94<-840.5 -805 -805 -768 -866.5 -673> 72 30<246 246> 319 94<-878 -775>
LayerCount: 2
Fore
SplineSet
413 -822 m 0xe5
 413 -934 324 -1024 214 -1024 c 0
 99 -1024 19 -917 19 -764 c 0
 19 -582 126 -432 257 -432 c 0
 329 -432 386 -465 386 -508 c 0
 386 -532 371 -547 346 -547 c 0
 288 -547 311 -465 235 -465 c 0
 166 -465 114 -567 114 -702 c 1
 116 -703 l 1
 148 -657 185 -636 235 -636 c 0
 336 -636 413 -716 413 -822 c 0xe5
113 -768 m 1
 113 -805 l 2
 113 -928 149 -991 217 -991 c 0
 286 -991 319 -937 319 -825 c 0
 319 -725 287 -672 225 -672 c 0
 179 -672 146 -701 113 -768 c 1
206 -69 m 2x1a
 308 127 l 1
 168 127 l 2
 90 127 80 120 59 65 c 2
 48 36 l 1
 19 36 l 1
 72 246 l 1
 102 246 l 1
 100 241 98 230 98 223 c 0
 98 206 109 201 155 201 c 2
 375 201 l 1
 375 186 l 1
 275 -38 255 -90 185 -275 c 0
 151 -364 132 -384 107 -384 c 0
 89 -384 75 -367 75 -353 c 0
 75 -328 82 -307 206 -69 c 2x1a
EndSplineSet
Validated: 1
Ligature2: "'liga' Standard Ligatures in Latin lookup 0 per glyph data 4" seven six
EndChar

StartChar: sevenflatsix
Encoding: 148 148 74
Width: 721
GlyphClass: 3
LigCaretCntFixed: 1
Flags: MW
HStem: -1029 21G<-248 -242> -1024 34 -765 47<-177.5 -127.5> -672 37 -465 34 127 74<158 170 170 310> 226 20G<74 104 104 104>
VStem: -265 36 -127 71<-834.5 -823> 21 94<-840.5 -805 -805 -768 -866.5 -673> 74 30<246 246> 321 94<-878 -775>
LayerCount: 2
Fore
SplineSet
-224 -828 m 2xa180
 -224 -905 l 2
 -224 -932 -223 -954 -220 -971 c 1
 -199 -953 -183 -939 -174 -930 c 0
 -163 -919 -152 -904 -142 -886 c 0
 -132 -868 -127 -850 -127 -832 c 0
 -127 -814 -131 -798 -139 -785 c 0
 -147 -772 -157 -765 -170 -765 c 0
 -185 -765 -198 -771 -209 -783 c 0
 -219 -796 -224 -811 -224 -828 c 2xa180
-265 -1007 m 2
 -270 -410 l 1
 -261 -405 -260 -404 -251 -404 c 2
 -251 -404 -238 -404 -229 -409 c 1
 -229 -759 l 1
 -202 -736 -175 -718 -140 -718 c 0
 -115 -718 -89 -721 -72 -742 c 0
 -55 -763 -56 -799 -56 -826 c 0
 -56 -843 -60 -861 -72 -880 c 0
 -83 -897 -94 -911 -105 -921 c 0
 -112 -926 -123 -939 -150 -959 c 0
 -158 -965 -167 -971 -178 -979 c 0
 -189 -987 -195 -992 -198 -994 c 0
 -203 -997 -207 -1002 -213 -1008 c 0
 -220 -1014 -224 -1019 -229 -1024 c 0
 -234 -1028 -239 -1029 -245 -1029 c 0
 -251 -1029 -253 -1029 -258 -1025 c 0
 -263 -1021 -265 -1015 -265 -1007 c 2
415 -822 m 0x5850
 415 -934 326 -1024 216 -1024 c 0
 101 -1024 21 -917 21 -764 c 0
 21 -582 128 -432 259 -432 c 0
 331 -432 388 -465 388 -508 c 0
 388 -532 373 -547 348 -547 c 0
 290 -547 313 -465 237 -465 c 0
 168 -465 116 -567 116 -702 c 1
 118 -703 l 1
 150 -657 187 -636 237 -636 c 0
 338 -636 415 -716 415 -822 c 0x5850
115 -768 m 1
 115 -805 l 2
 115 -928 151 -991 219 -991 c 0
 288 -991 321 -937 321 -825 c 0
 321 -725 288 -672 226 -672 c 0
 180 -672 148 -701 115 -768 c 1
208 -69 m 2x0620
 310 127 l 1
 170 127 l 2
 92 127 82 120 61 65 c 2
 49 36 l 1
 21 36 l 1
 74 246 l 1
 104 246 l 1
 102 241 101 230 101 223 c 0
 101 206 112 201 158 201 c 2
 377 201 l 1
 377 186 l 1
 277 -38 257 -90 187 -275 c 0
 153 -364 134 -384 109 -384 c 0
 91 -384 76 -367 76 -353 c 0
 76 -328 84 -307 208 -69 c 2x0620
EndSplineSet
Validated: 33
Ligature2: "'liga' Standard Ligatures in Latin lookup 0 per glyph data 4" seven f six
LCarets2: 2 285 468
EndChar

StartChar: sevenfive
Encoding: 149 149 75
Width: 430
GlyphClass: 3
Flags: MW
HStem: -1023 33<115.5 199 113 220> -669 32<207.5 235.5> -520 76<179 281 238.5 245> 127 74<155 168 168 308> 226 20G<72 102 102 102>
VStem: 72 30<246 246> 89 35 284 93<-852.5 -761 -869.5 -750.5>
LayerCount: 2
Fore
SplineSet
179 -520 m 1xe3
 144 -654 l 1
 145 -656 l 1
 160 -645 193 -637 222 -637 c 0
 310 -637 377 -712 377 -810 c 0
 377 -929 282 -1023 158 -1023 c 0
 73 -1023 12 -980 12 -920 c 0
 12 -893 25 -877 48 -877 c 0
 110 -877 66 -990 160 -990 c 0
 238 -990 284 -912 284 -793 c 0
 284 -708 263 -669 208 -669 c 0
 167 -669 140 -691 124 -740 c 0
 118 -758 114 -761 106 -761 c 0
 96 -761 89 -755 89 -746 c 0
 89 -744 89 -742 90 -740 c 2
 170 -431 l 1
 192 -440 219 -444 258 -444 c 0
 304 -444 339 -439 358 -430 c 1
 362 -431 l 1
 350 -488 307 -520 245 -520 c 2
 179 -520 l 1xe3
206 -69 m 2x1c
 308 127 l 1
 168 127 l 2
 90 127 80 120 59 65 c 2
 48 36 l 1
 19 36 l 1
 72 246 l 1
 102 246 l 1
 100 241 98 230 98 223 c 0
 98 206 109 201 155 201 c 2
 375 201 l 1
 375 186 l 1
 275 -38 255 -90 185 -275 c 0
 151 -364 132 -384 107 -384 c 0
 89 -384 75 -367 75 -353 c 0
 75 -328 82 -307 206 -69 c 2x1c
EndSplineSet
Validated: 1
Ligature2: "'liga' Standard Ligatures in Latin lookup 0 per glyph data 4" seven five
EndChar

StartChar: oblique
Encoding: 150 150 76
Width: 828
GlyphClass: 2
Flags: MW
HStem: -322 269
LayerCount: 2
Fore
SplineSet
828 -126 m 1
 0 -282 l 1
 0 -209 l 1
 828 -53 l 1
 828 -126 l 1
EndSplineSet
Validated: 1
EndChar

StartChar: Tfirst
Encoding: 152 152 77
Width: 802
GlyphClass: 3
Flags: MW
HStem: -350 34<993 1061.5 993 1079> 0 38<212 590 212 212> 2 37 208 34<1010.5 1083> 727 43<192 286.5 524.5 632>
VStem: 21 37<579 770> 342 119<161 696> 745 41<579 579> 829 94<-166.5 -131 -131 -94 -192.5 1> 1129 94<-204 -102>
LayerCount: 2
Fore
SplineSet
1223 -148 m 0xb0c0
 1223 -260 1134 -350 1024 -350 c 0
 909 -350 829 -243 829 -90 c 0
 829 92 936 242 1067 242 c 0
 1139 242 1196 209 1196 166 c 0
 1196 142 1181 127 1156 127 c 0
 1098 127 1121 208 1045 208 c 0
 976 208 924 107 924 -28 c 1
 926 -29 l 1
 958 17 995 38 1045 38 c 0
 1146 38 1223 -42 1223 -148 c 0xb0c0
923 -94 m 1
 923 -131 l 2
 923 -254 959 -316 1027 -316 c 0
 1096 -316 1129 -264 1129 -152 c 0
 1129 -52 1097 2 1035 2 c 0
 989 2 956 -27 923 -94 c 1
776 770 m 1x4f
 786 579 l 1
 745 579 l 1
 736 695 690 727 574 727 c 0
 475 727 461 719 461 696 c 2
 461 161 l 2
 461 75 477 42 590 38 c 1
 590 0 l 1
 212 0 l 1
 212 38 l 1
 325 42 342 75 342 161 c 2
 342 696 l 2
 342 719 329 727 244 727 c 0
 140 727 62 721 58 579 c 1
 21 579 l 1
 21 770 l 1
 776 770 l 1x4f
EndSplineSet
Validated: 1
Ligature2: "'liga' Standard Ligatures in Latin lookup 0 per glyph data 2" T T
EndChar

StartChar: Tsecond
Encoding: 153 153 78
Width: 802
GlyphClass: 3
Flags: MW
HStem: -1011 28 -876 38 -350 34<993 1061.5 993 1079> 0 38<212 590 212 212> 2 37 208 34<1010.5 1083> 727 43<192 286.5 524.5 632>
VStem: 21 37<579 770> 342 119<161 696> 745 41<579 579> 829 94<-166.5 -131 -131 -94 -192.5 1> 1047 74 1129 94<-204 -102> 1190 26<-939 -911.5 -801 -772>
LayerCount: 2
Fore
SplineSet
833 -876 m 1xc014
 833 -839 l 1
 1097 -425 l 1
 1120 -425 l 1
 1120 -840 l 1
 1182 -838 1190 -830 1190 -772 c 1
 1216 -772 l 1
 1216 -939 l 1
 1190 -939 l 1
 1190 -884 1182 -875 1120 -873 c 1
 1120 -889 l 2
 1120 -966 1130 -982 1179 -982 c 1
 1179 -1011 l 1
 969 -1011 l 1
 969 -982 l 1
 1035 -982 1047 -965 1047 -894 c 2
 1047 -876 l 1
 833 -876 l 1xc014
1047 -839 m 1
 1047 -572 l 1
 1043 -572 l 1
 871 -839 l 1
 1047 -839 l 1
1223 -148 m 0x2c28
 1223 -260 1134 -350 1024 -350 c 0
 909 -350 829 -243 829 -90 c 0
 829 92 936 242 1067 242 c 0
 1139 242 1196 209 1196 166 c 0
 1196 142 1181 127 1156 127 c 0
 1098 127 1121 208 1045 208 c 0
 976 208 924 107 924 -28 c 1
 926 -29 l 1
 958 17 995 38 1045 38 c 0
 1146 38 1223 -42 1223 -148 c 0x2c28
923 -94 m 1
 923 -131 l 2
 923 -254 959 -316 1027 -316 c 0
 1096 -316 1129 -264 1129 -152 c 0
 1129 -52 1097 2 1035 2 c 0
 989 2 956 -27 923 -94 c 1
776 770 m 1x13c0
 786 579 l 1
 745 579 l 1
 736 695 690 727 574 727 c 0
 475 727 461 719 461 696 c 2
 461 161 l 2
 461 75 477 42 590 38 c 1
 590 0 l 1
 212 0 l 1
 212 38 l 1
 325 42 342 75 342 161 c 2
 342 696 l 2
 342 719 329 727 244 727 c 0
 140 727 62 721 58 579 c 1
 21 579 l 1
 21 770 l 1
 776 770 l 1x13c0
EndSplineSet
Validated: 1
Ligature2: "'liga' Standard Ligatures in Latin lookup 0 per glyph data 2" T T T
EndChar

StartChar: t6
Encoding: 154 154 79
Width: 805
GlyphClass: 3
Flags: MW
HStem: -350 34<558 626.5 558 644> -10 49<219.5 248> 2 37 208 34<575.5 648> 467 47<177 311 177 311>
VStem: 79 98<116 163 163 467> 148 29<640 640> 394 94<-166.5 -131 -131 -94 -192.5 1> 694 94<-204 -102>
LayerCount: 2
Fore
SplineSet
788 -148 m 0xb180
 788 -260 699 -350 589 -350 c 0
 474 -350 394 -243 394 -90 c 0
 394 92 501 242 632 242 c 0
 704 242 761 209 761 166 c 0
 761 142 746 127 721 127 c 0
 663 127 686 208 610 208 c 0
 541 208 489 107 489 -28 c 1
 491 -29 l 1
 523 17 560 38 610 38 c 0
 711 38 788 -42 788 -148 c 0xb180
488 -94 m 1
 488 -131 l 2
 488 -254 524 -316 592 -316 c 0
 661 -316 694 -264 694 -152 c 0
 694 -52 662 2 600 2 c 0
 554 2 521 -27 488 -94 c 1
79 467 m 1x4c
 19 467 l 1
 19 504 l 1
 90 546 127 583 148 640 c 1
 177 640 l 1
 177 514 l 1x4a
 311 514 l 1
 311 467 l 1
 177 467 l 1
 177 163 l 2
 177 69 193 39 246 39 c 0
 279 39 301 52 323 85 c 1
 348 66 l 1
 329 17 282 -10 214 -10 c 0
 126 -10 79 34 79 112 c 2
 79 467 l 1x4c
EndSplineSet
Validated: 1
Ligature2: "'liga' Standard Ligatures in Latin lookup 0 per glyph data 2" t t
EndChar

StartChar: t64
Encoding: 155 155 80
Width: 805
GlyphClass: 3
Flags: MW
HStem: -1011 28 -876 38 -350 34<558 626.5 558 644> -10 49<219.5 248> 2 37 127 21G<692 733.5> 208 34<575.5 648> 467 47<177 311 177 311>
VStem: 79 98<116 163 163 467> 148 29<640 640> 394 94<-166.5 -131 -131 -94 -192.5 1> 608 74 694 94<-204 -102> 751 26<-939 -911.5 -801 -772>
LayerCount: 2
Fore
SplineSet
394 -876 m 1xee34
 394 -839 l 1
 658 -425 l 1
 681 -426 l 1
 681 -840 l 1
 743 -838 751 -830 751 -772 c 1
 777 -772 l 1
 777 -939 l 1
 751 -939 l 1
 751 -884 743 -875 681 -873 c 1
 681 -889 l 2
 681 -966 691 -982 740 -982 c 1
 740 -1011 l 1
 530 -1011 l 1
 530 -982 l 1
 596 -982 608 -965 608 -894 c 2
 608 -876 l 1
 394 -876 l 1xee34
608 -839 m 1
 608 -572 l 1
 604 -572 l 1
 431 -839 l 1
 608 -839 l 1
788 -148 m 0xee38
 788 -260 699 -350 589 -350 c 0
 474 -350 394 -243 394 -90 c 0
 394 92 501 242 632 242 c 0
 704 242 761 209 761 166 c 0
 761 142 746 127 721 127 c 0
 663 127 686 208 610 208 c 0
 541 208 489 107 489 -28 c 1
 491 -29 l 1
 523 17 560 38 610 38 c 0
 711 38 788 -42 788 -148 c 0xee38
488 -94 m 1
 488 -131 l 2
 488 -254 524 -316 592 -316 c 0
 661 -316 694 -264 694 -152 c 0
 694 -52 662 2 600 2 c 0
 554 2 521 -27 488 -94 c 1
79 467 m 1x1180
 19 467 l 1
 19 504 l 1
 90 546 127 583 148 640 c 1
 177 640 l 1
 177 514 l 1x1140
 311 514 l 1
 311 467 l 1
 177 467 l 1
 177 163 l 2
 177 69 193 39 246 39 c 0
 279 39 301 52 323 85 c 1
 348 66 l 1
 329 17 282 -10 214 -10 c 0
 126 -10 79 34 79 112 c 2
 79 467 l 1x1180
EndSplineSet
Validated: 1
Ligature2: "'liga' Standard Ligatures in Latin lookup 0 per glyph data 2" t t t
EndChar

StartChar: fivefour
Encoding: 156 156 81
Width: 430
GlyphClass: 3
Flags: MW
HStem: -1011 28 -876 38 -350 33<122.5 206 120 227> 4 32<214.5 242.5> 153 76<186 288 245.5 252>
VStem: 96 35 233 74 291 93<-179.5 -88 -196.5 -77.5> 376 26<-939 -911.5 -801 -772>
LayerCount: 2
Fore
SplineSet
19 -876 m 1xc280
 19 -839 l 1
 283 -425 l 1
 306 -425 l 1
 306 -840 l 1
 368 -838 376 -830 376 -772 c 1
 402 -772 l 1
 402 -939 l 1
 376 -939 l 1
 376 -884 368 -875 306 -873 c 1
 306 -889 l 2
 306 -966 316 -982 365 -982 c 1
 365 -1011 l 1
 155 -1011 l 1
 155 -982 l 1
 221 -982 233 -965 233 -894 c 2
 233 -876 l 1
 19 -876 l 1xc280
233 -839 m 1
 233 -572 l 1
 229 -572 l 1
 56 -839 l 1
 233 -839 l 1
186 153 m 1x3d
 151 19 l 1
 152 17 l 1
 167 28 200 36 229 36 c 0
 317 36 384 -39 384 -137 c 0
 384 -256 289 -350 165 -350 c 0
 80 -350 19 -307 19 -247 c 0
 19 -220 32 -204 55 -204 c 0
 117 -204 73 -317 167 -317 c 0
 245 -317 291 -239 291 -120 c 0
 291 -35 270 4 215 4 c 0
 174 4 147 -18 131 -67 c 0
 125 -85 121 -88 113 -88 c 0
 103 -88 96 -82 96 -73 c 0
 96 -71 96 -69 97 -67 c 2
 177 242 l 1
 199 233 226 229 265 229 c 0
 311 229 346 234 365 243 c 1
 369 242 l 1
 357 185 314 153 252 153 c 2
 186 153 l 1x3d
EndSplineSet
Validated: 1
Ligature2: "'liga' Standard Ligatures in Latin lookup 0 per glyph data 4" five four
EndChar

StartChar: threetwo
Encoding: 157 157 82
Width: 430
GlyphClass: 3
Flags: MW
HStem: -1009 74 -692 40<94.5 181> -459 35<170.5 231> -350 35<168 231 168 255.5> -155 33<80.5 163> -52 25<206 227.5 201 236.5> 57 28<95 170> 210 32<175 231>
VStem: 19 79<-254.5 -207.5> 26 73 41 75<125 163 125 168> 290 90<75 140.5> 302 90<-637.5 -546.5> 302 95<-224.5 -150 -234.5 -141> 368 28<-850 -850>
LayerCount: 2
Fore
SplineSet
128 -932 m 1xe048
 128 -936 l 1
 278 -936 l 2
 326 -936 347 -921 368 -850 c 1
 396 -850 l 1xe042
 368 -1009 l 1
 19 -1009 l 1
 19 -985 l 1
 248 -781 302 -690 302 -585 c 0
 302 -508 262 -459 200 -459 c 0
 141 -459 98 -502 98 -564 c 0
 98 -618 131 -652 181 -652 c 1
 176 -676 153 -692 122 -692 c 0
 67 -692 26 -645 26 -580 c 0
 26 -491 106 -424 212 -424 c 0
 318 -424 392 -491 392 -586 c 0
 392 -710 273 -824 128 -932 c 1xe048
302 -182 m 0x1f84
 302 -100 267 -52 206 -52 c 1
 191 -60 171 -65 156 -65 c 0
 136 -65 122 -55 122 -40 c 0
 122 -26 135 -19 155 -19 c 0
 168 -19 186 -22 201 -27 c 1
 254 -27 290 26 290 105 c 0
 290 176 261 210 201 210 c 0
 149 210 116 184 116 142 c 0
 116 108 138 85 170 85 c 1
 165 69 143 57 117 57 c 0
 73 57 41 91 41 136 c 0
 41 200 105 242 201 242 c 0
 309 242 380 189 380 109 c 0x1f30
 380 41 329 -14 267 -30 c 1
 267 -35 l 1
 342 -54 397 -112 397 -188 c 0
 397 -281 313 -350 198 -350 c 0
 94 -350 19 -294 19 -218 c 0
 19 -164 56 -122 105 -122 c 0
 133 -122 158 -136 163 -155 c 1
 125 -155 98 -186 98 -229 c 0
 98 -280 139 -315 197 -315 c 0
 265 -315 302 -267 302 -182 c 0x1f84
EndSplineSet
Validated: 1
Ligature2: "'liga' Standard Ligatures in Latin lookup 0 per glyph data 4" three two
EndChar

StartChar: fiveD64
Encoding: 158 158 83
Width: 1467
GlyphClass: 3
Flags: MW
HStem: -1011 28 -876 38 -350 34<1015 1083.5 1015 1101> 2 37 208 34<1032.5 1105> 525 28 525 37<1100 1151> 731 39<19 345 308 345> 1066 37<1036 1040 1040 1135> 1074 28
VStem: 851 94<-166.5 -131 -131 -94 -192.5 1> 948 79<639 648 648 989 989 1024> 1073 74 1151 94<-204 -102> 1216 26<-939 -911.5 -801 -772> 1351 98
LayerCount: 2
Fore
SplineSet
859 -876 m 1xc00a
 859 -839 l 1
 1123 -425 l 1
 1146 -425 l 1
 1146 -840 l 1
 1208 -838 1216 -830 1216 -772 c 1
 1242 -772 l 1
 1242 -939 l 1
 1216 -939 l 1
 1216 -884 1208 -875 1146 -873 c 1
 1146 -889 l 2
 1146 -966 1156 -982 1205 -982 c 1
 1205 -1011 l 1
 995 -1011 l 1
 995 -982 l 1
 1061 -982 1073 -965 1073 -894 c 2
 1073 -876 l 1
 859 -876 l 1xc00a
1073 -839 m 1
 1073 -572 l 1
 1069 -572 l 1
 896 -839 l 1
 1073 -839 l 1
1245 -148 m 0x3824
 1245 -260 1156 -350 1046 -350 c 0
 931 -350 851 -243 851 -90 c 0
 851 92 958 242 1089 242 c 0
 1161 242 1218 209 1218 166 c 0
 1218 142 1203 127 1178 127 c 0
 1120 127 1143 208 1067 208 c 0
 998 208 946 107 946 -28 c 1
 948 -29 l 1
 980 17 1017 38 1067 38 c 0
 1168 38 1245 -42 1245 -148 c 0x3824
945 -94 m 1
 945 -131 l 2
 945 -254 981 -316 1049 -316 c 0
 1118 -316 1151 -264 1151 -152 c 0
 1151 -52 1119 2 1057 2 c 0
 1011 2 978 -27 945 -94 c 1
1151 525 m 2x0291
 858 525 l 1
 858 554 l 1
 934 556 948 568 948 639 c 2
 948 989 l 2
 948 1059 938 1071 873 1074 c 1
 873 1103 l 1x0451
 1136 1103 l 2
 1317 1103 1448 976 1448 804 c 0
 1448 640 1326 525 1151 525 c 2x0291
1135 1066 m 2x0291
 1040 1066 l 2
 1032 1066 1027 1061 1027 1053 c 2
 1027 648 l 2
 1027 590 1062 562 1138 562 c 0
 1274 562 1351 645 1351 803 c 0
 1351 969 1269 1066 1135 1066 c 2x0291
278 603 m 2x01
 456 153 l 1
 632 587 l 2
 652 636 659 661 659 683 c 0
 659 719 640 732 581 732 c 1
 581 770 l 1
 824 770 l 1
 824 732 l 1
 763 725 738 707 715 651 c 2
 444 -10 l 1
 409 -10 l 1
 151 613 l 2
 117 694 89 727 19 731 c 1
 19 770 l 1
 345 770 l 1
 345 731 l 1
 271 731 254 717 254 689 c 0
 254 670 260 649 278 603 c 2x01
EndSplineSet
Validated: 1
Ligature2: "'liga' Standard Ligatures in Latin lookup 0 per glyph data 2" R R R
EndChar

StartChar: fiveD7
Encoding: 159 159 84
Width: 1467
GlyphClass: 3
Flags: MW
HStem: 127 74<985 998 998 1138> 226 20G<902 932 932 932> 525 28 525 37<1100 1151> 731 39<19 345 308 345> 1066 37<1036 1040 1040 1135> 1074 28
VStem: 902 30<246 246> 948 79<639 648 648 989 989 1024> 1351 98
LayerCount: 2
Fore
SplineSet
1036 -69 m 2xc1
 1138 127 l 1
 998 127 l 2
 920 127 910 120 889 65 c 2
 878 36 l 1
 849 36 l 1
 902 246 l 1
 932 246 l 1
 930 241 928 230 928 223 c 0
 928 206 939 201 985 201 c 2
 1205 201 l 1
 1205 186 l 1
 1105 -38 1085 -90 1015 -275 c 0
 981 -364 962 -384 937 -384 c 0
 919 -384 905 -367 905 -353 c 0
 905 -328 912 -307 1036 -69 c 2xc1
1151 525 m 2x14c0
 858 525 l 1
 858 554 l 1
 934 556 948 568 948 639 c 2
 948 989 l 2
 948 1059 938 1071 873 1074 c 1
 873 1103 l 1x22c0
 1136 1103 l 2
 1317 1103 1448 976 1448 804 c 0
 1448 640 1326 525 1151 525 c 2x14c0
1135 1066 m 2x14c0
 1040 1066 l 2
 1032 1066 1027 1061 1027 1053 c 2
 1027 648 l 2
 1027 590 1062 562 1138 562 c 0
 1274 562 1351 645 1351 803 c 0
 1351 969 1269 1066 1135 1066 c 2x14c0
278 603 m 2x08
 456 153 l 1
 632 587 l 2
 652 636 659 661 659 683 c 0
 659 719 640 732 581 732 c 1
 581 770 l 1
 824 770 l 1
 824 732 l 1
 763 725 738 707 715 651 c 2
 444 -10 l 1
 409 -10 l 1
 151 613 l 2
 117 694 89 727 19 731 c 1
 19 770 l 1
 345 770 l 1
 345 731 l 1
 271 731 254 717 254 689 c 0
 254 670 260 649 278 603 c 2x08
EndSplineSet
Validated: 1
Ligature2: "'liga' Standard Ligatures in Latin lookup 0 per glyph data 2" R R R R
EndChar

StartChar: two6
Encoding: 160 160 85
Width: 1562
GlyphClass: 3
Flags: MW
HStem: -350 34<975 1043.5 975 1061> 0 38<19 343 19 19> 2 37 208 34<992.5 1065> 520 31<923.5 956 910 980> 528 25 732 38<29 333 29 333> 902 31 1099 22
VStem: 129 105<182 189 189 581> 499 105<182 189 189 581> 811 19<528 656 656 656> 811 94<-166.5 -131 -131 -94 -192.5 1> 813 62<834.5 851> 1001 67<598.5 624.5> 1015 19<817 925> 1091 85<678 781.5 678 786> 1111 94<-204 -102> 1404 74
LayerCount: 2
Fore
SplineSet
1205 -148 m 0xb00840
 1205 -260 1116 -350 1006 -350 c 0
 891 -350 811 -243 811 -90 c 0
 811 92 918 242 1049 242 c 0
 1121 242 1178 209 1178 166 c 0
 1178 142 1163 127 1138 127 c 0
 1080 127 1103 208 1027 208 c 0
 958 208 906 107 906 -28 c 1
 908 -29 l 1
 940 17 977 38 1027 38 c 0
 1128 38 1205 -42 1205 -148 c 0xb00840
905 -94 m 1
 905 -131 l 2
 905 -254 941 -316 1009 -316 c 0
 1078 -316 1111 -264 1111 -152 c 0
 1111 -52 1079 2 1017 2 c 0
 971 2 938 -27 905 -94 c 1
1418 520 m 1x0980a0
 1418 591 l 1
 1415 591 l 1
 1379 541 1342 520 1287 520 c 0x0980a0
 1174 520 1091 606 1091 727 c 0
 1091 845 1175 932 1287 932 c 0
 1334 932 1370 917 1405 882 c 1
 1405 959 l 2
 1405 1015 1404 1055 1401 1069 c 0
 1396 1091 1375 1099 1323 1099 c 1
 1323 1122 l 1
 1477 1150 l 1
 1477 717 l 2
 1477 648 1477 604 1482 585 c 0
 1488 561 1497 554 1543 554 c 1
 1543 528 l 1x0580a0
 1418 520 l 1x0980a0
1404 707 m 2
 1404 756 l 2
 1404 808 1399 831 1383 851 c 0
 1361 881 1322 896 1287 896 c 0
 1216 896 1176 832 1176 731 c 0
 1176 625 1215 556 1287 556 c 0
 1322 556 1365 573 1384 603 c 0
 1398 625 1404 653 1404 707 c 2
842 554 m 1x0586a0
 828 528 l 1
 811 528 l 1
 811 656 l 1
 830 656 l 1
 849 585 884 551 936 551 c 0
 976 551 1001 570 1001 610 c 0x0992a0
 1001 639 988 648 914 694 c 0
 846 737 813 761 813 817 c 0
 813 885 862 932 925 932 c 0
 952 932 983 923 1005 909 c 1
 1020 925 l 1
 1034 925 l 1
 1034 817 l 1
 1015 817 l 1x0985a0
 993 878 969 902 931 902 c 0
 897 902 875 883 875 851 c 0
 875 818 897 803 948 771 c 0
 1034 717 1068 691 1068 634 c 0
 1068 563 1017 520 943 520 c 0x0986a0
 904 520 869 532 842 554 c 1x0586a0
604 581 m 2x4220
 604 189 l 2
 604 57 619 41 713 38 c 1
 713 0 l 1
 389 0 l 1
 389 38 l 1
 483 41 499 58 499 182 c 2
 499 588 l 2
 499 701 485 728 399 732 c 1
 399 770 l 1
 703 770 l 1
 703 732 l 1
 617 729 604 702 604 581 c 2x4220
234 581 m 2x4240
 234 189 l 2
 234 57 249 41 343 38 c 1
 343 0 l 1
 19 0 l 1
 19 38 l 1
 113 41 129 58 129 182 c 2
 129 588 l 2
 129 701 115 728 29 732 c 1
 29 770 l 1
 333 770 l 1
 333 732 l 1
 247 729 234 702 234 581 c 2x4240
EndSplineSet
Validated: 1
Ligature2: "'liga' Standard Ligatures in Latin lookup 0 per glyph data 2" q q
Ligature2: "'liga' Standard Ligatures in Latin lookup 0 per glyph data 2" Q Q
EndChar

StartChar: three6
Encoding: 161 161 86
Width: 1654
GlyphClass: 3
Flags: MW
HStem: -350 34<1348 1416.5 1348 1434> 0 38<19 343 19 19> 2 37 208 34<1365.5 1438> 526 36<1342 1395.5 1342 1405.5> 534 25 732 38<29 333 29 333> 902 36<1342.5 1395.5> 1105 22
VStem: 129 105<182 189 189 581> 488 105<182 189 189 581> 847 105<182 189 189 581> 1183 85<684 787.5 684 792> 1184 94<-166.5 -131 -131 -94 -192.5 1> 1484 94<-204 -102> 1496 72
LayerCount: 2
Fore
SplineSet
1578 -148 m 0xb006
 1578 -260 1489 -350 1379 -350 c 0
 1264 -350 1184 -243 1184 -90 c 0
 1184 92 1291 242 1422 242 c 0
 1494 242 1551 209 1551 166 c 0
 1551 142 1536 127 1511 127 c 0
 1453 127 1476 208 1400 208 c 0
 1331 208 1279 107 1279 -28 c 1
 1281 -29 l 1
 1313 17 1350 38 1400 38 c 0
 1501 38 1578 -42 1578 -148 c 0xb006
1278 -94 m 1
 1278 -131 l 2
 1278 -254 1314 -316 1382 -316 c 0
 1451 -316 1484 -264 1484 -152 c 0
 1484 -52 1452 2 1390 2 c 0
 1344 2 1311 -27 1278 -94 c 1
1510 526 m 1x0989
 1510 596 l 1
 1507 596 l 1
 1471 546 1433 526 1378 526 c 0x0989
 1265 526 1183 612 1183 733 c 0
 1183 851 1266 938 1378 938 c 0
 1425 938 1461 923 1496 888 c 1
 1496 965 l 2
 1496 1021 1495 1061 1492 1075 c 0
 1487 1097 1467 1105 1415 1105 c 1
 1415 1128 l 1
 1569 1156 l 1
 1569 723 l 2
 1569 654 1569 610 1574 591 c 0
 1580 567 1589 560 1635 560 c 1
 1635 534 l 1x0589
 1510 526 l 1x0989
1495 713 m 2
 1495 762 l 2
 1495 814 1491 837 1475 857 c 0
 1453 887 1413 902 1378 902 c 0
 1307 902 1268 838 1268 737 c 0
 1268 631 1306 562 1378 562 c 0
 1413 562 1457 579 1476 609 c 0
 1490 631 1495 659 1495 713 c 2
593 581 m 2x4220
 593 189 l 2
 593 57 608 41 702 38 c 1
 702 0 l 1
 378 0 l 1
 378 38 l 1
 472 41 488 58 488 182 c 2
 488 588 l 2
 488 701 474 728 388 732 c 1
 388 770 l 1
 692 770 l 1
 692 732 l 1
 606 729 593 702 593 581 c 2x4220
952 581 m 2x4210
 952 189 l 2
 952 57 967 41 1061 38 c 1
 1061 0 l 1
 737 0 l 1
 737 38 l 1
 831 41 847 58 847 182 c 2
 847 588 l 2
 847 701 833 728 747 732 c 1
 747 770 l 1
 1051 770 l 1
 1051 732 l 1
 965 729 952 702 952 581 c 2x4210
234 581 m 2x4240
 234 189 l 2
 234 57 249 41 343 38 c 1
 343 0 l 1
 19 0 l 1
 19 38 l 1
 113 41 129 58 129 182 c 2
 129 588 l 2
 129 701 115 728 29 732 c 1
 29 770 l 1
 333 770 l 1
 333 732 l 1
 247 729 234 702 234 581 c 2x4240
EndSplineSet
Validated: 1
Ligature2: "'liga' Standard Ligatures in Latin lookup 0 per glyph data 2" W W
EndChar

StartChar: four6
Encoding: 162 162 87
Width: 2211
GlyphClass: 3
Flags: MW
HStem: -350 34<1393 1461.5 1393 1479> 0 38<19 343 19 19> 2 37 208 34<1410.5 1483> 518 38<1386.5 1454 1372 1475.5> 525 28 525 37<1844 1895> 731 39<29 364 653 690> 732 38<29 333 29 333 926 955.5> 1066 37<1779 1783 1783 1878> 1072 38<1382.5 1433 1362 1445> 1074 28
VStem: 129 105<182 189 189 581> 1219 28<702 702> 1229 94<-166.5 -131 -131 -94 -192.5 1> 1243 71 1529 94<-204 -102> 1537 82<637.5 679.5> 1548 28 1692 79 2094 98<724 886>
LayerCount: 2
Fore
SplineSet
1623 -148 m 0xb00280
 1623 -260 1534 -350 1424 -350 c 0
 1309 -350 1229 -243 1229 -90 c 0
 1229 92 1336 242 1467 242 c 0
 1539 242 1596 209 1596 166 c 0
 1596 142 1581 127 1556 127 c 0
 1498 127 1521 208 1445 208 c 0
 1376 208 1324 107 1324 -28 c 1
 1326 -29 l 1
 1358 17 1395 38 1445 38 c 0
 1546 38 1623 -42 1623 -148 c 0xb00280
1323 -94 m 1
 1323 -131 l 2
 1323 -254 1359 -316 1427 -316 c 0
 1496 -316 1529 -264 1529 -152 c 0
 1529 -52 1497 2 1435 2 c 0
 1389 2 1356 -27 1323 -94 c 1
1895 525 m 2x024018
 1602 525 l 1
 1602 554 l 1
 1678 556 1692 568 1692 639 c 2
 1692 989 l 2
 1692 1059 1681 1071 1616 1074 c 1
 1616 1103 l 1x041018
 1880 1103 l 2
 2061 1103 2192 976 2192 804 c 0
 2192 640 2070 525 1895 525 c 2x024018
1878 1066 m 2x024018
 1783 1066 l 2
 1775 1066 1770 1061 1770 1053 c 2
 1770 648 l 2
 1770 590 1806 562 1882 562 c 0
 2018 562 2094 645 2094 803 c 0
 2094 969 2012 1066 1878 1066 c 2x024018
1230 534 m 1
 1219 702 l 1
 1247 702 l 1x082458
 1261 611 1327 556 1417 556 c 0
 1491 556 1537 595 1537 654 c 0
 1537 705 1507 734 1406 778 c 0
 1281 833 1243 874 1243 951 c 0
 1243 1044 1313 1110 1411 1110 c 0x082158
 1455 1110 1491 1097 1530 1066 c 1
 1550 1100 l 1
 1567 1100 l 1
 1575 951 l 1
 1548 951 l 1x004138
 1524 1033 1477 1072 1413 1072 c 0
 1352 1072 1313 1039 1313 989 c 0
 1313 942 1343 913 1428 875 c 0
 1576 808 1619 767 1619 688 c 0
 1619 587 1536 518 1415 518 c 0x082158
 1358 518 1315 532 1269 570 c 1
 1248 534 l 1
 1230 534 l 1
623 603 m 2x01
 801 153 l 1
 977 587 l 2
 997 636 1004 661 1004 683 c 0
 1004 719 985 732 926 732 c 1
 926 770 l 1
 1169 770 l 1
 1169 732 l 1
 1108 725 1083 707 1060 651 c 2
 789 -10 l 1
 754 -10 l 1
 496 613 l 2
 462 694 434 727 364 731 c 1
 364 770 l 1
 690 770 l 1
 690 731 l 1
 616 731 599 717 599 689 c 0
 599 670 605 649 623 603 c 2x01
234 581 m 2x4088
 234 189 l 2
 234 57 249 41 343 38 c 1
 343 0 l 1
 19 0 l 1
 19 38 l 1
 113 41 129 58 129 182 c 2
 129 588 l 2
 129 701 115 728 29 732 c 1
 29 770 l 1
 333 770 l 1
 333 732 l 1
 247 729 234 702 234 581 c 2x4088
EndSplineSet
Validated: 1
Ligature2: "'liga' Standard Ligatures in Latin lookup 0 per glyph data 2" E E
EndChar

StartChar: five6
Encoding: 163 163 88
Width: 1467
GlyphClass: 3
Flags: MW
HStem: -350 34<1015 1083.5 1015 1101> 2 37 208 34<1032.5 1105> 525 28 525 37<1100 1151> 731 39<19 345 308 345> 1066 37<1036 1040 1040 1135> 1074 28
VStem: 851 94<-166.5 -131 -131 -94 -192.5 1> 948 79<639 648 648 989 989 1024> 1151 94<-204 -102> 1351 98
LayerCount: 2
Fore
SplineSet
1245 -148 m 0xe0a0
 1245 -260 1156 -350 1046 -350 c 0
 931 -350 851 -243 851 -90 c 0
 851 92 958 242 1089 242 c 0
 1161 242 1218 209 1218 166 c 0
 1218 142 1203 127 1178 127 c 0
 1120 127 1143 208 1067 208 c 0
 998 208 946 107 946 -28 c 1
 948 -29 l 1
 980 17 1017 38 1067 38 c 0
 1168 38 1245 -42 1245 -148 c 0xe0a0
945 -94 m 1
 945 -131 l 2
 945 -254 981 -316 1049 -316 c 0
 1118 -316 1151 -264 1151 -152 c 0
 1151 -52 1119 2 1057 2 c 0
 1011 2 978 -27 945 -94 c 1
1151 525 m 2x0a50
 858 525 l 1
 858 554 l 1
 934 556 948 568 948 639 c 2
 948 989 l 2
 948 1059 938 1071 873 1074 c 1
 873 1103 l 1x1150
 1136 1103 l 2
 1317 1103 1448 976 1448 804 c 0
 1448 640 1326 525 1151 525 c 2x0a50
1135 1066 m 2x0a50
 1040 1066 l 2
 1032 1066 1027 1061 1027 1053 c 2
 1027 648 l 2
 1027 590 1062 562 1138 562 c 0
 1274 562 1351 645 1351 803 c 0
 1351 969 1269 1066 1135 1066 c 2x0a50
278 603 m 2x04
 456 153 l 1
 632 587 l 2
 652 636 659 661 659 683 c 0
 659 719 640 732 581 732 c 1
 581 770 l 1
 824 770 l 1
 824 732 l 1
 763 725 738 707 715 651 c 2
 444 -10 l 1
 409 -10 l 1
 151 613 l 2
 117 694 89 727 19 731 c 1
 19 770 l 1
 345 770 l 1
 345 731 l 1
 271 731 254 717 254 689 c 0
 254 670 260 649 278 603 c 2x04
EndSplineSet
Validated: 1
Ligature2: "'liga' Standard Ligatures in Latin lookup 0 per glyph data 2" R R
EndChar

StartChar: sixth6
Encoding: 164 164 89
Width: 1985
GlyphClass: 3
Flags: MW
HStem: -350 34<1396 1464.5 1396 1482> -10 21G<409 444 409 409> 0 38<847 1171 847 847> 2 37 208 34<1413.5 1486> 520 31<1346.5 1379 1333 1403> 528 26<1234 1265> 732 38<581 610.5> 902 30<1337 1361.5 1316.5 1373> 1099 23<1746 1772> 1130 20G<1900 1900>
VStem: 957 105<182 189 189 581> 1232 94<-166.5 -131 -131 -94 -192.5 1> 1234 19<528 656 656 656> 1236 62<834.5 851> 1424 67<598.5 624.5> 1438 19<817 925> 1514 85<678 781.5> 1532 94<-204 -102> 1827 73<707 717 717 756 756 782>
LayerCount: 2
Fore
SplineSet
1841 520 m 1x8df050
 1841 591 l 1
 1838 591 l 1
 1802 541 1765 520 1710 520 c 0x8df050
 1597 520 1514 606 1514 727 c 0
 1514 845 1598 932 1710 932 c 0
 1757 932 1793 917 1828 882 c 1
 1828 959 l 2
 1828 1015 1827 1055 1824 1069 c 0
 1819 1091 1798 1099 1746 1099 c 1
 1746 1122 l 1
 1900 1150 l 1
 1900 717 l 2
 1900 648 1900 604 1905 585 c 0
 1911 561 1920 554 1966 554 c 1
 1966 528 l 1x8bf050
 1841 520 l 1x8df050
1827 707 m 2
 1827 756 l 2
 1827 808 1822 831 1806 851 c 0
 1784 881 1745 896 1710 896 c 0
 1639 896 1599 832 1599 731 c 0
 1599 625 1638 556 1710 556 c 0
 1745 556 1788 573 1807 603 c 0
 1821 625 1827 653 1827 707 c 2
1265 554 m 1x8bf310
 1251 528 l 1
 1234 528 l 1x8bf510
 1234 656 l 1
 1253 656 l 1
 1272 585 1307 551 1359 551 c 0
 1399 551 1424 570 1424 610 c 0x8df510
 1424 639 1411 648 1337 694 c 0
 1269 737 1236 761 1236 817 c 0
 1236 885 1285 932 1348 932 c 0
 1375 932 1406 923 1428 909 c 1
 1443 925 l 1
 1457 925 l 1
 1457 817 l 1
 1438 817 l 1x8df290
 1416 878 1392 902 1354 902 c 0
 1320 902 1298 883 1298 851 c 0
 1298 818 1320 803 1371 771 c 0
 1457 717 1491 691 1491 634 c 0
 1491 563 1440 520 1366 520 c 0x8df310
 1327 520 1292 532 1265 554 c 1x8bf310
1062 581 m 2
 1062 189 l 2
 1062 57 1077 41 1171 38 c 1
 1171 0 l 1
 847 0 l 1
 847 38 l 1xa9f010
 941 41 957 58 957 182 c 2
 957 588 l 2
 957 701 943 728 857 732 c 1
 857 770 l 1
 1161 770 l 1
 1161 732 l 1
 1075 729 1062 702 1062 581 c 2
278 603 m 2
 456 153 l 1
 632 587 l 2
 652 636 659 661 659 683 c 0
 659 719 640 732 581 732 c 1
 581 770 l 1
 824 770 l 1
 824 732 l 1
 763 725 738 707 715 651 c 2
 444 -10 l 1
 409 -10 l 1xc9f010
 151 613 l 2
 117 694 89 727 19 731 c 1
 19 770 l 1
 345 770 l 1
 345 731 l 1
 271 731 254 717 254 689 c 0
 254 670 260 649 278 603 c 2
1626 -148 m 0x980820
 1626 -260 1537 -350 1427 -350 c 0
 1312 -350 1232 -243 1232 -90 c 0
 1232 92 1339 242 1470 242 c 0
 1542 242 1599 209 1599 166 c 0
 1599 142 1584 127 1559 127 c 0
 1501 127 1524 208 1448 208 c 0
 1379 208 1327 107 1327 -28 c 1
 1329 -29 l 1
 1361 17 1398 38 1448 38 c 0
 1549 38 1626 -42 1626 -148 c 0x980820
1326 -94 m 1
 1326 -131 l 2
 1326 -254 1362 -316 1430 -316 c 0
 1499 -316 1532 -264 1532 -152 c 0
 1532 -52 1500 2 1438 2 c 0
 1392 2 1359 -27 1326 -94 c 1
EndSplineSet
Validated: 1
Ligature2: "'liga' Standard Ligatures in Latin lookup 0 per glyph data 2" Y Y
EndChar

StartChar: seven6
Encoding: 165 165 90
Width: 2040
GlyphClass: 3
Flags: MW
HStem: -350 34<1733 1801.5 1733 1819> 0 38<857 1181 857 857> 2 37 208 34<1750.5 1823> 526 36<1728 1781.5 1728 1791.5> 534 25 731 39<19 345 308 345> 732 38<581 610.5> 902 36<1728.5 1781.5> 1105 22
VStem: 967 105<182 189 189 581> 1313 105<182 189 189 581> 1569 85<684 787.5 684 792> 1569 94<-166.5 -131 -131 -94 -192.5 1> 1869 94<-204 -102> 1882 72
LayerCount: 2
Fore
SplineSet
1963 -148 m 0xb006
 1963 -260 1874 -350 1764 -350 c 0
 1649 -350 1569 -243 1569 -90 c 0
 1569 92 1676 242 1807 242 c 0
 1879 242 1936 209 1936 166 c 0
 1936 142 1921 127 1896 127 c 0
 1838 127 1861 208 1785 208 c 0
 1716 208 1664 107 1664 -28 c 1
 1666 -29 l 1
 1698 17 1735 38 1785 38 c 0
 1886 38 1963 -42 1963 -148 c 0xb006
1663 -94 m 1
 1663 -131 l 2
 1663 -254 1699 -316 1767 -316 c 0
 1836 -316 1869 -264 1869 -152 c 0
 1869 -52 1837 2 1775 2 c 0
 1729 2 1696 -27 1663 -94 c 1
1896 526 m 1x08c9
 1896 596 l 1
 1893 596 l 1
 1857 546 1819 526 1764 526 c 0x08c9
 1651 526 1569 612 1569 733 c 0
 1569 851 1652 938 1764 938 c 0
 1811 938 1847 923 1882 888 c 1
 1882 965 l 2
 1882 1021 1881 1061 1878 1075 c 0
 1873 1097 1853 1105 1801 1105 c 1
 1801 1128 l 1
 1955 1156 l 1
 1955 723 l 2
 1955 654 1955 610 1960 591 c 0
 1966 567 1975 560 2021 560 c 1
 2021 534 l 1x04c9
 1896 526 l 1x08c9
1881 713 m 2
 1881 762 l 2
 1881 814 1877 837 1861 857 c 0
 1839 887 1799 902 1764 902 c 0
 1693 902 1654 838 1654 737 c 0
 1654 631 1692 562 1764 562 c 0
 1799 562 1843 579 1862 609 c 0
 1876 631 1881 659 1881 713 c 2
1418 581 m 2x4110
 1418 189 l 2
 1418 57 1433 41 1527 38 c 1
 1527 0 l 1
 1203 0 l 1
 1203 38 l 1
 1297 41 1313 58 1313 182 c 2
 1313 588 l 2
 1313 701 1299 728 1213 732 c 1
 1213 770 l 1
 1517 770 l 1
 1517 732 l 1
 1431 729 1418 702 1418 581 c 2x4110
1072 581 m 2x4120
 1072 189 l 2
 1072 57 1087 41 1181 38 c 1
 1181 0 l 1
 857 0 l 1
 857 38 l 1
 951 41 967 58 967 182 c 2
 967 588 l 2
 967 701 953 728 867 732 c 1
 867 770 l 1
 1171 770 l 1
 1171 732 l 1
 1085 729 1072 702 1072 581 c 2x4120
278 603 m 2x02
 456 153 l 1
 632 587 l 2
 652 636 659 661 659 683 c 0
 659 719 640 732 581 732 c 1
 581 770 l 1
 824 770 l 1
 824 732 l 1
 763 725 738 707 715 651 c 2
 444 -10 l 1
 409 -10 l 1
 151 613 l 2
 117 694 89 727 19 731 c 1
 19 770 l 1
 345 770 l 1
 345 731 l 1
 271 731 254 717 254 689 c 0
 254 670 260 649 278 603 c 2x02
EndSplineSet
Validated: 1
Ligature2: "'liga' Standard Ligatures in Latin lookup 0 per glyph data 2" G G
EndChar

StartChar: fiveD65
Encoding: 166 166 91
Width: 1467
GlyphClass: 3
Flags: MW
HStem: -1020 33<959 1028 959 1048> -666 32<1036.5 1043.5> -517 76<1008 1110 1067.5 1074> -350 34<1003 1071.5 1003 1089> 2 37 127 21G<1137 1178.5> 208 34<1020.5 1093> 525 28 525 37<1100 1151> 731 39<19 345 308 345> 1066 37<1036 1040 1040 1135> 1074 28
VStem: 839 94<-166.5 -131 -131 -94 -192.5 1> 918 35 948 79<639 648 648 989 989 1024> 1113 93<-849.5 -772.5 -866.5 -767> 1139 94<-204 -102> 1351 98
LayerCount: 2
Fore
SplineSet
933 -94 m 1xfe0880
 933 -131 l 2
 933 -254 969 -316 1037 -316 c 0
 1106 -316 1139 -264 1139 -152 c 0
 1139 -52 1107 2 1045 2 c 0
 999 2 966 -27 933 -94 c 1xfe0880
1233 -148 m 0
 1233 -260 1144 -350 1034 -350 c 0
 919 -350 839 -243 839 -90 c 0
 839 92 946 242 1077 242 c 0
 1149 242 1206 209 1206 166 c 0
 1206 142 1191 127 1166 127 c 0
 1108 127 1131 208 1055 208 c 0
 986 208 934 107 934 -28 c 1
 936 -29 l 1
 968 17 1005 38 1055 38 c 0
 1156 38 1233 -42 1233 -148 c 0
1008 -517 m 1
 973 -651 l 1
 975 -653 l 1
 990 -642 1022 -634 1051 -634 c 0
 1067 -634 1082 -636 1097 -641 c 1
 1208 -509 l 1
 1208 -551 l 1
 1124 -653 l 1
 1174 -681 1206 -738 1206 -807 c 0
 1206 -926 1110 -1020 986 -1020 c 0
 931 -1020 886 -1002 861 -972 c 1
 834 -1005 l 1
 834 -956 l 1
 845 -942 l 1
 842 -934 841 -926 841 -917 c 0
 841 -890 854 -874 877 -874 c 0
 886 -874 893 -876 898 -880 c 1
 1071 -673 l 1
 1062 -668 1050 -666 1037 -666 c 0
 996 -666 969 -688 953 -737 c 0
 947 -755 943 -758 935 -758 c 0
 925 -758 918 -752 918 -743 c 0xfe05
 918 -741 918 -739 919 -737 c 2
 999 -428 l 1
 1021 -437 1048 -441 1087 -441 c 0
 1133 -441 1168 -436 1187 -427 c 1
 1191 -428 l 1
 1179 -485 1136 -517 1074 -517 c 2
 1008 -517 l 1
1092 -691 m 1
 914 -908 l 1
 925 -942 929 -987 989 -987 c 0
 1067 -987 1113 -909 1113 -790 c 0
 1113 -744 1107 -711 1092 -691 c 1
1151 525 m 2x00a240
 858 525 l 1
 858 554 l 1
 934 556 948 568 948 639 c 2
 948 989 l 2
 948 1059 938 1071 873 1074 c 1
 873 1103 l 1x011240
 1136 1103 l 2
 1317 1103 1448 976 1448 804 c 0
 1448 640 1326 525 1151 525 c 2x00a240
1135 1066 m 2x00a240
 1040 1066 l 2
 1032 1066 1027 1061 1027 1053 c 2
 1027 648 l 2
 1027 590 1062 562 1138 562 c 0
 1274 562 1351 645 1351 803 c 0
 1351 969 1269 1066 1135 1066 c 2x00a240
278 603 m 2x0040
 456 153 l 1
 632 587 l 2
 652 636 659 661 659 683 c 0
 659 719 640 732 581 732 c 1
 581 770 l 1
 824 770 l 1
 824 732 l 1
 763 725 738 707 715 651 c 2
 444 -10 l 1
 409 -10 l 1
 151 613 l 2
 117 694 89 727 19 731 c 1
 19 770 l 1
 345 770 l 1
 345 731 l 1
 271 731 254 717 254 689 c 0
 254 670 260 649 278 603 c 2x0040
EndSplineSet
Validated: 1
Ligature2: "'liga' Standard Ligatures in Latin lookup 0 per glyph data 2" R R R R R
EndChar

StartChar: fiveD43
Encoding: 167 167 92
Width: 1467
GlyphClass: 3
Flags: MW
HStem: -1011 35<991 1054 991 1078.5> -816 33<903.5 986> -713 25<1029 1050.5 1024 1059.5> -604 28 -451 32<998 1054> -351 28 -216 38 525 28 525 37<1100 1151> 731 39<19 345 308 345> 1066 37<1036 1040 1040 1135> 1074 28
VStem: 842 79 864 75<-535 -497 -535 -493> 948 79<639 648 648 989 989 1024> 1053 74 1113 90<-586 -520.5> 1125 95<-885.5 -810 -894.5 -802> 1196 26<-279 -251.5 -141 -112> 1351 98
LayerCount: 2
Fore
SplineSet
1125 -843 m 0xf80840
 1125 -761 1090 -713 1029 -713 c 1
 1014 -721 994 -726 979 -726 c 0
 959 -726 945 -716 945 -701 c 0
 945 -687 958 -680 978 -680 c 0
 991 -680 1009 -683 1024 -688 c 1
 1077 -688 1113 -635 1113 -556 c 0
 1113 -485 1084 -451 1024 -451 c 0
 972 -451 939 -476 939 -518 c 0
 939 -552 961 -575 993 -575 c 1
 988 -591 966 -604 940 -604 c 0
 896 -604 864 -570 864 -525 c 0
 864 -461 928 -419 1024 -419 c 0
 1132 -419 1203 -472 1203 -552 c 0xf80480
 1203 -620 1152 -675 1090 -691 c 1
 1090 -695 l 1
 1165 -714 1220 -772 1220 -848 c 0
 1220 -941 1136 -1011 1021 -1011 c 0
 917 -1011 842 -954 842 -878 c 0
 842 -824 879 -783 928 -783 c 0
 956 -783 981 -797 986 -816 c 1
 948 -816 922 -847 922 -890 c 0
 922 -941 962 -976 1020 -976 c 0
 1088 -976 1125 -928 1125 -843 c 0xf80840
839 -216 m 1x060120
 839 -179 l 1
 1103 235 l 1
 1126 235 l 1
 1126 -180 l 1
 1188 -178 1196 -170 1196 -112 c 1
 1222 -112 l 1
 1222 -279 l 1
 1196 -279 l 1
 1196 -224 1188 -215 1126 -213 c 1
 1126 -229 l 2
 1126 -306 1136 -322 1185 -322 c 1
 1185 -351 l 1
 975 -351 l 1
 975 -322 l 1
 1041 -322 1053 -305 1053 -234 c 2
 1053 -216 l 1
 839 -216 l 1x060120
1053 -179 m 1
 1053 88 l 1
 1049 88 l 1
 876 -179 l 1
 1053 -179 l 1
1151 525 m 2x00a210
 858 525 l 1
 858 554 l 1
 934 556 948 568 948 639 c 2
 948 989 l 2
 948 1059 938 1071 873 1074 c 1
 873 1103 l 1x011210
 1136 1103 l 2
 1317 1103 1448 976 1448 804 c 0
 1448 640 1326 525 1151 525 c 2x00a210
1135 1066 m 2x00a210
 1040 1066 l 2
 1032 1066 1027 1061 1027 1053 c 2
 1027 648 l 2
 1027 590 1062 562 1138 562 c 0
 1274 562 1351 645 1351 803 c 0
 1351 969 1269 1066 1135 1066 c 2x00a210
278 603 m 2x0040
 456 153 l 1
 632 587 l 2
 652 636 659 661 659 683 c 0
 659 719 640 732 581 732 c 1
 581 770 l 1
 824 770 l 1
 824 732 l 1
 763 725 738 707 715 651 c 2
 444 -10 l 1
 409 -10 l 1
 151 613 l 2
 117 694 89 727 19 731 c 1
 19 770 l 1
 345 770 l 1
 345 731 l 1
 271 731 254 717 254 689 c 0
 254 670 260 649 278 603 c 2x0040
EndSplineSet
Validated: 1
Ligature2: "'liga' Standard Ligatures in Latin lookup 0 per glyph data 2" R R R R R R
EndChar

StartChar: threem6
Encoding: 169 169 93
Width: 2087
GlyphClass: 3
Flags: MW
HStem: -350 34<1273 1341.5 1273 1359> 0 38<19 343 19 19> 2 37 208 34<1290.5 1363> 518 38<1262.5 1330 1248 1351.5> 525 28 525 37<1720 1771> 732 38<29 333 29 333> 1066 37<1655 1659 1659 1754> 1072 38<1258.5 1309 1238 1321> 1074 28
VStem: 129 105<182 189 189 581> 488 105<182 189 189 581> 847 105<182 189 189 581> 1095 28<702 702> 1109 94<-166.5 -131 -131 -94 -192.5 1> 1119 71 1409 94<-204 -102> 1413 82<637.5 679.5> 1424 28 1568 79 1970 98<724 886>
LayerCount: 2
Fore
SplineSet
1503 -148 m 0xb00140
 1503 -260 1414 -350 1304 -350 c 0
 1189 -350 1109 -243 1109 -90 c 0
 1109 92 1216 242 1347 242 c 0
 1419 242 1476 209 1476 166 c 0
 1476 142 1461 127 1436 127 c 0
 1378 127 1401 208 1325 208 c 0
 1256 208 1204 107 1204 -28 c 1
 1206 -29 l 1
 1238 17 1275 38 1325 38 c 0
 1426 38 1503 -42 1503 -148 c 0xb00140
1203 -94 m 1
 1203 -131 l 2
 1203 -254 1239 -316 1307 -316 c 0
 1376 -316 1409 -264 1409 -152 c 0
 1409 -52 1377 2 1315 2 c 0
 1269 2 1236 -27 1203 -94 c 1
593 581 m 2x411c0c
 593 189 l 2
 593 57 608 41 702 38 c 1
 702 0 l 1
 378 0 l 1
 378 38 l 1
 472 41 488 58 488 182 c 2
 488 588 l 2
 488 701 474 728 388 732 c 1
 388 770 l 1
 692 770 l 1
 692 732 l 1
 606 729 593 702 593 581 c 2x411c0c
952 581 m 2
 952 189 l 2
 952 57 967 41 1061 38 c 1
 1061 0 l 1
 737 0 l 1
 737 38 l 1
 831 41 847 58 847 182 c 2
 847 588 l 2
 847 701 833 728 747 732 c 1
 747 770 l 1
 1051 770 l 1
 1051 732 l 1
 965 729 952 702 952 581 c 2
234 581 m 2
 234 189 l 2
 234 57 249 41 343 38 c 1
 343 0 l 1
 19 0 l 1
 19 38 l 1
 113 41 129 58 129 182 c 2
 129 588 l 2
 129 701 115 728 29 732 c 1
 29 770 l 1
 333 770 l 1
 333 732 l 1
 247 729 234 702 234 581 c 2
1771 525 m 2x02800c
 1478 525 l 1
 1478 554 l 1
 1554 556 1568 568 1568 639 c 2
 1568 989 l 2
 1568 1059 1557 1071 1492 1074 c 1
 1492 1103 l 1x04200c
 1756 1103 l 2
 1937 1103 2068 976 2068 804 c 0
 2068 640 1946 525 1771 525 c 2x02800c
1754 1066 m 2x02800c
 1659 1066 l 2
 1651 1066 1646 1061 1646 1053 c 2
 1646 648 l 2
 1646 590 1682 562 1758 562 c 0
 1894 562 1970 645 1970 803 c 0
 1970 969 1888 1066 1754 1066 c 2x02800c
1106 534 m 1
 1095 702 l 1
 1123 702 l 1x08422c
 1137 611 1203 556 1293 556 c 0
 1367 556 1413 595 1413 654 c 0
 1413 705 1383 734 1282 778 c 0
 1157 833 1119 874 1119 951 c 0
 1119 1044 1189 1110 1287 1110 c 0x0840ac
 1331 1110 1367 1097 1406 1066 c 1
 1426 1100 l 1
 1443 1100 l 1
 1451 951 l 1
 1424 951 l 1x00809c
 1400 1033 1353 1072 1289 1072 c 0
 1228 1072 1189 1039 1189 989 c 0
 1189 942 1219 913 1304 875 c 0
 1452 808 1495 767 1495 688 c 0
 1495 587 1412 518 1291 518 c 0x0840ac
 1234 518 1191 532 1145 570 c 1
 1124 534 l 1
 1106 534 l 1
EndSplineSet
Validated: 1
Ligature2: "'liga' Standard Ligatures in Latin lookup 0 per glyph data 2" w w
EndChar

StartChar: fourm6
Encoding: 170 170 94
Width: 1966
GlyphClass: 3
Flags: MW
HStem: -350 34<1363 1431.5 1363 1449> -10 21G<754 789 754 754> 0 38<19 343 19 19> 2 37 208 34<1380.5 1453> 520 31<1327.5 1360 1314 1384> 528 25 732 38<29 333 29 333 926 955.5> 902 31 1099 22
VStem: 129 105<182 189 189 581> 1199 94<-166.5 -131 -131 -94 -192.5 1> 1215 19<528 656 656 656> 1217 62<834.5 851> 1405 67<598.5 624.5> 1419 19<817 925> 1495 85<678 781.5 678 786> 1499 94<-204 -102> 1808 74
LayerCount: 2
Fore
SplineSet
1593 -148 m 0x981040
 1593 -260 1504 -350 1394 -350 c 0
 1279 -350 1199 -243 1199 -90 c 0
 1199 92 1306 242 1437 242 c 0
 1509 242 1566 209 1566 166 c 0
 1566 142 1551 127 1526 127 c 0
 1468 127 1491 208 1415 208 c 0
 1346 208 1294 107 1294 -28 c 1
 1296 -29 l 1
 1328 17 1365 38 1415 38 c 0
 1516 38 1593 -42 1593 -148 c 0x981040
1293 -94 m 1
 1293 -131 l 2
 1293 -254 1329 -316 1397 -316 c 0
 1466 -316 1499 -264 1499 -152 c 0
 1499 -52 1467 2 1405 2 c 0
 1359 2 1326 -27 1293 -94 c 1
623 603 m 2x41e0a0
 801 153 l 1
 977 587 l 2
 997 636 1004 661 1004 683 c 0
 1004 719 985 732 926 732 c 1
 926 770 l 1
 1169 770 l 1
 1169 732 l 1
 1108 725 1083 707 1060 651 c 2
 789 -10 l 1
 754 -10 l 1
 496 613 l 2
 462 694 434 727 364 731 c 1
 364 770 l 1
 690 770 l 1
 690 731 l 1
 616 731 599 717 599 689 c 0
 599 670 605 649 623 603 c 2x41e0a0
234 581 m 2
 234 189 l 2
 234 57 249 41 343 38 c 1
 343 0 l 1
 19 0 l 1
 19 38 l 1x21e0a0
 113 41 129 58 129 182 c 2
 129 588 l 2
 129 701 115 728 29 732 c 1
 29 770 l 1
 333 770 l 1
 333 732 l 1
 247 729 234 702 234 581 c 2
1822 520 m 1x04c0a0
 1822 591 l 1
 1819 591 l 1
 1783 541 1746 520 1691 520 c 0x04c0a0
 1578 520 1495 606 1495 727 c 0
 1495 845 1579 932 1691 932 c 0
 1738 932 1774 917 1809 882 c 1
 1809 959 l 2
 1809 1015 1808 1055 1805 1069 c 0
 1800 1091 1779 1099 1727 1099 c 1
 1727 1122 l 1
 1881 1150 l 1
 1881 717 l 2
 1881 648 1881 604 1886 585 c 0
 1892 561 1901 554 1947 554 c 1
 1947 528 l 1x02c0a0
 1822 520 l 1x04c0a0
1808 707 m 2
 1808 756 l 2
 1808 808 1803 831 1787 851 c 0
 1765 881 1726 896 1691 896 c 0
 1620 896 1580 832 1580 731 c 0
 1580 625 1619 556 1691 556 c 0
 1726 556 1769 573 1788 603 c 0
 1802 625 1808 653 1808 707 c 2
1246 554 m 1x02c6a0
 1232 528 l 1
 1215 528 l 1
 1215 656 l 1
 1234 656 l 1
 1253 585 1288 551 1340 551 c 0
 1380 551 1405 570 1405 610 c 0x04caa0
 1405 639 1392 648 1318 694 c 0
 1250 737 1217 761 1217 817 c 0
 1217 885 1266 932 1329 932 c 0
 1356 932 1387 923 1409 909 c 1
 1424 925 l 1
 1438 925 l 1
 1438 817 l 1
 1419 817 l 1x04c5a0
 1397 878 1373 902 1335 902 c 0
 1301 902 1279 883 1279 851 c 0
 1279 818 1301 803 1352 771 c 0
 1438 717 1472 691 1472 634 c 0
 1472 563 1421 520 1347 520 c 0x04c6a0
 1308 520 1273 532 1246 554 c 1x02c6a0
EndSplineSet
Validated: 1
Ligature2: "'liga' Standard Ligatures in Latin lookup 0 per glyph data 2" e e
EndChar

StartChar: fivem6
Encoding: 171 171 95
Width: 1625
GlyphClass: 3
Flags: MW
HStem: -350 34<1022 1090.5 1022 1108> 2 37 208 34<1039.5 1112> 520 31<986.5 1019 973 1043> 528 25 731 39<19 345 308 345> 902 31 1099 22
VStem: 858 94<-166.5 -131 -131 -94 -192.5 1> 874 19<528 656 656 656> 876 62<834.5 851> 1064 67<598.5 624.5> 1078 19<817 925> 1154 85<678 781.5 678 786> 1158 94<-204 -102> 1467 74
LayerCount: 2
Fore
SplineSet
1252 -148 m 0xe082
 1252 -260 1163 -350 1053 -350 c 0
 938 -350 858 -243 858 -90 c 0
 858 92 965 242 1096 242 c 0
 1168 242 1225 209 1225 166 c 0
 1225 142 1210 127 1185 127 c 0
 1127 127 1150 208 1074 208 c 0
 1005 208 953 107 953 -28 c 1
 955 -29 l 1
 987 17 1024 38 1074 38 c 0
 1175 38 1252 -42 1252 -148 c 0xe082
952 -94 m 1
 952 -131 l 2
 952 -254 988 -316 1056 -316 c 0
 1125 -316 1158 -264 1158 -152 c 0
 1158 -52 1126 2 1064 2 c 0
 1018 2 985 -27 952 -94 c 1
1481 520 m 1x1305
 1481 591 l 1
 1478 591 l 1
 1442 541 1405 520 1350 520 c 0x1305
 1237 520 1154 606 1154 727 c 0
 1154 845 1238 932 1350 932 c 0
 1397 932 1433 917 1468 882 c 1
 1468 959 l 2
 1468 1015 1467 1055 1464 1069 c 0
 1459 1091 1438 1099 1386 1099 c 1
 1386 1122 l 1
 1540 1150 l 1
 1540 717 l 2
 1540 648 1540 604 1545 585 c 0
 1551 561 1560 554 1606 554 c 1
 1606 528 l 1x0b05
 1481 520 l 1x1305
1467 707 m 2
 1467 756 l 2
 1467 808 1462 831 1446 851 c 0
 1424 881 1385 896 1350 896 c 0
 1279 896 1239 832 1239 731 c 0
 1239 625 1278 556 1350 556 c 0
 1385 556 1428 573 1447 603 c 0
 1461 625 1467 653 1467 707 c 2
905 554 m 1x0b35
 891 528 l 1
 874 528 l 1
 874 656 l 1
 893 656 l 1
 912 585 947 551 999 551 c 0
 1039 551 1064 570 1064 610 c 0x1355
 1064 639 1051 648 977 694 c 0
 909 737 876 761 876 817 c 0
 876 885 925 932 988 932 c 0
 1015 932 1046 923 1068 909 c 1
 1083 925 l 1
 1097 925 l 1
 1097 817 l 1
 1078 817 l 1x132d
 1056 878 1032 902 994 902 c 0
 960 902 938 883 938 851 c 0
 938 818 960 803 1011 771 c 0
 1097 717 1131 691 1131 634 c 0
 1131 563 1080 520 1006 520 c 0x1335
 967 520 932 532 905 554 c 1x0b35
278 603 m 2x04
 456 153 l 1
 632 587 l 2
 652 636 659 661 659 683 c 0
 659 719 640 732 581 732 c 1
 581 770 l 1
 824 770 l 1
 824 732 l 1
 763 725 738 707 715 651 c 2
 444 -10 l 1
 409 -10 l 1
 151 613 l 2
 117 694 89 727 19 731 c 1
 19 770 l 1
 345 770 l 1
 345 731 l 1
 271 731 254 717 254 689 c 0
 254 670 260 649 278 603 c 2x04
EndSplineSet
Validated: 1
Ligature2: "'liga' Standard Ligatures in Latin lookup 0 per glyph data 2" r r
EndChar

StartChar: sixm6
Encoding: 172 172 96
Width: 2217
GlyphClass: 3
Flags: MW
HStem: -350 34<1393 1461.5 1393 1479> 0 38<847 1171 847 847> 2 37 208 34<1410.5 1483> 518 38<1392.5 1460 1378 1481.5> 525 28 525 37<1850 1901> 731 39<19 345 308 345> 732 38<581 610.5> 1066 37<1785 1789 1789 1884> 1072 38<1388.5 1439 1368 1451> 1074 28
VStem: 957 105<182 189 189 581> 1225 28<702 702> 1229 94<-166.5 -131 -131 -94 -192.5 1> 1249 71 1529 94<-204 -102> 1543 82<637.5 679.5> 1554 28 1698 79 2100 98<724 886>
LayerCount: 2
Fore
SplineSet
1623 -148 m 0xb00280
 1623 -260 1534 -350 1424 -350 c 0
 1309 -350 1229 -243 1229 -90 c 0
 1229 92 1336 242 1467 242 c 0
 1539 242 1596 209 1596 166 c 0
 1596 142 1581 127 1556 127 c 0
 1498 127 1521 208 1445 208 c 0
 1376 208 1324 107 1324 -28 c 1
 1326 -29 l 1
 1358 17 1395 38 1445 38 c 0
 1546 38 1623 -42 1623 -148 c 0xb00280
1323 -94 m 1
 1323 -131 l 2
 1323 -254 1359 -316 1427 -316 c 0
 1496 -316 1529 -264 1529 -152 c 0
 1529 -52 1497 2 1435 2 c 0
 1389 2 1356 -27 1323 -94 c 1
1901 525 m 2x024018
 1608 525 l 1
 1608 554 l 1
 1684 556 1698 568 1698 639 c 2
 1698 989 l 2
 1698 1059 1687 1071 1622 1074 c 1
 1622 1103 l 1x041018
 1886 1103 l 2
 2067 1103 2198 976 2198 804 c 0
 2198 640 2076 525 1901 525 c 2x024018
1884 1066 m 2x024018
 1789 1066 l 2
 1781 1066 1776 1061 1776 1053 c 2
 1776 648 l 2
 1776 590 1812 562 1888 562 c 0
 2024 562 2100 645 2100 803 c 0
 2100 969 2018 1066 1884 1066 c 2x024018
1236 534 m 1
 1225 702 l 1
 1253 702 l 1x082458
 1267 611 1333 556 1423 556 c 0
 1497 556 1543 595 1543 654 c 0
 1543 705 1513 734 1412 778 c 0
 1287 833 1249 874 1249 951 c 0
 1249 1044 1319 1110 1417 1110 c 0x082158
 1461 1110 1497 1097 1536 1066 c 1
 1556 1100 l 1
 1573 1100 l 1
 1581 951 l 1
 1554 951 l 1x004138
 1530 1033 1483 1072 1419 1072 c 0
 1358 1072 1319 1039 1319 989 c 0
 1319 942 1349 913 1434 875 c 0
 1582 808 1625 767 1625 688 c 0
 1625 587 1542 518 1421 518 c 0x082158
 1364 518 1321 532 1275 570 c 1
 1254 534 l 1
 1236 534 l 1
1062 581 m 2x4088
 1062 189 l 2
 1062 57 1077 41 1171 38 c 1
 1171 0 l 1
 847 0 l 1
 847 38 l 1
 941 41 957 58 957 182 c 2
 957 588 l 2
 957 701 943 728 857 732 c 1
 857 770 l 1
 1161 770 l 1
 1161 732 l 1
 1075 729 1062 702 1062 581 c 2x4088
278 603 m 2x01
 456 153 l 1
 632 587 l 2
 652 636 659 661 659 683 c 0
 659 719 640 732 581 732 c 1
 581 770 l 1
 824 770 l 1
 824 732 l 1
 763 725 738 707 715 651 c 2
 444 -10 l 1
 409 -10 l 1
 151 613 l 2
 117 694 89 727 19 731 c 1
 19 770 l 1
 345 770 l 1
 345 731 l 1
 271 731 254 717 254 689 c 0
 254 670 260 649 278 603 c 2x01
EndSplineSet
Validated: 1
Ligature2: "'liga' Standard Ligatures in Latin lookup 0 per glyph data 2" y y
EndChar

StartChar: sevenm6
Encoding: 173 173 97
Width: 2040
GlyphClass: 3
Flags: MW
HStem: -350 34<1733 1801.5 1733 1819> 0 38<857 1181 857 857> 2 37 208 34<1750.5 1823> 526 36<1728 1781.5 1728 1791.5> 534 25 731 39<19 345 308 345> 732 38<581 610.5> 902 36<1728.5 1781.5> 1105 22
VStem: 967 105<182 189 189 581> 1313 105<182 189 189 581> 1569 85<684 787.5 684 792> 1569 94<-166.5 -131 -131 -94 -192.5 1> 1869 94<-204 -102> 1882 72
LayerCount: 2
Fore
SplineSet
1963 -148 m 0xb006
 1963 -260 1874 -350 1764 -350 c 0
 1649 -350 1569 -243 1569 -90 c 0
 1569 92 1676 242 1807 242 c 0
 1879 242 1936 209 1936 166 c 0
 1936 142 1921 127 1896 127 c 0
 1838 127 1861 208 1785 208 c 0
 1716 208 1664 107 1664 -28 c 1
 1666 -29 l 1
 1698 17 1735 38 1785 38 c 0
 1886 38 1963 -42 1963 -148 c 0xb006
1663 -94 m 1
 1663 -131 l 2
 1663 -254 1699 -316 1767 -316 c 0
 1836 -316 1869 -264 1869 -152 c 0
 1869 -52 1837 2 1775 2 c 0
 1729 2 1696 -27 1663 -94 c 1
1896 526 m 1x08c9
 1896 596 l 1
 1893 596 l 1
 1857 546 1819 526 1764 526 c 0x08c9
 1651 526 1569 612 1569 733 c 0
 1569 851 1652 938 1764 938 c 0
 1811 938 1847 923 1882 888 c 1
 1882 965 l 2
 1882 1021 1881 1061 1878 1075 c 0
 1873 1097 1853 1105 1801 1105 c 1
 1801 1128 l 1
 1955 1156 l 1
 1955 723 l 2
 1955 654 1955 610 1960 591 c 0
 1966 567 1975 560 2021 560 c 1
 2021 534 l 1x04c9
 1896 526 l 1x08c9
1881 713 m 2
 1881 762 l 2
 1881 814 1877 837 1861 857 c 0
 1839 887 1799 902 1764 902 c 0
 1693 902 1654 838 1654 737 c 0
 1654 631 1692 562 1764 562 c 0
 1799 562 1843 579 1862 609 c 0
 1876 631 1881 659 1881 713 c 2
1418 581 m 2x4110
 1418 189 l 2
 1418 57 1433 41 1527 38 c 1
 1527 0 l 1
 1203 0 l 1
 1203 38 l 1
 1297 41 1313 58 1313 182 c 2
 1313 588 l 2
 1313 701 1299 728 1213 732 c 1
 1213 770 l 1
 1517 770 l 1
 1517 732 l 1
 1431 729 1418 702 1418 581 c 2x4110
1072 581 m 2x4120
 1072 189 l 2
 1072 57 1087 41 1181 38 c 1
 1181 0 l 1
 857 0 l 1
 857 38 l 1
 951 41 967 58 967 182 c 2
 967 588 l 2
 967 701 953 728 867 732 c 1
 867 770 l 1
 1171 770 l 1
 1171 732 l 1
 1085 729 1072 702 1072 581 c 2x4120
278 603 m 2x02
 456 153 l 1
 632 587 l 2
 652 636 659 661 659 683 c 0
 659 719 640 732 581 732 c 1
 581 770 l 1
 824 770 l 1
 824 732 l 1
 763 725 738 707 715 651 c 2
 444 -10 l 1
 409 -10 l 1
 151 613 l 2
 117 694 89 727 19 731 c 1
 19 770 l 1
 345 770 l 1
 345 731 l 1
 271 731 254 717 254 689 c 0
 254 670 260 649 278 603 c 2x02
EndSplineSet
Validated: 1
Ligature2: "'liga' Standard Ligatures in Latin lookup 0 per glyph data 2" g g
EndChar

StartChar: fiveD2
Encoding: 174 174 98
Width: 1467
GlyphClass: 3
Flags: MW
HStem: -350 74 -33 40<913.5 1000> 200 35<989.5 1050> 525 28 525 37<1100 1151> 731 39<19 345 308 345> 1066 37<1036 1040 1040 1135> 1074 28
VStem: 845 73 948 79<639 648 648 989 989 1024> 1121 90<21.5 112.5> 1187 28<-191 -191> 1351 98
LayerCount: 2
Fore
SplineSet
947 -273 m 1xe0a0
 947 -277 l 1
 1097 -277 l 2
 1145 -277 1166 -262 1187 -191 c 1
 1215 -191 l 1xe090
 1187 -350 l 1
 838 -350 l 1
 838 -326 l 1
 1067 -122 1121 -31 1121 74 c 0
 1121 151 1081 200 1019 200 c 0
 960 200 917 157 917 95 c 0
 917 41 950 7 1000 7 c 1
 995 -17 972 -33 941 -33 c 0
 886 -33 845 14 845 79 c 0
 845 168 925 235 1031 235 c 0
 1137 235 1211 168 1211 73 c 0
 1211 -51 1092 -165 947 -273 c 1xe0a0
1151 525 m 2x0a48
 858 525 l 1
 858 554 l 1
 934 556 948 568 948 639 c 2
 948 989 l 2
 948 1059 938 1071 873 1074 c 1
 873 1103 l 1x1148
 1136 1103 l 2
 1317 1103 1448 976 1448 804 c 0
 1448 640 1326 525 1151 525 c 2x0a48
1135 1066 m 2x0a48
 1040 1066 l 2
 1032 1066 1027 1061 1027 1053 c 2
 1027 648 l 2
 1027 590 1062 562 1138 562 c 0
 1274 562 1351 645 1351 803 c 0
 1351 969 1269 1066 1135 1066 c 2x0a48
278 603 m 2x04
 456 153 l 1
 632 587 l 2
 652 636 659 661 659 683 c 0
 659 719 640 732 581 732 c 1
 581 770 l 1
 824 770 l 1
 824 732 l 1
 763 725 738 707 715 651 c 2
 444 -10 l 1
 409 -10 l 1
 151 613 l 2
 117 694 89 727 19 731 c 1
 19 770 l 1
 345 770 l 1
 345 731 l 1
 271 731 254 717 254 689 c 0
 254 670 260 649 278 603 c 2x04
EndSplineSet
Validated: 1
Ligature2: "'liga' Standard Ligatures in Latin lookup 0 per glyph data 2" R R R R R R R
EndChar

StartChar: aum6it
Encoding: 192 192 99
Width: 1852
GlyphClass: 3
Flags: MW
HStem: -1434 98 -1430 37<1038 1059.5> -1419 26<617 832 617 617> -1072 35<1007 1107 1007 1107> -909 93<709 735> -606 45<590.5 621> -603 98 -598 45 -596 26<927 1126 927 927> -300 21G<63 84.5> -246 26<925 948> -233 41<1184 1217.5 1464.5 1497.5> -227 26<402 538> -215 28<154.5 198.5> -37 37 -37 45 -35 49 -31 42 -28 28 -28 28 -28 37 -25 45 -22 28 -22 37 1 37 16 28
VStem: 16 125<235 283 283 332 201 458.5> 20 76<-513.5 -486> 38 76 249 74<-429 -370 -370 -370 -338 -307 -307 -304> 416 125<184 321.5> 465 74 676 93<-875 -849> 689 74 734 74 739 79<639 648 648 989 989 1024> 929 79<429 438 438 525 525 525 573 779 779 814> 933 74<-1335.5 -1300 -1300 -1072> 985 22<4.29497e+09 4.29497e+09> 991 74<-482 -476 -476 -386 -386 -381> 1142 98 1200 98 1272 74 1332 98 1553 74 1727 98
LayerCount: 2
Fore
SplineSet
1200 -1385 m 0x98418404004c
 1200 -1357 1222 -1335 1249 -1335 c 0
 1277 -1335 1299 -1357 1299 -1385 c 0
 1299 -1412 1277 -1434 1249 -1434 c 0
 1222 -1434 1200 -1412 1200 -1385 c 0x98418404004c
933 -1072 m 1x58418404040c
 888 -1072 l 1
 888 -1044 l 1
 941 -1012 969 -985 985 -942 c 1
 1007 -942 l 1
 1007 -1037 l 1x58418404020c
 1107 -1037 l 1
 1107 -1072 l 1
 1007 -1072 l 1
 1007 -1300 l 2
 1007 -1371 1018 -1393 1058 -1393 c 0
 1083 -1393 1100 -1383 1116 -1358 c 1
 1135 -1373 l 1
 1121 -1410 1085 -1430 1034 -1430 c 0
 968 -1430 933 -1396 933 -1338 c 2
 933 -1072 l 1x58418404040c
762 -1014 m 1x38418404400c
 762 -1300 l 2
 762 -1377 773 -1391 832 -1393 c 1
 832 -1419 l 1
 617 -1419 l 1
 617 -1393 l 1
 678 -1390 689 -1376 689 -1305 c 2
 689 -1209 l 2
 689 -1151 687 -1113 683 -1099 c 0
 678 -1076 664 -1069 615 -1069 c 1
 615 -1043 l 1
 762 -1014 l 1x38418404400c
676 -862 m 0x18418404800c
 676 -836 696 -816 722 -816 c 0
 748 -816 769 -836 769 -862 c 0
 769 -888 748 -909 722 -909 c 0
 696 -909 676 -888 676 -862 c 0x18418404800c
1065 -381 m 2x00d1840401ac
 1065 -476 l 2
 1065 -559 1069 -566 1126 -570 c 1
 1126 -596 l 1
 927 -596 l 1
 927 -570 l 1
 985 -566 991 -558 991 -482 c 2
 991 -386 l 2
 991 -329 990 -290 986 -276 c 0
 981 -251 971 -246 925 -246 c 1
 925 -220 l 1x00e1840401ac
 1048 -192 l 1
 1057 -266 l 1
 1061 -266 l 1
 1106 -215 1154 -192 1214 -192 c 0
 1277 -192 1322 -219 1338 -266 c 1
 1342 -266 l 1
 1379 -220 1435 -192 1494 -192 c 0
 1540 -192 1582 -208 1602 -235 c 0
 1620 -258 1626 -292 1626 -357 c 2
 1626 -476 l 2
 1626 -558 1632 -566 1689 -570 c 1
 1689 -596 l 1
 1489 -596 l 1
 1489 -570 l 1
 1546 -567 1553 -557 1553 -482 c 2
 1553 -388 l 2
 1553 -273 1530 -233 1465 -233 c 0
 1421 -233 1380 -259 1358 -300 c 0
 1347 -320 1345 -334 1345 -381 c 2
 1345 -476 l 2
 1345 -558 1350 -566 1408 -570 c 1
 1408 -596 l 1
 1209 -596 l 1
 1209 -570 l 1
 1266 -566 1272 -558 1272 -482 c 2
 1272 -388 l 2
 1272 -272 1250 -233 1185 -233 c 0
 1141 -233 1098 -259 1078 -300 c 0
 1067 -320 1065 -334 1065 -381 c 2x00d1840401ac
734 -394 m 2x04498405208c
 734 -321 l 2
 734 -239 730 -233 672 -227 c 1
 672 -201 l 1
 807 -201 l 1
 807 -431 l 2
 807 -488 809 -523 812 -541 c 0
 817 -566 827 -571 873 -571 c 1
 873 -597 l 1
 749 -606 l 1
 741 -516 l 1
 738 -516 l 1
 700 -578 648 -606 594 -606 c 0
 552 -606 509 -588 489 -561 c 0
 473 -539 465 -502 465 -440 c 2
 465 -321 l 2
 465 -239 460 -232 402 -227 c 1
 402 -201 l 1
 538 -201 l 1
 538 -405 l 2
 538 -513 563 -561 618 -561 c 0
 661 -561 696 -532 721 -474 c 0
 731 -451 734 -437 734 -394 c 2x04498405208c
1727 -554 m 0
 1727 -526 1749 -504 1776 -504 c 0
 1804 -504 1826 -526 1826 -554 c 0
 1826 -581 1804 -603 1776 -603 c 0x02418404008c
 1749 -603 1727 -581 1727 -554 c 0
249 -429 m 2
 249 -370 l 1
 134 -414 96 -453 96 -497 c 0
 96 -530 120 -554 156 -554 c 0x01418414008c
 208 -554 249 -497 249 -429 c 2
142 -385 m 2
 249 -338 l 1
 249 -307 l 2
 249 -245 225 -215 172 -215 c 0
 137 -215 128 -225 115 -264 c 0
 104 -292 94 -300 75 -300 c 0
 51 -300 38 -286 38 -262 c 0
 38 -214 91 -187 185 -187 c 0x0145840c008c
 286 -187 323 -219 323 -304 c 2
 323 -472 l 2
 323 -530 335 -557 357 -557 c 0
 371 -557 385 -556 394 -541 c 1
 404 -559 l 1
 392 -582 356 -599 321 -599 c 0
 277 -599 255 -570 255 -519 c 1
 252 -519 l 1
 226 -568 176 -598 121 -598 c 0
 59 -598 20 -563 20 -510 c 0
 20 -462 51 -424 142 -385 c 2
541 259 m 0x00418426008c
 541 109 423 -10 276 -10 c 0
 123 -10 16 133 16 337 c 0
 16 580 159 780 333 780 c 0
 429 780 506 735 506 678 c 0
 506 646 485 626 452 626 c 0
 374 626 406 735 304 735 c 0
 212 735 143 600 143 420 c 1
 146 418 l 1
 189 480 237 508 304 508 c 0
 439 508 541 401 541 259 c 0x00418426008c
141 332 m 1
 141 283 l 2
 141 119 189 35 280 35 c 0
 372 35 416 105 416 255 c 0
 416 388 372 459 290 459 c 0
 229 459 185 421 141 332 c 1
1132 315 m 2
 839 315 l 1
 839 344 l 1
 915 346 929 358 929 429 c 2
 929 525 l 1x00000a001890
 649 525 l 1
 649 554 l 1
 725 556 739 568 739 639 c 2
 739 989 l 2
 739 1059 729 1071 664 1074 c 1
 664 1103 l 1x000020401890
 927 1103 l 2
 1082 1103 1202 1010 1232 874 c 1
 1351 833 1429 727 1429 594 c 0
 1429 430 1307 315 1132 315 c 2
1116 856 m 2x000040801890
 1021 856 l 2
 1013 856 1008 851 1008 843 c 2
 1008 573 l 1
 1094 601 1142 679 1142 803 c 0
 1142 821 1141 839 1139 855 c 1
 1131 856 1124 856 1116 856 c 2x000040801890
926 1066 m 2x000200801890
 831 1066 l 2
 823 1066 818 1061 818 1053 c 2
 818 648 l 2
 818 590 854 562 929 562 c 1
 929 779 l 2
 929 849 919 861 854 864 c 1
 854 893 l 1x000218001890
 1117 893 l 2
 1122 893 1127 892 1132 892 c 1
 1107 1003 1033 1066 926 1066 c 2x000200801890
1008 531 m 1x000041001890
 1008 438 l 2
 1008 380 1043 352 1119 352 c 0
 1255 352 1332 435 1332 593 c 0
 1332 699 1298 777 1239 819 c 1
 1239 804 l 2
 1239 661 1147 556 1008 531 c 1x000041001890
EndSplineSet
Validated: 8388609
Ligature2: "'liga' Standard Ligatures in Latin lookup 0 per glyph data 2" A A
EndChar

StartChar: VobliqueII
Encoding: 193 193 100
Width: 1034
GlyphClass: 3
Flags: MW
HStem: -1536 38 -804 38 -556 269
VStem: 696 105 1066 105
LayerCount: 2
Fore
SplineSet
1005 -370 m 1
 29 -556 l 1
 29 -473 l 1
 1005 -287 l 1
 1005 -370 l 1
751.099609375 -1087.79980469 m 2
 751.099609375 -1460.20019531 l 2
 751.099609375 -1585.59960938 765.349609375 -1600.79980469 854.650390625 -1603.65039062 c 1
 854.650390625 -1639.75 l 1
 546.849609375 -1639.75 l 1
 546.849609375 -1603.65039062 l 1
 636.150390625 -1600.79980469 651.349609375 -1584.65039062 651.349609375 -1466.84960938 c 2
 651.349609375 -1081.15039062 l 2
 651.349609375 -973.799804688 638.049804688 -948.150390625 556.349609375 -944.349609375 c 1
 556.349609375 -908.25 l 1
 845.150390625 -908.25 l 1
 845.150390625 -944.349609375 l 1
 763.450195312 -947.200195312 751.099609375 -972.849609375 751.099609375 -1087.79980469 c 2
399.599609375 -1087.79980469 m 2
 399.599609375 -1460.20019531 l 2
 399.599609375 -1585.59960938 413.849609375 -1600.79980469 503.150390625 -1603.65039062 c 1
 503.150390625 -1639.75 l 1
 195.349609375 -1639.75 l 1
 195.349609375 -1603.65039062 l 1
 284.650390625 -1600.79980469 299.849609375 -1584.65039062 299.849609375 -1466.84960938 c 2
 299.849609375 -1081.15039062 l 2
 299.849609375 -973.799804688 286.549804688 -948.150390625 204.849609375 -944.349609375 c 1
 204.849609375 -908.25 l 1
 493.650390625 -908.25 l 1
 493.650390625 -944.349609375 l 1
 411.950195312 -947.200195312 399.599609375 -972.849609375 399.599609375 -1087.79980469 c 2
368 603 m 2
 546 153 l 1
 722 587 l 2
 742 636 749 661 749 683 c 0
 749 719 730 732 671 732 c 1
 671 770 l 1
 914 770 l 1
 914 732 l 1
 853 725 828 707 805 651 c 2
 534 -10 l 1
 499 -10 l 1
 241 613 l 2
 207 694 179 727 109 731 c 1
 109 770 l 1
 435 770 l 1
 435 731 l 1
 361 731 344 717 344 689 c 0
 344 670 350 649 368 603 c 2
EndSplineSet
Validated: 524289
Ligature2: "'liga' Standard Ligatures in Latin lookup 0 per glyph data 0" V slash I I
EndChar

StartChar: VobliqueIII
Encoding: 194 194 101
Width: 1092
GlyphClass: 3
Flags: MW
HStem: -1535 38 -803 38 -554 269
VStem: 130 105 492 105 858 105
LayerCount: 2
Fore
SplineSet
1034 -368 m 1
 58 -554 l 1
 58 -471 l 1
 1034 -285 l 1
 1034 -368 l 1
594.450195312 -1087.79980469 m 2
 594.450195312 -1460.20019531 l 2
 594.450195312 -1585.59960938 608.700195312 -1600.79980469 698 -1603.65039062 c 1
 698 -1639.75 l 1
 390.200195312 -1639.75 l 1
 390.200195312 -1603.65039062 l 1
 479.5 -1600.79980469 494.700195312 -1584.65039062 494.700195312 -1466.84960938 c 2
 494.700195312 -1081.15039062 l 2
 494.700195312 -973.799804688 481.400390625 -948.150390625 399.700195312 -944.349609375 c 1
 399.700195312 -908.25 l 1
 688.5 -908.25 l 1
 688.5 -944.349609375 l 1
 606.799804688 -947.200195312 594.450195312 -972.849609375 594.450195312 -1087.79980469 c 2
942.150390625 -1087.79980469 m 2
 942.150390625 -1460.20019531 l 2
 942.150390625 -1585.59960938 956.400390625 -1600.79980469 1045.70019531 -1603.65039062 c 1
 1045.70019531 -1639.75 l 1
 737.900390625 -1639.75 l 1
 737.900390625 -1603.65039062 l 1
 827.200195312 -1600.79980469 842.400390625 -1584.65039062 842.400390625 -1466.84960938 c 2
 842.400390625 -1081.15039062 l 2
 842.400390625 -973.799804688 829.099609375 -948.150390625 747.400390625 -944.349609375 c 1
 747.400390625 -908.25 l 1
 1036.20019531 -908.25 l 1
 1036.20019531 -944.349609375 l 1
 954.5 -947.200195312 942.150390625 -972.849609375 942.150390625 -1087.79980469 c 2
250.549804688 -1087.79980469 m 2
 250.549804688 -1460.20019531 l 2
 250.549804688 -1585.59960938 264.799804688 -1600.79980469 354.099609375 -1603.65039062 c 1
 354.099609375 -1639.75 l 1
 46.2998046875 -1639.75 l 1
 46.2998046875 -1603.65039062 l 1
 135.599609375 -1600.79980469 150.799804688 -1584.65039062 150.799804688 -1466.84960938 c 2
 150.799804688 -1081.15039062 l 2
 150.799804688 -973.799804688 137.5 -948.150390625 55.7998046875 -944.349609375 c 1
 55.7998046875 -908.25 l 1
 344.599609375 -908.25 l 1
 344.599609375 -944.349609375 l 1
 262.900390625 -947.200195312 250.549804688 -972.849609375 250.549804688 -1087.79980469 c 2
399 603 m 2
 577 153 l 1
 753 587 l 2
 773 636 780 661 780 683 c 0
 780 719 761 732 702 732 c 1
 702 770 l 1
 945 770 l 1
 945 732 l 1
 884 725 859 707 836 651 c 2
 565 -10 l 1
 530 -10 l 1
 272 613 l 2
 238 694 210 727 140 731 c 1
 140 770 l 1
 466 770 l 1
 466 731 l 1
 392 731 375 717 375 689 c 0
 375 670 381 649 399 603 c 2
EndSplineSet
Validated: 524289
Ligature2: "'liga' Standard Ligatures in Latin lookup 0 per glyph data 0" V slash I I I
EndChar

StartChar: VobliqueIV
Encoding: 195 195 102
Width: 1157
GlyphClass: 3
Flags: MW
HStem: -1529 38 -798 39 -797 38 -558 269
VStem: 110 105
LayerCount: 2
Fore
SplineSet
1067 -372 m 1x10
 91 -558 l 1
 91 -475 l 1
 1067 -289 l 1
 1067 -372 l 1x10
609.375 -1067.15039062 m 2x40
 778.474609375 -1494.65039062 l 1
 945.674804688 -1082.34960938 l 2
 964.674804688 -1035.79980469 971.325195312 -1012.04980469 971.325195312 -991.150390625 c 0
 971.325195312 -956.950195312 953.275390625 -944.599609375 897.224609375 -944.599609375 c 1
 897.224609375 -908.5 l 1
 1128.07519531 -908.5 l 1
 1128.07519531 -944.599609375 l 1
 1070.125 -951.25 1046.375 -968.349609375 1024.52539062 -1021.54980469 c 2
 767.075195312 -1649.5 l 1
 733.825195312 -1649.5 l 1
 488.724609375 -1057.65039062 l 2
 456.424804688 -980.700195312 429.825195312 -949.349609375 363.325195312 -945.549804688 c 1
 363.325195312 -908.5 l 1
 673.025390625 -908.5 l 1
 673.025390625 -945.549804688 l 1
 602.724609375 -945.549804688 586.575195312 -958.849609375 586.575195312 -985.450195312 c 0
 586.575195312 -1003.5 592.275390625 -1023.45019531 609.375 -1067.15039062 c 2x40
233.174804688 -1088.04980469 m 2xa8
 233.174804688 -1460.45019531 l 2
 233.174804688 -1585.84960938 247.424804688 -1601.04980469 336.724609375 -1603.90039062 c 1
 336.724609375 -1640 l 1
 28.9248046875 -1640 l 1
 28.9248046875 -1603.90039062 l 1
 118.224609375 -1601.04980469 133.424804688 -1584.90039062 133.424804688 -1467.09960938 c 2
 133.424804688 -1081.40039062 l 2
 133.424804688 -974.049804688 120.125 -948.400390625 38.4248046875 -944.599609375 c 1
 38.4248046875 -908.5 l 1
 327.224609375 -908.5 l 1
 327.224609375 -944.599609375 l 1
 245.525390625 -947.450195312 233.174804688 -973.099609375 233.174804688 -1088.04980469 c 2xa8
429 603 m 2
 607 153 l 1
 783 587 l 2
 803 636 810 661 810 683 c 0
 810 719 791 732 732 732 c 1
 732 770 l 1
 975 770 l 1
 975 732 l 1
 914 725 889 707 866 651 c 2
 595 -10 l 1
 560 -10 l 1
 302 613 l 2
 268 694 240 727 170 731 c 1
 170 770 l 1
 496 770 l 1
 496 731 l 1
 422 731 405 717 405 689 c 0
 405 670 411 649 429 603 c 2
EndSplineSet
Validated: 524289
Ligature2: "'liga' Standard Ligatures in Latin lookup 0 per glyph data 0" V slash I V
EndChar

StartChar: VobliqueVI
Encoding: 196 196 103
Width: 1204
GlyphClass: 3
Flags: MW
HStem: -1535 38 -804 39 -803 38 -555 269
VStem: 970 105
LayerCount: 2
Fore
SplineSet
1087 -369 m 1x10
 111 -555 l 1
 111 -472 l 1
 1087 -286 l 1
 1087 -369 l 1x10
1051.34960938 -1088.04980469 m 2xa8
 1051.34960938 -1460.45019531 l 2
 1051.34960938 -1585.84960938 1065.59960938 -1601.04980469 1154.90039062 -1603.90039062 c 1
 1154.90039062 -1640 l 1
 847.099609375 -1640 l 1
 847.099609375 -1603.90039062 l 1
 936.400390625 -1601.04980469 951.599609375 -1584.90039062 951.599609375 -1467.09960938 c 2
 951.599609375 -1081.40039062 l 2
 951.599609375 -974.049804688 938.299804688 -948.400390625 856.599609375 -944.599609375 c 1
 856.599609375 -908.5 l 1
 1145.40039062 -908.5 l 1
 1145.40039062 -944.599609375 l 1
 1063.70019531 -947.450195312 1051.34960938 -973.099609375 1051.34960938 -1088.04980469 c 2xa8
295.150390625 -1067.15039062 m 2x40
 464.25 -1494.65039062 l 1
 631.450195312 -1082.34960938 l 2
 650.450195312 -1035.79980469 657.099609375 -1012.04980469 657.099609375 -991.150390625 c 0
 657.099609375 -956.950195312 639.049804688 -944.599609375 583 -944.599609375 c 1
 583 -908.5 l 1
 813.849609375 -908.5 l 1
 813.849609375 -944.599609375 l 1
 755.900390625 -951.25 732.150390625 -968.349609375 710.299804688 -1021.54980469 c 2
 452.849609375 -1649.5 l 1
 419.599609375 -1649.5 l 1
 174.5 -1057.65039062 l 2
 142.200195312 -980.700195312 115.599609375 -949.349609375 49.099609375 -945.549804688 c 1
 49.099609375 -908.5 l 1
 358.799804688 -908.5 l 1
 358.799804688 -945.549804688 l 1
 288.5 -945.549804688 272.349609375 -958.849609375 272.349609375 -985.450195312 c 0
 272.349609375 -1003.5 278.049804688 -1023.45019531 295.150390625 -1067.15039062 c 2x40
466 603 m 2
 644 153 l 1
 820 587 l 2
 840 636 847 661 847 683 c 0
 847 719 828 732 769 732 c 1
 769 770 l 1
 1012 770 l 1
 1012 732 l 1
 951 725 926 707 903 651 c 2
 632 -10 l 1
 597 -10 l 1
 339 613 l 2
 305 694 277 727 207 731 c 1
 207 770 l 1
 533 770 l 1
 533 731 l 1
 459 731 442 717 442 689 c 0
 442 670 448 649 466 603 c 2
EndSplineSet
Validated: 524289
Ligature2: "'liga' Standard Ligatures in Latin lookup 0 per glyph data 0" V slash V I
EndChar

StartChar: VobliqueVII
Encoding: 197 197 104
Width: 1475
GlyphClass: 3
Flags: MW
HStem: -1536 38 -1533 38 -804 38 -801 38 -316 20G<1229.22 1229.22>
VStem: 932.225 105 1279.22 105
LayerCount: 2
Fore
SplineSet
1229.22460938 -379 m 1x0e
 253.224609375 -565 l 1
 253.224609375 -482 l 1
 1229.22460938 -296 l 1
 1229.22460938 -379 l 1x0e
1022.25 -1090.97460938 m 2
 1022.25 -1463.375 l 2
 1022.25 -1588.77539062 1036.5 -1603.97460938 1125.79980469 -1606.82519531 c 1
 1125.79980469 -1642.92480469 l 1
 818 -1642.92480469 l 1
 818 -1606.82519531 l 1
 907.299804688 -1603.97460938 922.5 -1587.82519531 922.5 -1470.02539062 c 2
 922.5 -1084.32519531 l 2
 922.5 -976.974609375 909.19921875 -951.325195312 827.5 -947.525390625 c 1
 827.5 -911.424804688 l 1
 1116.29980469 -911.424804688 l 1
 1116.29980469 -947.525390625 l 1xae
 1034.59960938 -950.375 1022.25 -976.025390625 1022.25 -1090.97460938 c 2
266.049804688 -1070.07519531 m 2
 435.149414062 -1497.57519531 l 1
 602.349609375 -1085.27539062 l 2
 621.349609375 -1038.72460938 628 -1014.97460938 628 -994.075195312 c 0
 628 -959.875 609.94921875 -947.525390625 553.899414062 -947.525390625 c 1
 553.899414062 -911.424804688 l 1
 784.75 -911.424804688 l 1
 784.75 -947.525390625 l 1
 726.799804688 -954.174804688 703.049804688 -971.275390625 681.19921875 -1024.47460938 c 2
 423.75 -1652.42480469 l 1
 390.5 -1652.42480469 l 1
 145.399414062 -1060.57519531 l 2
 113.099609375 -983.625 86.5 -952.275390625 20 -948.474609375 c 1
 20 -911.424804688 l 1
 329.69921875 -911.424804688 l 1
 329.69921875 -948.474609375 l 1
 259.399414062 -948.474609375 243.25 -961.775390625 243.25 -988.375 c 0
 243.25 -1006.42480469 248.94921875 -1026.375 266.049804688 -1070.07519531 c 2
1351.89941406 -1088.125 m 2x52
 1351.89941406 -1460.52539062 l 2
 1351.89941406 -1585.92480469 1366.14941406 -1601.125 1455.44921875 -1603.97460938 c 1
 1455.44921875 -1640.07519531 l 1
 1147.64941406 -1640.07519531 l 1
 1147.64941406 -1603.97460938 l 1
 1236.94921875 -1601.125 1252.14941406 -1584.97460938 1252.14941406 -1467.17480469 c 2
 1252.14941406 -1081.47460938 l 2
 1252.14941406 -974.125 1238.84960938 -948.474609375 1157.14941406 -944.674804688 c 1
 1157.14941406 -908.575195312 l 1
 1445.94921875 -908.575195312 l 1
 1445.94921875 -944.674804688 l 1
 1364.25 -947.525390625 1351.89941406 -973.174804688 1351.89941406 -1088.125 c 2x52
611.224609375 603 m 2
 789.224609375 153 l 1
 965.224609375 587 l 2
 985.224609375 636 992.224609375 661 992.224609375 683 c 0
 992.224609375 719 973.224609375 732 914.224609375 732 c 1
 914.224609375 770 l 1
 1157.22460938 770 l 1
 1157.22460938 732 l 1
 1096.22460938 725 1071.22460938 707 1048.22460938 651 c 2
 777.224609375 -10 l 1
 742.224609375 -10 l 1
 484.224609375 613 l 2
 450.224609375 694 422.224609375 727 352.224609375 731 c 1
 352.224609375 770 l 1
 678.224609375 770 l 1
 678.224609375 731 l 1
 604.224609375 731 587.224609375 717 587.224609375 689 c 0
 587.224609375 670 593.224609375 649 611.224609375 603 c 2
EndSplineSet
Validated: 524289
Ligature2: "'liga' Standard Ligatures in Latin lookup 0 per glyph data 0" V slash V I I
EndChar

StartChar: VobliqueV
Encoding: 198 198 105
Width: 976
GlyphClass: 3
Flags: MW
HStem: -794 39 -555 269
LayerCount: 2
Fore
SplineSet
976 -369 m 1
 0 -555 l 1
 0 -472 l 1
 976 -286 l 1
 976 -369 l 1
347.174804688 -1062.15039062 m 2
 516.275390625 -1489.65039062 l 1
 683.474609375 -1077.34960938 l 2
 702.474609375 -1030.79980469 709.125 -1007.04980469 709.125 -986.150390625 c 0
 709.125 -951.950195312 691.075195312 -939.599609375 635.025390625 -939.599609375 c 1
 635.025390625 -903.5 l 1
 865.875 -903.5 l 1
 865.875 -939.599609375 l 1
 807.924804688 -946.25 784.174804688 -963.349609375 762.325195312 -1016.54980469 c 2
 504.875 -1644.5 l 1
 471.625 -1644.5 l 1
 226.525390625 -1052.65039062 l 2
 194.224609375 -975.700195312 167.625 -944.349609375 101.125 -940.549804688 c 1
 101.125 -903.5 l 1
 410.825195312 -903.5 l 1
 410.825195312 -940.549804688 l 1
 340.525390625 -940.549804688 324.375 -953.849609375 324.375 -980.450195312 c 0
 324.375 -998.5 330.075195312 -1018.45019531 347.174804688 -1062.15039062 c 2
339 603 m 2
 517 153 l 1
 693 587 l 2
 713 636 720 661 720 683 c 0
 720 719 701 732 642 732 c 1
 642 770 l 1
 885 770 l 1
 885 732 l 1
 824 725 799 707 776 651 c 2
 505 -10 l 1
 470 -10 l 1
 212 613 l 2
 178 694 150 727 80 731 c 1
 80 770 l 1
 406 770 l 1
 406 731 l 1
 332 731 315 717 315 689 c 0
 315 670 321 649 339 603 c 2
EndSplineSet
Validated: 524289
Ligature2: "'liga' Standard Ligatures in Latin lookup 0 per glyph data 0" V slash V
EndChar

StartChar: VIIobliqueV
Encoding: 199 199 106
Width: 1573
GlyphClass: 3
Flags: MW
HStem: -940.55 37.0498<392.125 701.825 666.675 701.825> -306 20G<1267 1267> 0 38<858 1182 858 858> 731 39<20 346 309 346> 732 38<582 611.5>
VStem: 968 105<182 189 189 581> 1314 105<182 189 189 581>
LayerCount: 2
Fore
SplineSet
1267 -369 m 1xe6
 291 -555 l 1
 291 -472 l 1
 1267 -286 l 1
 1267 -369 l 1xe6
638.174804688 -1062.15039062 m 2
 807.275390625 -1489.65039062 l 1
 974.474609375 -1077.34960938 l 2
 993.474609375 -1030.79980469 1000.125 -1007.04980469 1000.125 -986.150390625 c 0
 1000.125 -951.950195312 982.075195312 -939.599609375 926.025390625 -939.599609375 c 1
 926.025390625 -903.5 l 1
 1156.875 -903.5 l 1
 1156.875 -939.599609375 l 1
 1098.92480469 -946.25 1075.17480469 -963.349609375 1053.32519531 -1016.54980469 c 2
 795.875 -1644.5 l 1
 762.625 -1644.5 l 1
 517.525390625 -1052.65039062 l 2
 485.224609375 -975.700195312 458.625 -944.349609375 392.125 -940.549804688 c 1
 392.125 -903.5 l 1
 701.825195312 -903.5 l 1
 701.825195312 -940.549804688 l 1
 631.525390625 -940.549804688 615.375 -953.849609375 615.375 -980.450195312 c 0
 615.375 -998.5 621.075195312 -1018.45019531 638.174804688 -1062.15039062 c 2
1419 581 m 2x2a
 1419 189 l 2
 1419 57 1434 41 1528 38 c 1
 1528 0 l 1
 1204 0 l 1
 1204 38 l 1
 1298 41 1314 58 1314 182 c 2
 1314 588 l 2
 1314 701 1300 728 1214 732 c 1
 1214 770 l 1
 1518 770 l 1
 1518 732 l 1
 1432 729 1419 702 1419 581 c 2x2a
1073 581 m 2x2c
 1073 189 l 2
 1073 57 1088 41 1182 38 c 1
 1182 0 l 1
 858 0 l 1
 858 38 l 1
 952 41 968 58 968 182 c 2
 968 588 l 2
 968 701 954 728 868 732 c 1
 868 770 l 1
 1172 770 l 1
 1172 732 l 1
 1086 729 1073 702 1073 581 c 2x2c
279 603 m 2x10
 457 153 l 1
 633 587 l 2
 653 636 660 661 660 683 c 0
 660 719 641 732 582 732 c 1
 582 770 l 1
 825 770 l 1
 825 732 l 1
 764 725 739 707 716 651 c 2
 445 -10 l 1
 410 -10 l 1
 152 613 l 2
 118 694 90 727 20 731 c 1
 20 770 l 1
 346 770 l 1
 346 731 l 1
 272 731 255 717 255 689 c 0
 255 670 261 649 279 603 c 2x10
EndSplineSet
Validated: 524289
Ligature2: "'liga' Standard Ligatures in Latin lookup 0 per glyph data 0" V I I slash V
EndChar

StartChar: aum6fr
Encoding: 200 200 107
Width: 1852
GlyphClass: 3
Flags: MW
HStem: -1434 99<1235.5 1263> -1425 26<557 770 557 557> -1083 26<900 932.5> -1082 62<1110.5 1191> -1075 35<537 622 537 622 692 813> -839 36<754 778.5> -606 45<590.5 621> -603 99<1762.5 1790> -598 44<138 148.5> -596 26<927 1126 927 927> -300 21G<63 84.5> -246 26<925 948> -233 41<1184 1217.5 1464.5 1497.5> -227 26<402 538> -215 28<154.5 198.5> -42 49 -29 29 -29 29 -29 37 -26 45 -23 42 -18 37 -12 29 -10 45<234.5 326 234.5 349.5> -8 29 -8 37 33 37
VStem: 16 125<235 283 283 332 201 458.5> 20 76<-513.5 -486> 38 77 249 74<-429 -370 -370 -370 -338 -307 -307 -304> 416 125<184 321.5> 465 73<-440 -405 -405 -321 -321 -280> 622 70<-1311 -1305 -1305 -1075 -1040 -986 -986 -981> 734 73<-394 -321 -321 -280> 739 79<639 648 648 989 989 1024> 929 79<429 438 438 525 525 525 573 779 779 814> 966 73<-1311 -1306 -1306 -1281 -1347 -1224> 991 74<-482 -476 -476 -386 -386 -381> 1142 97<741 804 804 812> 1200 99<-1398.5 -1371> 1272 73<-482 -476 -476 -388 -388 -381> 1332 97<514 646> 1553 73<-482 -476 -476 -388 -388 -357> 1727 99<-567.5 -540>
LayerCount: 2
Fore
SplineSet
1039 -1281 m 2x142111024418
 1039 -1306 l 2
 1039 -1388 1044 -1395 1101 -1399 c 1
 1101 -1425 l 1
 902 -1425 l 1
 902 -1399 l 1
 960 -1396 966 -1387 966 -1311 c 2
 966 -1224 l 2
 966 -1088 965 -1083 900 -1083 c 1
 900 -1057 l 1x642111024418
 1031 -1028 l 1
 1042 -1122 l 1
 1045 -1122 l 1
 1072 -1062 1124 -1020 1175 -1020 c 0
 1207 -1020 1227 -1037 1227 -1063 c 0
 1227 -1087 1212 -1101 1184 -1101 c 0
 1152 -1101 1142 -1082 1124 -1082 c 0
 1097 -1082 1067 -1122 1052 -1174 c 0
 1044 -1202 1039 -1241 1039 -1281 c 2x142111024418
537 -1075 m 1x4c2111024018
 537 -1040 l 1
 622 -1040 l 1
 622 -986 l 2
 622 -871 684 -803 796 -803 c 0
 858 -803 902 -824 902 -854 c 0
 902 -874 887 -889 868 -889 c 0
 856 -889 845 -882 823 -864 c 0
 798 -843 788 -839 769 -839 c 0
 739 -839 717 -855 704 -885 c 0
 695 -904 692 -931 692 -981 c 2
 692 -1040 l 1
 813 -1040 l 1
 813 -1075 l 1
 692 -1075 l 1
 692 -1305 l 2
 692 -1379 707 -1397 770 -1399 c 1
 770 -1425 l 1
 557 -1425 l 1
 557 -1399 l 1
 614 -1396 622 -1387 622 -1311 c 2
 622 -1075 l 1
 537 -1075 l 1x4c2111024018
1200 -1385 m 0x842111024098
 1200 -1357 1222 -1335 1249 -1335 c 0
 1277 -1335 1299 -1357 1299 -1385 c 0
 1299 -1412 1277 -1434 1249 -1434 c 0
 1222 -1434 1200 -1412 1200 -1385 c 0x842111024098
1065 -381 m 2x046911024258
 1065 -476 l 2
 1065 -559 1069 -566 1126 -570 c 1
 1126 -596 l 1
 927 -596 l 1
 927 -570 l 1
 985 -566 991 -558 991 -482 c 2
 991 -386 l 2
 991 -329 990 -290 986 -276 c 0
 981 -251 971 -246 925 -246 c 1
 925 -220 l 1x047111024258
 1048 -192 l 1
 1057 -266 l 1
 1061 -266 l 1
 1106 -215 1154 -192 1214 -192 c 0
 1277 -192 1322 -219 1338 -266 c 1
 1342 -266 l 1
 1379 -220 1435 -192 1494 -192 c 0
 1540 -192 1582 -208 1602 -235 c 0
 1620 -258 1626 -292 1626 -357 c 2
 1626 -476 l 2
 1626 -558 1632 -566 1689 -570 c 1
 1689 -596 l 1
 1489 -596 l 1
 1489 -570 l 1
 1546 -567 1553 -557 1553 -482 c 2
 1553 -388 l 2
 1553 -273 1530 -233 1465 -233 c 0
 1421 -233 1380 -259 1358 -300 c 0
 1347 -320 1345 -334 1345 -381 c 2
 1345 -476 l 2
 1345 -558 1350 -566 1408 -570 c 1
 1408 -596 l 1
 1209 -596 l 1
 1209 -570 l 1
 1266 -566 1272 -558 1272 -482 c 2
 1272 -388 l 2
 1272 -272 1250 -233 1185 -233 c 0
 1141 -233 1098 -259 1078 -300 c 0
 1067 -320 1065 -334 1065 -381 c 2x046911024258
734 -394 m 2x06251102e018
 734 -321 l 2
 734 -239 730 -233 672 -227 c 1
 672 -201 l 1
 807 -201 l 1
 807 -431 l 2
 807 -488 809 -523 812 -541 c 0
 817 -566 827 -571 873 -571 c 1
 873 -597 l 1
 749 -606 l 1
 741 -516 l 1
 738 -516 l 1
 700 -578 648 -606 594 -606 c 0
 552 -606 509 -588 489 -561 c 0
 473 -539 465 -502 465 -440 c 2
 465 -321 l 2
 465 -239 460 -232 402 -227 c 1
 402 -201 l 1
 538 -201 l 1
 538 -405 l 2
 538 -513 563 -561 618 -561 c 0
 661 -561 696 -532 721 -474 c 0
 731 -451 734 -437 734 -394 c 2x06251102e018
1727 -554 m 0x04a111024018
 1727 -526 1749 -504 1776 -504 c 0x052111024018
 1804 -504 1826 -526 1826 -554 c 0x04a111024018
 1826 -581 1804 -603 1776 -603 c 0x052111024018
 1749 -603 1727 -581 1727 -554 c 0x04a111024018
249 -429 m 2
 249 -370 l 1
 134 -414 96 -453 96 -497 c 0
 96 -530 120 -554 156 -554 c 0x04a1110a4018
 208 -554 249 -497 249 -429 c 2
142 -385 m 2
 249 -338 l 1
 249 -307 l 2
 249 -245 225 -215 172 -215 c 0
 137 -215 128 -225 115 -264 c 0
 104 -292 94 -300 75 -300 c 0
 51 -300 38 -286 38 -262 c 0
 38 -214 91 -187 185 -187 c 0x04a311064018
 286 -187 323 -219 323 -304 c 2
 323 -472 l 2
 323 -530 335 -557 357 -557 c 0
 371 -557 385 -556 394 -541 c 1
 404 -559 l 1
 392 -582 356 -599 321 -599 c 0
 277 -599 255 -570 255 -519 c 1
 252 -519 l 1
 226 -568 176 -598 121 -598 c 0
 59 -598 20 -563 20 -510 c 0
 20 -462 51 -424 142 -385 c 2
541 259 m 0x042111134018
 541 109 423 -10 276 -10 c 0
 123 -10 16 133 16 337 c 0
 16 580 159 780 333 780 c 0
 429 780 506 735 506 678 c 0
 506 646 485 626 452 626 c 0
 374 626 406 735 304 735 c 0
 212 735 143 600 143 420 c 1
 146 418 l 1
 189 480 237 508 304 508 c 0
 439 508 541 401 541 259 c 0x042111134018
141 332 m 1
 141 283 l 2
 141 119 189 35 280 35 c 0
 372 35 416 105 416 255 c 0
 416 388 372 459 290 459 c 0
 229 459 185 421 141 332 c 1
1132 315 m 2x042111625838
 839 315 l 1
 839 344 l 1
 915 346 929 358 929 429 c 2
 929 525 l 1x042131825838
 649 525 l 1
 649 554 l 1
 725 556 739 568 739 639 c 2
 739 989 l 2
 739 1059 729 1071 664 1074 c 1
 664 1103 l 1x042153025838
 927 1103 l 2
 1082 1103 1202 1010 1232 874 c 1
 1351 833 1429 727 1429 594 c 0
 1429 430 1307 315 1132 315 c 2x042111625838
1116 856 m 2x04211d024918
 1021 856 l 2
 1013 856 1008 851 1008 843 c 2
 1008 573 l 1
 1094 601 1142 679 1142 803 c 0
 1142 821 1141 839 1139 855 c 1
 1131 856 1124 856 1116 856 c 2x04211d024918
926 1066 m 2x042115225818
 831 1066 l 2
 823 1066 818 1061 818 1053 c 2
 818 648 l 2
 818 590 854 562 929 562 c 1
 929 779 l 2
 929 849 919 861 854 864 c 1
 854 893 l 1x0421b1225818
 1117 893 l 2
 1122 893 1127 892 1132 892 c 1
 1107 1003 1033 1066 926 1066 c 2x042115225818
1008 531 m 1x042119424938
 1008 438 l 2
 1008 380 1043 352 1119 352 c 0
 1255 352 1332 435 1332 593 c 0
 1332 699 1298 777 1239 819 c 1
 1239 804 l 2
 1239 661 1147 556 1008 531 c 1x042119424938
EndSplineSet
Validated: 8388609
Ligature2: "'liga' Standard Ligatures in Latin lookup 0 per glyph data 2" A A A
EndChar

StartChar: aum6al
Encoding: 201 201 108
Width: 1852
GlyphClass: 3
Flags: MW
HStem: -1434 45<645 655.5> -1434 99<1235.5 1263> -1422 26<949 1156 949 949> -1051 29<661.5 705.5> -853 25<947 971> -606 45<590.5 621> -603 99<1762.5 1790> -598 44<138 148.5> -596 26<927 1126 927 927> -300 21G<63 84.5> -246 26<925 948> -233 41<1184 1217.5 1464.5 1497.5> -227 26<402 538> -215 28<154.5 198.5> -37 37 -37 45 -35 49 -31 42 -29 29 -29 29 -10 45<234.5 326 234.5 349.5> 16 37 31 29 31 37 37 29 37 37
VStem: 16 125<235 283 283 332 201 458.5> 20 76<-513.5 -486> 38 77 249 74<-429 -370 -370 -370 -338 -307 -307 -304> 416 125<184 321.5> 465 73<-440 -405 -405 -321 -321 -280> 527 76<-1349.5 -1321> 545 77<4.29497e+09 4.29497e+09> 734 73<-394 -321 -321 -280> 739 79<639 648 648 989 989 1024> 757 73<-1265 -1205 -1205 -1205 -1173 -1142 -1142 -1139> 929 79<429 438 438 525 525 525 573 779 779 814> 991 74<-482 -476 -476 -386 -386 -381> 1019 70<-1311 -1305 -1305 -987 -987 -960> 1142 97<741 804 804 812> 1200 99<-1398.5 -1371> 1272 73<-482 -476 -476 -388 -388 -381> 1332 97<514 646> 1553 73<-482 -476 -476 -388 -388 -357> 1727 99<-567.5 -540>
LayerCount: 2
Fore
SplineSet
1089 -800 m 1x38418804010c
 1089 -1305 l 2
 1089 -1381 1098 -1394 1156 -1396 c 1
 1156 -1422 l 1
 949 -1422 l 1
 949 -1396 l 1
 1008 -1393 1019 -1380 1019 -1311 c 2
 1019 -987 l 2
 1019 -933 1018 -895 1015 -882 c 0
 1010 -859 995 -853 947 -853 c 1
 947 -828 l 1
 1089 -800 l 1x38418804010c
757 -1265 m 2x98418804880c
 757 -1205 l 1
 642 -1249 603 -1289 603 -1333 c 0
 603 -1366 627 -1389 663 -1389 c 0
 715 -1389 757 -1333 757 -1265 c 2x98418804880c
649 -1220 m 2
 757 -1173 l 1
 757 -1142 l 2
 757 -1080 732 -1051 679 -1051 c 0
 644 -1051 635 -1060 622 -1099 c 0
 611 -1127 602 -1135 583 -1135 c 0
 559 -1135 545 -1122 545 -1098 c 0x98418804480c
 545 -1050 598 -1022 692 -1022 c 0
 793 -1022 830 -1054 830 -1139 c 2
 830 -1307 l 2
 830 -1365 842 -1393 864 -1393 c 0
 878 -1393 892 -1391 901 -1376 c 1
 911 -1394 l 1
 899 -1417 863 -1435 828 -1435 c 0
 784 -1435 763 -1406 763 -1355 c 1
 759 -1355 l 1
 733 -1404 683 -1434 628 -1434 c 0
 566 -1434 527 -1398 527 -1345 c 0
 527 -1297 558 -1259 649 -1220 c 2
1200 -1385 m 0x58418804004c
 1200 -1357 1222 -1335 1249 -1335 c 0
 1277 -1335 1299 -1357 1299 -1385 c 0
 1299 -1412 1277 -1434 1249 -1434 c 0
 1222 -1434 1200 -1412 1200 -1385 c 0x58418804004c
1065 -381 m 2x18d18804022c
 1065 -476 l 2
 1065 -559 1069 -566 1126 -570 c 1
 1126 -596 l 1
 927 -596 l 1
 927 -570 l 1
 985 -566 991 -558 991 -482 c 2
 991 -386 l 2
 991 -329 990 -290 986 -276 c 0
 981 -251 971 -246 925 -246 c 1
 925 -220 l 1x18e18804022c
 1048 -192 l 1
 1057 -266 l 1
 1061 -266 l 1
 1106 -215 1154 -192 1214 -192 c 0
 1277 -192 1322 -219 1338 -266 c 1
 1342 -266 l 1
 1379 -220 1435 -192 1494 -192 c 0
 1540 -192 1582 -208 1602 -235 c 0
 1620 -258 1626 -292 1626 -357 c 2
 1626 -476 l 2
 1626 -558 1632 -566 1689 -570 c 1
 1689 -596 l 1
 1489 -596 l 1
 1489 -570 l 1
 1546 -567 1553 -557 1553 -482 c 2
 1553 -388 l 2
 1553 -273 1530 -233 1465 -233 c 0
 1421 -233 1380 -259 1358 -300 c 0
 1347 -320 1345 -334 1345 -381 c 2
 1345 -476 l 2
 1345 -558 1350 -566 1408 -570 c 1
 1408 -596 l 1
 1209 -596 l 1
 1209 -570 l 1
 1266 -566 1272 -558 1272 -482 c 2
 1272 -388 l 2
 1272 -272 1250 -233 1185 -233 c 0
 1141 -233 1098 -259 1078 -300 c 0
 1067 -320 1065 -334 1065 -381 c 2x18d18804022c
734 -394 m 2x1c498805200c
 734 -321 l 2
 734 -239 730 -233 672 -227 c 1
 672 -201 l 1
 807 -201 l 1
 807 -431 l 2
 807 -488 809 -523 812 -541 c 0
 817 -566 827 -571 873 -571 c 1
 873 -597 l 1
 749 -606 l 1
 741 -516 l 1
 738 -516 l 1
 700 -578 648 -606 594 -606 c 0
 552 -606 509 -588 489 -561 c 0
 473 -539 465 -502 465 -440 c 2
 465 -321 l 2
 465 -239 460 -232 402 -227 c 1
 402 -201 l 1
 538 -201 l 1
 538 -405 l 2
 538 -513 563 -561 618 -561 c 0
 661 -561 696 -532 721 -474 c 0
 731 -451 734 -437 734 -394 c 2x1c498805200c
1727 -554 m 0x19418804000c
 1727 -526 1749 -504 1776 -504 c 0x1a418804000c
 1804 -504 1826 -526 1826 -554 c 0x19418804000c
 1826 -581 1804 -603 1776 -603 c 0x1a418804000c
 1749 -603 1727 -581 1727 -554 c 0x19418804000c
249 -429 m 2
 249 -370 l 1
 134 -414 96 -453 96 -497 c 0
 96 -530 120 -554 156 -554 c 0x19418814000c
 208 -554 249 -497 249 -429 c 2
142 -385 m 2
 249 -338 l 1
 249 -307 l 2
 249 -245 225 -215 172 -215 c 0
 137 -215 128 -225 115 -264 c 0
 104 -292 94 -300 75 -300 c 0
 51 -300 38 -286 38 -262 c 0
 38 -214 91 -187 185 -187 c 0x1945880c000c
 286 -187 323 -219 323 -304 c 2
 323 -472 l 2
 323 -530 335 -557 357 -557 c 0
 371 -557 385 -556 394 -541 c 1
 404 -559 l 1
 392 -582 356 -599 321 -599 c 0
 277 -599 255 -570 255 -519 c 1
 252 -519 l 1
 226 -568 176 -598 121 -598 c 0
 59 -598 20 -563 20 -510 c 0
 20 -462 51 -424 142 -385 c 2
541 259 m 0x18418826000c
 541 109 423 -10 276 -10 c 0
 123 -10 16 133 16 337 c 0
 16 580 159 780 333 780 c 0
 429 780 506 735 506 678 c 0
 506 646 485 626 452 626 c 0
 374 626 406 735 304 735 c 0
 212 735 143 600 143 420 c 1
 146 418 l 1
 189 480 237 508 304 508 c 0
 439 508 541 401 541 259 c 0x18418826000c
141 332 m 1
 141 283 l 2
 141 119 189 35 280 35 c 0
 372 35 416 105 416 255 c 0
 416 388 372 459 290 459 c 0
 229 459 185 421 141 332 c 1
1132 315 m 2x18438844141c
 839 315 l 1
 839 344 l 1
 915 346 929 358 929 429 c 2
 929 525 l 1x18418984141c
 649 525 l 1
 649 554 l 1
 725 556 739 568 739 639 c 2
 739 989 l 2
 739 1059 729 1071 664 1074 c 1
 664 1103 l 1x1841aa04141c
 927 1103 l 2
 1082 1103 1202 1010 1232 874 c 1
 1351 833 1429 727 1429 594 c 0
 1429 430 1307 315 1132 315 c 2x18438844141c
1116 856 m 2x1841cc04048c
 1021 856 l 2
 1013 856 1008 851 1008 843 c 2
 1008 573 l 1
 1094 601 1142 679 1142 803 c 0
 1142 821 1141 839 1139 855 c 1
 1131 856 1124 856 1116 856 c 2x1841cc04048c
926 1066 m 2x18438c04140c
 831 1066 l 2
 823 1066 818 1061 818 1053 c 2
 818 648 l 2
 818 590 854 562 929 562 c 1
 929 779 l 2
 929 849 919 861 854 864 c 1
 854 893 l 1x18439904140c
 1117 893 l 2
 1122 893 1127 892 1132 892 c 1
 1107 1003 1033 1066 926 1066 c 2x18438c04140c
1008 531 m 1x1841c844049c
 1008 438 l 2
 1008 380 1043 352 1119 352 c 0
 1255 352 1332 435 1332 593 c 0
 1332 699 1298 777 1239 819 c 1
 1239 804 l 2
 1239 661 1147 556 1008 531 c 1x1841c844049c
EndSplineSet
Validated: 8388609
Ligature2: "'liga' Standard Ligatures in Latin lookup 0 per glyph data 2" A A A A
EndChar

StartChar: aum6wag
Encoding: 202 202 109
Width: 1852
GlyphClass: 3
Flags: MW
HStem: -1601 33<1345.5 1427.5 1345.5 1444.5> -1437 16 -1434 99<1625.5 1653> -1423 42<1097 1162> -1051 50 -1045 27<165 187 344.5 364 635 655.5 770.5 785> -1039 28<952.5 996.5> -1029 28<1352.5 1394 1329.5 1395.5> -606 45<590.5 621> -603 99<1762.5 1790> -598 44<138 148.5> -596 26<927 1126 927 927> -300 21G<63 84.5> -246 26<925 948> -233 41<1184 1217.5 1464.5 1497.5> -227 26<402 538> -215 28<154.5 198.5> -43 37 -35 29 -30 29 -29 37 -25 49 -24 29 -24 37 -24 45 -23 42 -10 45<234.5 326 234.5 349.5> 28 37 36 29
VStem: -36 99 -23 73 -13 97 -8 63 -8 73 12 80 16 125<235 283 283 332 201 458.5> 20 76<-513.5 -486> 38 77 38 99 249 74<-429 -370 -370 -370 -338 -307 -307 -304> 416 125<184 321.5> 465 73<-440 -405 -405 -321 -321 -280> 734 73<-394 -321 -321 -280> 739 79<639 648 648 989 989 1024> 819 75<-1337.5 -1310> 837 76 929 79<429 438 438 525 525 525 573 779 779 814> 991 74<-482 -476 -476 -386 -386 -381> 1048 74<-1253 -1194 -1194 -1194 -1162 -1131 -1131 -1128> 1142 97<741 804 804 812> 1193 67<-1521 -1484 -1521 -1475> 1224 79<-1159 -1102.5 -1168 -1095> 1225 55<-1316 -1309.5>
LayerCount: 2
Fore
SplineSet
1374 -1245 m 0x810804a0230010
 1416 -1245 1441 -1204 1441 -1136 c 0
 1441 -1068 1417 -1029 1374 -1029 c 0
 1331 -1029 1303 -1070 1303 -1135 c 0
 1303 -1201 1331 -1245 1374 -1245 c 0x810804a0230010
1333 -1332 m 0
 1381 -1336 1411 -1340 1457 -1347 c 0
 1529 -1358 1576 -1405 1576 -1472 c 0
 1576 -1555 1507 -1601 1382 -1601 c 0
 1270 -1601 1193 -1558 1193 -1496 c 0
 1193 -1454 1223 -1421 1260 -1421 c 0
 1277 -1421 1291 -1426 1305 -1437 c 1
 1278 -1443 1260 -1469 1260 -1499 c 0xc80804a0830020
 1260 -1543 1306 -1568 1385 -1568 c 0
 1470 -1568 1513 -1541 1513 -1489 c 0
 1513 -1449 1482 -1421 1445 -1416 c 0
 1398 -1409 1338 -1402 1311 -1399 c 0
 1256 -1393 1225 -1368 1225 -1327 c 0xc80804a0830008
 1225 -1292 1258 -1262 1302 -1255 c 1
 1302 -1252 l 1
 1258 -1234 1224 -1185 1224 -1133 c 0
 1224 -1057 1287 -1001 1372 -1001 c 0xc10804a0030010
 1416 -1001 1457 -1016 1485 -1041 c 1
 1519 -1013 1544 -1001 1566 -1001 c 0
 1602 -1001 1626 -1019 1626 -1047 c 0
 1626 -1063 1613 -1075 1596 -1075 c 0
 1568 -1075 1564 -1051 1539 -1051 c 0
 1527 -1051 1515 -1056 1503 -1064 c 1
 1516 -1083 1521 -1105 1521 -1134 c 0
 1521 -1218 1467 -1268 1362 -1276 c 0
 1301 -1281 1280 -1287 1280 -1308 c 0x880804a2230008
 1280 -1324 1298 -1330 1333 -1332 c 0
1048 -1253 m 2x800804a0030880
 1048 -1194 l 1
 933 -1238 894 -1277 894 -1321 c 0
 894 -1354 918 -1378 954 -1378 c 0
 1006 -1378 1048 -1321 1048 -1253 c 2x800804a0030880
940 -1209 m 2
 1048 -1162 l 1
 1048 -1131 l 2
 1048 -1069 1023 -1039 970 -1039 c 0
 935 -1039 926 -1049 913 -1088 c 0
 902 -1116 893 -1124 874 -1124 c 0
 850 -1124 837 -1110 837 -1086 c 0
 837 -1038 890 -1011 984 -1011 c 0
 1085 -1011 1122 -1043 1122 -1128 c 2
 1122 -1296 l 2
 1122 -1354 1133 -1381 1155 -1381 c 0
 1169 -1381 1183 -1380 1192 -1365 c 1
 1203 -1383 l 1
 1191 -1406 1154 -1423 1119 -1423 c 0x920804a0030480
 1075 -1423 1054 -1394 1054 -1343 c 1
 1050 -1343 l 1
 1024 -1392 975 -1422 920 -1422 c 0
 858 -1422 819 -1387 819 -1334 c 0
 819 -1286 849 -1248 940 -1209 c 2
475 -1146 m 1
 365 -1423 l 1
 337 -1423 l 1
 240 -1111 l 2
 223 -1056 209 -1045 165 -1045 c 1
 165 -1018 l 1
 364 -1018 l 1
 364 -1045 l 1
 325 -1045 311 -1053 311 -1075 c 0
 311 -1085 314 -1098 319 -1117 c 2
 370 -1296 l 1
 373 -1296 l 1
 483 -1018 l 1
 507 -1018 l 1
 606 -1296 l 1
 609 -1296 l 1
 654 -1175 l 2
 679 -1108 685 -1089 685 -1072 c 0
 685 -1050 676 -1045 635 -1045 c 1
 635 -1018 l 1
 785 -1018 l 1
 785 -1045 l 1x940804a003
 756 -1045 746 -1058 714 -1136 c 2
 597 -1423 l 1
 570 -1423 l 1
 478 -1146 l 1
 475 -1146 l 1
1590 -1385 m 0xa00804a403
 1590 -1357 1612 -1335 1639 -1335 c 0
 1667 -1335 1689 -1357 1689 -1385 c 0
 1689 -1412 1667 -1434 1639 -1434 c 0
 1612 -1434 1590 -1412 1590 -1385 c 0xa00804a403
1065 -381 m 2x801a04a24301
 1065 -476 l 2
 1065 -559 1069 -566 1126 -570 c 1
 1126 -596 l 1
 927 -596 l 1
 927 -570 l 1
 985 -566 991 -558 991 -482 c 2
 991 -386 l 2
 991 -329 990 -290 986 -276 c 0
 981 -251 971 -246 925 -246 c 1
 925 -220 l 1x801c04a24301
 1048 -192 l 1
 1057 -266 l 1
 1061 -266 l 1
 1106 -215 1154 -192 1214 -192 c 0
 1277 -192 1322 -219 1338 -266 c 1
 1342 -266 l 1
 1379 -220 1435 -192 1494 -192 c 0
 1540 -192 1582 -208 1602 -235 c 0
 1620 -258 1626 -292 1626 -357 c 2
 1626 -476 l 2x800a04a2030080
 1626 -558 1632 -566 1689 -570 c 1
 1689 -596 l 1x801a04a403
 1489 -596 l 1
 1489 -570 l 1
 1546 -567 1553 -557 1553 -482 c 2
 1553 -388 l 2
 1553 -273 1530 -233 1465 -233 c 0
 1421 -233 1380 -259 1358 -300 c 0
 1347 -320 1345 -334 1345 -381 c 2
 1345 -476 l 2
 1345 -558 1350 -566 1408 -570 c 1
 1408 -596 l 1
 1209 -596 l 1
 1209 -570 l 1
 1266 -566 1272 -558 1272 -482 c 2
 1272 -388 l 2
 1272 -272 1250 -233 1185 -233 c 0
 1141 -233 1098 -259 1078 -300 c 0
 1067 -320 1065 -334 1065 -381 c 2x801a04a24301
734 -394 m 2x808904a00360
 734 -321 l 2
 734 -239 730 -233 672 -227 c 1
 672 -201 l 1
 807 -201 l 1
 807 -431 l 2
 807 -488 809 -523 812 -541 c 0
 817 -566 827 -571 873 -571 c 1
 873 -597 l 1
 749 -606 l 1
 741 -516 l 1
 738 -516 l 1
 700 -578 648 -606 594 -606 c 0
 552 -606 509 -588 489 -561 c 0
 473 -539 465 -502 465 -440 c 2
 465 -321 l 2
 465 -239 460 -232 402 -227 c 1
 402 -201 l 1
 538 -201 l 1
 538 -405 l 2
 538 -513 563 -561 618 -561 c 0
 661 -561 696 -532 721 -474 c 0
 731 -451 734 -437 734 -394 c 2x808904a00360
1727 -554 m 0x802804a003
 1727 -526 1749 -504 1776 -504 c 0x804804a003
 1804 -504 1826 -526 1826 -554 c 0x802804a003
 1826 -581 1804 -603 1776 -603 c 0x804804a003
 1749 -603 1727 -581 1727 -554 c 0x802804a003
249 -429 m 2
 249 -370 l 1
 134 -414 96 -453 96 -497 c 0
 96 -530 120 -554 156 -554 c 0x802804a00b
 208 -554 249 -497 249 -429 c 2
142 -385 m 2
 249 -338 l 1
 249 -307 l 2
 249 -245 225 -215 172 -215 c 0
 137 -215 128 -225 115 -264 c 0
 104 -292 94 -300 75 -300 c 0
 51 -300 38 -286 38 -262 c 0
 38 -214 91 -187 185 -187 c 0x802884a007
 286 -187 323 -219 323 -304 c 2
 323 -472 l 2
 323 -530 335 -557 357 -557 c 0
 371 -557 385 -556 394 -541 c 1
 404 -559 l 1
 392 -582 356 -599 321 -599 c 0
 277 -599 255 -570 255 -519 c 1
 252 -519 l 1
 226 -568 176 -598 121 -598 c 0
 59 -598 20 -563 20 -510 c 0
 20 -462 51 -424 142 -385 c 2
541 259 m 0x800804a01380
 541 109 423 -10 276 -10 c 0
 123 -10 16 133 16 337 c 0
 16 580 159 780 333 780 c 0
 429 780 506 735 506 678 c 0
 506 646 485 626 452 626 c 0
 374 626 406 735 304 735 c 0
 212 735 143 600 143 420 c 1
 146 418 l 1
 189 480 237 508 304 508 c 0
 439 508 541 401 541 259 c 0x800804a01380
141 332 m 1
 141 283 l 2
 141 119 189 35 280 35 c 0
 372 35 416 105 416 255 c 0
 416 388 372 459 290 459 c 0
 229 459 185 421 141 332 c 1
1132 315 m 2x80080cb10312
 839 315 l 1
 839 344 l 1
 915 346 929 358 929 429 c 2
 929 525 l 1x800815a10312
 649 525 l 1
 649 554 l 1
 725 556 739 568 739 639 c 2
 739 989 l 2
 739 1059 729 1071 664 1074 c 1
 664 1103 l 1x800806a90312
 927 1103 l 2
 1082 1103 1202 1010 1232 874 c 1
 1351 833 1429 727 1429 594 c 0
 1429 430 1307 315 1132 315 c 2x80080cb10312
1116 856 m 2x800844e0030240
 1021 856 l 2
 1013 856 1008 851 1008 843 c 2
 1008 573 l 1
 1094 601 1142 679 1142 803 c 0
 1142 821 1141 839 1139 855 c 1
 1131 856 1124 856 1116 856 c 2x800844e0030240
926 1066 m 2x800844b00312
 831 1066 l 2
 823 1066 818 1061 818 1053 c 2
 818 648 l 2
 818 590 854 562 929 562 c 1
 929 779 l 2
 929 849 919 861 854 864 c 1
 854 893 l 1x800825b00312
 1117 893 l 2
 1122 893 1127 892 1132 892 c 1
 1107 1003 1033 1066 926 1066 c 2x800844b00312
1008 531 m 1x80080ce1030240
 1008 438 l 2
 1008 380 1043 352 1119 352 c 0
 1255 352 1332 435 1332 593 c 0
 1332 699 1298 777 1239 819 c 1
 1239 804 l 2
 1239 661 1147 556 1008 531 c 1x80080ce1030240
EndSplineSet
Validated: 8388609
Ligature2: "'liga' Standard Ligatures in Latin lookup 0 per glyph data 2" A A A A A
EndChar

StartChar: VIIobliqueII
Encoding: 203 203 110
Width: 1573
GlyphClass: 3
Flags: MW
HStem: -1639.75 36.0996<450.35 758.15 450.35 450.35> -944.35 36.0996<459.85 748.65 459.85 748.65> -307 20G<1260 1260> 0 38<858 1182 858 858> 731 39<20 346 309 346> 732 38<582 611.5>
VStem: 554.85 99.75<-1466.85 -1460.2 -1460.2 -1087.8> 906.35 99.75<-1466.85 -1460.2 -1460.2 -1087.8> 968 105<182 189 189 581> 1314 105<182 189 189 581>
LayerCount: 2
Fore
SplineSet
1260 -370 m 1xf240
 284 -556 l 1
 284 -473 l 1
 1260 -287 l 1
 1260 -370 l 1xf240
1006.09960938 -1087.79980469 m 2xf340
 1006.09960938 -1460.20019531 l 2
 1006.09960938 -1585.59960938 1020.34960938 -1600.79980469 1109.65039062 -1603.65039062 c 1
 1109.65039062 -1639.75 l 1
 801.849609375 -1639.75 l 1
 801.849609375 -1603.65039062 l 1
 891.150390625 -1600.79980469 906.349609375 -1584.65039062 906.349609375 -1466.84960938 c 2
 906.349609375 -1081.15039062 l 2
 906.349609375 -973.799804688 893.049804688 -948.150390625 811.349609375 -944.349609375 c 1
 811.349609375 -908.25 l 1
 1100.15039062 -908.25 l 1
 1100.15039062 -944.349609375 l 1
 1018.45019531 -947.200195312 1006.09960938 -972.849609375 1006.09960938 -1087.79980469 c 2xf340
654.599609375 -1087.79980469 m 2
 654.599609375 -1460.20019531 l 2
 654.599609375 -1585.59960938 668.849609375 -1600.79980469 758.150390625 -1603.65039062 c 1
 758.150390625 -1639.75 l 1
 450.349609375 -1639.75 l 1
 450.349609375 -1603.65039062 l 1
 539.650390625 -1600.79980469 554.849609375 -1584.65039062 554.849609375 -1466.84960938 c 2
 554.849609375 -1081.15039062 l 2
 554.849609375 -973.799804688 541.549804688 -948.150390625 459.849609375 -944.349609375 c 1
 459.849609375 -908.25 l 1
 748.650390625 -908.25 l 1
 748.650390625 -944.349609375 l 1
 666.950195312 -947.200195312 654.599609375 -972.849609375 654.599609375 -1087.79980469 c 2
1419 581 m 2x1440
 1419 189 l 2
 1419 57 1434 41 1528 38 c 1
 1528 0 l 1
 1204 0 l 1
 1204 38 l 1
 1298 41 1314 58 1314 182 c 2
 1314 588 l 2
 1314 701 1300 728 1214 732 c 1
 1214 770 l 1
 1518 770 l 1
 1518 732 l 1
 1432 729 1419 702 1419 581 c 2x1440
1073 581 m 2x1480
 1073 189 l 2
 1073 57 1088 41 1182 38 c 1
 1182 0 l 1
 858 0 l 1
 858 38 l 1
 952 41 968 58 968 182 c 2
 968 588 l 2
 968 701 954 728 868 732 c 1
 868 770 l 1
 1172 770 l 1
 1172 732 l 1
 1086 729 1073 702 1073 581 c 2x1480
279 603 m 2x08
 457 153 l 1
 633 587 l 2
 653 636 660 661 660 683 c 0
 660 719 641 732 582 732 c 1
 582 770 l 1
 825 770 l 1
 825 732 l 1
 764 725 739 707 716 651 c 2
 445 -10 l 1
 410 -10 l 1
 152 613 l 2
 118 694 90 727 20 731 c 1
 20 770 l 1
 346 770 l 1
 346 731 l 1
 272 731 255 717 255 689 c 0
 255 670 261 649 279 603 c 2x08
EndSplineSet
Validated: 524289
Ligature2: "'liga' Standard Ligatures in Latin lookup 0 per glyph data 0" V I I slash I I
EndChar

